<?xml version="1.0" encoding="utf-8"?>
<!-- Generator: Adobe Illustrator 20.0.0, SVG Export Plug-In . SVG Version: 6.00 Build 0)  -->
<!DOCTYPE svg PUBLIC "-//W3C//DTD SVG 1.1//EN" "http://www.w3.org/Graphics/SVG/1.1/DTD/svg11.dtd">
<svg version="1.1" id="Layer_1" xmlns="http://www.w3.org/2000/svg" xmlns:xlink="http://www.w3.org/1999/xlink" x="0px" y="0px"
	 viewBox="0 0 205.2 247.3" style="enable-background:new 0 0 205.2 247.3;" xml:space="preserve">
<style type="text/css">
	.st0{fill:#091410;}
	.st1{fill:#1BA897;}
	.st2{fill:#FBEE2D;}
	.st3{fill:#D5C529;}
	.st4{fill:#C4B22F;}
	.st5{fill:#603240;}
	.st6{fill:#F1F2F2;}
	.st7{fill:#A52E23;}
	.st8{fill:#FFFFFF;}
	.st9{fill:#FDFEFE;}
	.st10{fill:#939598;}
	.st11{fill:#808285;}
	.st12{fill:#BCBEC0;}
	.st13{fill:#E6E7E8;}
	.st14{fill:#414042;}
	.st15{fill:#D1D3D4;}
	.st16{fill:#491B0D;}
	.st17{fill:#D84426;}
	.st18{fill:#93AC4C;}
	.st19{fill:#126F63;}
	.st20{fill:#E0C93A;}
	.st21{fill:#EF4423;}
	.st22{fill:#A09F9F;}
	.st23{fill:#AD4967;}
	.st24{fill:#85C441;}
	.st25{fill:#C53227;}
	.st26{fill:#7B7B7B;}
	.st27{fill:#B0B0B0;}
	.st28{fill:#4C4C4D;}
	.st29{fill:#8E8E8E;}
	.st30{fill:#BCBCBC;}
	.st31{fill:#212121;}
	.st32{fill:#DDDDDD;}
	.st33{fill:#B7B7B7;}
	.st34{fill:#F04A4A;}
	.st35{fill:#FDB523;}
	.st36{fill:#4AB749;}
	.st37{fill:#CCCCCB;}
	.st38{fill:#DBD622;}
	.st39{fill:#58C099;}
	.st40{fill:#4062AE;}
	.st41{fill:#D9D327;}
	.st42{fill:#4DA547;}
	.st43{fill:#49BB83;}
	.st44{fill:#6B50A1;}
	.st45{fill:#CD862A;}
	.st46{fill:#483E98;}
	.st47{fill:#A65926;}
	.st48{fill:#78C143;}
	.st49{fill:#32C0D1;}
	.st50{fill:#636464;}
	.st51{fill:#643584;}
	.st52{fill:#DC8727;}
	.st53{fill:#B56C29;}
	.st54{fill:#CC7A29;}
	.st55{fill:#A3A1A1;}
	.st56{fill:#167F70;}
	.st57{fill:#1AAF9A;}
	.st58{fill:#DCDBDB;}
	.st59{fill:#6BBE45;}
	.st60{fill:#43AF49;}
	.st61{fill:#62A844;}
	.st62{fill:#CE2E27;}
	.st63{fill:#8F1D1D;}
	.st64{fill:#BA2626;}
	.st65{fill:#753C97;}
	.st66{fill:#4D2966;}
	.st67{fill:#D9E028;}
	.st68{fill:#A3A537;}
	.st69{fill:#C5C62F;}
	.st70{fill:#B69830;}
	.st71{fill:#DDA82F;}
	.st72{fill:#D29B3C;}
	.st73{fill:#CB922B;}
	.st74{fill:#963D97;}
	.st75{fill:#833677;}
	.st76{fill:#973D8F;}
	.st77{fill:#83367E;}
	.st78{fill:#14475D;}
	.st79{fill:#06ABCD;}
	.st80{fill:#D0CECF;}
	.st81{fill:#D8D8D8;}
	.st82{opacity:0.4;}
	.st83{fill:#ACA99F;}
	.st84{fill:#367D93;}
	.st85{fill:#EEEAE1;}
	.st86{fill:#45ABCC;}
	.st87{fill:url(#SVGID_1_);}
	.st88{fill:url(#SVGID_2_);}
	.st89{fill:#789DA9;}
	.st90{fill:url(#SVGID_3_);}
	.st91{fill:url(#SVGID_4_);}
	.st92{fill:#63BBCC;}
	.st93{fill:#2D7482;}
	.st94{fill:#126C5F;}
	.st95{fill:#158372;}
	.st96{fill:#1A9684;}
	.st97{fill:#39B54A;}
</style>
<g>
	<polygon class="st74" points="200.7,189.1 102.5,132.4 102.5,1.4 200.7,58.1 	"/>
	<polygon class="st66" points="200.7,189.1 102.5,245.9 4.2,189.1 102.5,132.4 	"/>
	<path class="st75" d="M4,58.1v131l98-56.7V1.4L4,58.1z M86.6,31.8L86.6,31.8c-0.5,5.1-4.6,11.3-9.1,13.9L32.9,71.6
		c-4.5,2.6-7.7,0.6-7.2-4.5v0c0.5-5.1,4.6-11.3,9.1-13.9l44.7-25.8C83.9,24.7,87.2,26.7,86.6,31.8z"/>
	<g>
		<g>
			<polygon class="st62" points="121.7,45.2 102.5,56.3 83.3,45.2 102.5,34.1 			"/>
			<polygon class="st63" points="102.5,81.8 83.3,70.8 83.3,45.2 102.5,56.3 			"/>
			<polygon class="st64" points="121.7,70.8 102.5,81.8 102.5,56.3 121.7,45.2 			"/>
		</g>
		<g>
			<path class="st8" d="M104.2,52.1l-0.8-0.5c-0.9-0.5-1.4-1.3-1-1.9l1.4-3.7l5.9,2.3l-3.6,3.8C105.9,52.5,104.9,52.5,104.2,52.1z"
				/>
			<path class="st8" d="M89.4,43.5l0.4,0.2c0.9,0.5,2.3,0.8,3.3,0.6l6.9-0.6l-4-3.4l-6.6,2.1C88.8,42.6,88.8,43.2,89.4,43.5z"/>
			<path class="st8" d="M112.2,43.7c-0.5-0.3-1.2-0.5-1.9-0.6l-5.3-3c-0.1-0.4-0.5-0.8-1-1.1c-1.7-1-4.7-0.9-6.7,0.3
				c-2,1.1-2.2,2.9-0.5,3.9c0.8,0.4,1.8,0.7,2.9,0.7l4.2,2.4c0,0.6,0.4,1.2,1.2,1.7c1.7,1,4.7,0.9,6.7-0.3
				C113.7,46.4,113.9,44.7,112.2,43.7z M101.4,41.6l-0.9-0.5l-1.2,0.7l-0.8-0.4l1.2-0.7l-1-0.6l0.9-0.5l1,0.6l1-0.6l0.8,0.4l-1,0.6
				l0.9,0.5L101.4,41.6z M107.3,45.2c-0.3-0.2-0.3-0.5,0.1-0.7c0.3-0.2,0.9-0.2,1.2,0c0.3,0.2,0.3,0.5-0.1,0.7
				C108.1,45.4,107.6,45.4,107.3,45.2z M107.1,46.9c-0.3-0.2-0.3-0.5,0.1-0.7c0.3-0.2,0.9-0.2,1.2,0s0.3,0.5-0.1,0.7
				C107.9,47.1,107.4,47.1,107.1,46.9z M110.2,45.1c-0.3-0.2-0.3-0.5,0.1-0.7c0.3-0.2,0.9-0.2,1.2,0c0.3,0.2,0.3,0.5-0.1,0.7
				C111,45.3,110.5,45.3,110.2,45.1z M110,46.8c-0.3-0.2-0.3-0.5,0.1-0.7c0.3-0.2,0.9-0.2,1.2,0c0.3,0.2,0.3,0.5-0.1,0.7
				C110.8,46.9,110.3,47,110,46.8z"/>
		</g>
	</g>
	<g>
		<g>
			<polygon class="st1" points="141.3,56.2 122.1,66.8 102.9,56.2 122.1,45.5 			"/>
			<polygon class="st56" points="122.1,91.4 102.9,80.7 102.9,56.2 122.1,66.8 			"/>
			<polygon class="st57" points="141.3,80.7 122.1,91.4 122.1,66.8 141.3,56.2 			"/>
		</g>
		<path class="st58" d="M131.3,52c-4.3-2.4-10.9-2.5-14.8-0.4c-2.1,1.2-3,2.8-2.7,4.5c0,0-1.3,0.9-5.1,0.7c0,0,1.5,1.8,6.6,1.7
			c0.5,0.5,1.1,1,1.9,1.4c4.3,2.4,10.9,2.5,14.8,0.4C135.9,58,135.5,54.4,131.3,52z"/>
	</g>
	<g>
		<g>
			<polygon class="st59" points="160.5,67.1 141.3,78.1 122.1,67.1 141.3,56 			"/>
			<polygon class="st60" points="141.3,103.7 122.1,92.7 122.1,67.1 141.3,78.1 			"/>
			<polygon class="st61" points="160.5,92.7 141.3,103.7 141.3,78.1 160.5,67.1 			"/>
		</g>
		<g>
			<path class="st8" d="M151.3,66.1l-4.6,0.7c0,1-0.7,2.1-2.1,2.9c-0.2,0.1-0.4,0.2-0.5,0.3l2.2,2.1c0.5-0.2,0.9-0.4,1.3-0.7
				C150.2,69.9,151.5,67.9,151.3,66.1z"/>
			<g>
				<path class="st8" d="M136.3,70.2c-0.1-0.1-0.2-0.1-0.4-0.2c-2.2-1.3-1.9-3.5,0.6-5c2.6-1.5,6.4-1.6,8.6-0.4
					c0.7,0.4,1.1,0.9,1.3,1.4l4.6-0.7c-0.3-1-1.1-2-2.4-2.7c-3.9-2.2-10.7-2-15.1,0.6c-4.5,2.6-5,6.5-1.1,8.7
					c0.3,0.2,0.7,0.4,1.1,0.5L136.3,70.2z"/>
				<path class="st8" d="M142.9,70.4c-1.9,0.6-4,0.7-5.7,0.2l-2.7,2.3c3.1,1,7.2,0.8,10.7-0.4L142.9,70.4z"/>
			</g>
		</g>
	</g>
	<g>
		<g>
			<polygon class="st59" points="102.7,56.3 83.5,67.4 64.3,56.3 83.5,45.2 			"/>
			<polygon class="st60" points="83.5,93 64.3,81.9 64.3,56.3 83.5,67.4 			"/>
			<polygon class="st61" points="102.7,81.9 83.5,93 83.5,67.4 102.7,56.3 			"/>
		</g>
		<g>
			<path class="st8" d="M93.4,55.3L88.9,56c0,1-0.7,2.1-2.1,2.9c-0.2,0.1-0.4,0.2-0.5,0.3l2.2,2.1c0.5-0.2,0.9-0.4,1.3-0.7
				C92.4,59.1,93.6,57.2,93.4,55.3z"/>
			<g>
				<path class="st8" d="M78.5,59.5c-0.1-0.1-0.2-0.1-0.4-0.2c-2.2-1.3-1.9-3.5,0.6-5c2.6-1.5,6.4-1.6,8.6-0.4
					c0.7,0.4,1.1,0.9,1.3,1.4l4.6-0.7c-0.3-1-1.1-2-2.4-2.7c-3.9-2.2-10.7-2-15.1,0.6c-4.5,2.6-5,6.5-1.1,8.7
					c0.3,0.2,0.7,0.4,1.1,0.5L78.5,59.5z"/>
				<path class="st8" d="M85.1,59.6c-1.9,0.6-4,0.7-5.7,0.2l-2.7,2.3c3.1,1,7.2,0.8,10.7-0.4L85.1,59.6z"/>
			</g>
		</g>
	</g>
	<g>
		<g>
			<polygon class="st67" points="180.3,78.4 161.1,89.5 142,78.4 161.1,67.4 			"/>
			<polygon class="st68" points="161.1,115.1 142,104 142,78.4 161.1,89.5 			"/>
			<polygon class="st69" points="180.3,104 161.1,115.1 161.1,89.5 180.3,78.4 			"/>
		</g>
		<g>
			<path class="st8" d="M169,78.2c-2.5,1.4-6.3,1.6-8.4,0.3c-2.2-1.2-1.9-3.4,0.6-4.9c2.5-1.4,6.3-1.6,8.4-0.3
				C171.8,74.6,171.5,76.8,169,78.2z"/>
			<path class="st8" d="M162.3,85.1c1.8-2.3,1.2-4.8-1.6-6.5c-2.9-1.7-7.2-2-11.2-0.9L162.3,85.1z"/>
		</g>
	</g>
	<g>
		<g>
			<polygon class="st52" points="199.5,91.1 180.3,102.2 161.1,91.1 180.3,80 			"/>
			<polygon class="st53" points="180.3,127.7 161.1,116.7 161.1,91.1 180.3,102.2 			"/>
			<polygon class="st54" points="199.5,116.7 180.3,127.7 180.3,102.2 199.5,91.1 			"/>
		</g>
		<g>
			<polygon class="st37" points="182.7,97.2 169.2,89.5 178.2,84.2 191.7,92 			"/>
			<path class="st55" d="M191.5,91.9l-9-0.4c-1.8-0.1-3.1-0.9-3.3-1.9l-0.8-5.2l-0.2-0.1l-0.2,0.1l0.8,5.3c0.1,0.6,0.5,1.1,1.1,1.4
				s1.5,0.6,2.5,0.6l9.1,0.5l0.2-0.1L191.5,91.9z"/>
			<polygon class="st55" points="169.4,89.5 179,89.6 179.1,89.4 169.4,89.2 169.2,89.3 169.2,89.3 			"/>
			<polygon class="st55" points="182.9,97.1 182.7,91.5 182.3,91.6 182.5,97.1 182.7,97.2 182.7,97.2 			"/>
		</g>
	</g>
	<g>
		<g>
			<polygon class="st52" points="122.3,68.1 103.1,79.2 83.9,68.1 103.1,57 			"/>
			<polygon class="st53" points="103.1,104.8 83.9,93.7 83.9,68.1 103.1,79.2 			"/>
			<polygon class="st54" points="122.3,93.7 103.1,104.8 103.1,79.2 122.3,68.1 			"/>
		</g>
		<g>
			<polygon class="st37" points="105.5,74.3 92,66.5 101,61.2 114.5,69 			"/>
			<path class="st55" d="M114.3,68.9l-9-0.4c-1.8-0.1-3.1-0.9-3.3-1.9l-0.8-5.2l-0.2-0.1l-0.2,0.1l0.8,5.3c0.1,0.6,0.5,1.1,1.1,1.4
				c0.6,0.4,1.5,0.6,2.5,0.6l9.1,0.5l0.2-0.1L114.3,68.9z"/>
			<polygon class="st55" points="92.2,66.5 101.8,66.7 101.8,66.4 92.2,66.2 92,66.3 92,66.3 			"/>
			<polygon class="st55" points="105.7,74.1 105.5,68.6 105.1,68.6 105.3,74.1 105.5,74.3 105.5,74.3 			"/>
		</g>
	</g>
	<g>
		<g>
			<polygon class="st62" points="141.3,78.3 122.1,89.4 102.9,78.3 122.1,67.2 			"/>
			<polygon class="st63" points="122.1,114.9 102.9,103.9 102.9,78.3 122.1,89.4 			"/>
			<polygon class="st64" points="141.3,103.9 122.1,114.9 122.1,89.4 141.3,78.3 			"/>
		</g>
		<g>
			<path class="st8" d="M123.8,85.2l-0.8-0.5c-0.9-0.5-1.4-1.3-1-1.9l1.4-3.7l5.9,2.3l-3.6,3.8C125.5,85.6,124.5,85.6,123.8,85.2z"
				/>
			<path class="st8" d="M109,76.6l0.4,0.2c0.9,0.5,2.3,0.8,3.3,0.6l6.9-0.6l-4-3.4l-6.6,2.1C108.4,75.7,108.4,76.3,109,76.6z"/>
			<path class="st8" d="M131.8,76.8c-0.5-0.3-1.2-0.5-1.9-0.6l-5.3-3c-0.1-0.4-0.5-0.8-1-1.1c-1.7-1-4.7-0.9-6.7,0.3
				c-2,1.1-2.2,2.9-0.5,3.9c0.8,0.4,1.8,0.7,2.9,0.7l4.2,2.4c0,0.6,0.4,1.2,1.2,1.7c1.7,1,4.7,0.9,6.7-0.3
				C133.3,79.5,133.5,77.8,131.8,76.8z M121,74.7l-0.9-0.5l-1.2,0.7l-0.8-0.4l1.2-0.7l-1-0.6l0.9-0.5l1,0.6l1-0.6l0.8,0.4l-1,0.6
				l0.9,0.5L121,74.7z M126.9,78.4c-0.3-0.2-0.3-0.5,0.1-0.7c0.3-0.2,0.9-0.2,1.2,0c0.3,0.2,0.3,0.5-0.1,0.7
				C127.7,78.5,127.2,78.5,126.9,78.4z M126.7,80c-0.3-0.2-0.3-0.5,0.1-0.7c0.3-0.2,0.9-0.2,1.2,0c0.3,0.2,0.3,0.5-0.1,0.7
				C127.5,80.2,127,80.2,126.7,80z M129.8,78.2c-0.3-0.2-0.3-0.5,0.1-0.7c0.3-0.2,0.9-0.2,1.2,0c0.3,0.2,0.3,0.5-0.1,0.7
				C130.6,78.4,130.1,78.4,129.8,78.2z M129.6,79.9c-0.3-0.2-0.3-0.5,0.1-0.7c0.3-0.2,0.9-0.2,1.2,0c0.3,0.2,0.3,0.5-0.1,0.7
				C130.4,80,129.9,80.1,129.6,79.9z"/>
		</g>
	</g>
	<g>
		<g>
			<polygon class="st1" points="159.6,89.9 140.4,100.6 121.2,89.9 140.4,79.3 			"/>
			<polygon class="st56" points="140.4,125.1 121.2,114.5 121.2,89.9 140.4,100.6 			"/>
			<polygon class="st57" points="159.6,114.5 140.4,125.1 140.4,100.6 159.6,89.9 			"/>
		</g>
		<path class="st58" d="M149.6,85.8c-4.3-2.4-10.9-2.5-14.8-0.4c-2.1,1.2-3,2.8-2.7,4.5c0,0-1.3,0.9-5.1,0.7c0,0,1.5,1.8,6.6,1.7
			c0.5,0.5,1.1,1,1.9,1.4c4.3,2.4,10.9,2.5,14.8,0.4C154.2,91.8,153.9,88.1,149.6,85.8z"/>
	</g>
	<g>
		<g>
			<polygon class="st1" points="83.4,66.9 64.3,77.6 45.1,66.9 64.3,56.3 			"/>
			<polygon class="st56" points="64.3,102.1 45.1,91.5 45.1,66.9 64.3,77.6 			"/>
			<polygon class="st57" points="83.4,91.5 64.3,102.1 64.3,77.6 83.4,66.9 			"/>
		</g>
		<path class="st58" d="M73.5,62.8c-4.3-2.4-10.9-2.5-14.8-0.4c-2.1,1.2-3,2.8-2.7,4.5c0,0-1.3,0.9-5.1,0.7c0,0,1.5,1.8,6.6,1.7
			c0.5,0.5,1.1,1,1.9,1.4c4.3,2.4,10.9,2.5,14.8,0.4C78,68.8,77.7,65.1,73.5,62.8z"/>
	</g>
	<g>
		<g>
			<polygon class="st67" points="178.2,99.3 159,110.3 139.8,99.3 159,88.2 			"/>
			<polygon class="st68" points="159,135.9 139.8,124.8 139.8,99.3 159,110.3 			"/>
			<polygon class="st69" points="178.2,124.8 159,135.9 159,110.3 178.2,99.3 			"/>
		</g>
		<g>
			<path class="st8" d="M166.9,99.1c-2.5,1.4-6.3,1.6-8.4,0.3c-2.2-1.2-1.9-3.4,0.6-4.9s6.3-1.6,8.4-0.3
				C169.6,95.5,169.4,97.6,166.9,99.1z"/>
			<path class="st8" d="M160.1,105.9c1.8-2.3,1.2-4.8-1.6-6.5c-2.9-1.7-7.2-2-11.2-0.9L160.1,105.9z"/>
		</g>
	</g>
	<g>
		<g>
			<polygon class="st67" points="102.8,78.1 83.6,89.1 64.4,78.1 83.6,67 			"/>
			<polygon class="st68" points="83.6,114.7 64.4,103.6 64.4,78.1 83.6,89.1 			"/>
			<polygon class="st69" points="102.8,103.6 83.6,114.7 83.6,89.1 102.8,78.1 			"/>
		</g>
		<g>
			<path class="st8" d="M91.4,77.9c-2.5,1.4-6.3,1.6-8.4,0.3c-2.2-1.2-1.9-3.4,0.6-4.9c2.5-1.4,6.3-1.6,8.4-0.3
				C94.2,74.3,93.9,76.4,91.4,77.9z"/>
			<path class="st8" d="M84.7,84.7c1.8-2.3,1.2-4.8-1.6-6.5c-2.9-1.7-7.2-2-11.2-0.9L84.7,84.7z"/>
		</g>
	</g>
	<g>
		<g>
			<polygon class="st67" points="64.3,78.1 45.1,89.1 26,78.1 45.1,67 			"/>
			<polygon class="st68" points="45.1,114.7 26,103.6 26,78.1 45.1,89.1 			"/>
			<polygon class="st69" points="64.3,103.6 45.1,114.7 45.1,89.1 64.3,78.1 			"/>
		</g>
		<g>
			<path class="st8" d="M53,77.9c-2.5,1.4-6.3,1.6-8.4,0.3c-2.2-1.2-1.9-3.4,0.6-4.9c2.5-1.4,6.3-1.6,8.4-0.3
				C55.8,74.3,55.5,76.4,53,77.9z"/>
			<path class="st8" d="M46.3,84.7c1.8-2.3,1.2-4.8-1.6-6.5c-2.9-1.7-7.2-2-11.2-0.9L46.3,84.7z"/>
		</g>
	</g>
	<g>
		<g>
			<polygon class="st59" points="122.4,89.3 103.2,100.4 84,89.3 103.2,78.3 			"/>
			<polygon class="st60" points="103.2,126 84,114.9 84,89.3 103.2,100.4 			"/>
			<polygon class="st61" points="122.4,114.9 103.2,126 103.2,100.4 122.4,89.3 			"/>
		</g>
		<g>
			<path class="st8" d="M113.2,88.4l-4.6,0.7c0,1-0.7,2.1-2.1,2.9c-0.2,0.1-0.4,0.2-0.5,0.3l2.2,2.1c0.5-0.2,0.9-0.4,1.3-0.7
				C112.1,92.2,113.4,90.2,113.2,88.4z"/>
			<g>
				<path class="st8" d="M98.2,92.5c-0.1-0.1-0.2-0.1-0.4-0.2c-2.2-1.3-1.9-3.5,0.6-5c2.6-1.5,6.4-1.6,8.6-0.4
					c0.7,0.4,1.1,0.9,1.3,1.4l4.6-0.7c-0.3-1-1.1-2-2.4-2.7c-3.9-2.2-10.7-2-15.1,0.6s-5,6.5-1.1,8.7c0.3,0.2,0.7,0.4,1.1,0.5
					L98.2,92.5z"/>
				<path class="st8" d="M104.9,92.7c-1.9,0.6-4,0.7-5.7,0.2l-2.7,2.3c3.1,1,7.2,0.8,10.7-0.4L104.9,92.7z"/>
			</g>
		</g>
	</g>
	<g>
		<g>
			<polygon class="st52" points="141.6,100.4 122.5,111.5 103.3,100.4 122.5,89.3 			"/>
			<polygon class="st53" points="122.5,137.1 103.3,126 103.3,100.4 122.5,111.5 			"/>
			<polygon class="st54" points="141.6,126 122.5,137.1 122.5,111.5 141.6,100.4 			"/>
		</g>
		<g>
			<polygon class="st37" points="124.9,106.6 111.4,98.8 120.4,93.6 133.9,101.4 			"/>
			<path class="st55" d="M133.7,101.2l-9-0.4c-1.8-0.1-3.1-0.9-3.3-1.9l-0.8-5.2l-0.2-0.1l-0.2,0.1l0.8,5.3c0.1,0.6,0.5,1.1,1.1,1.4
				c0.6,0.4,1.5,0.6,2.5,0.6l9.1,0.5l0.2-0.1L133.7,101.2z"/>
			<polygon class="st55" points="111.6,98.7 121.2,98.9 121.2,98.7 111.6,98.4 111.4,98.3 111.4,98.3 			"/>
			<polygon class="st55" points="125.1,106.5 124.9,100.9 124.5,100.9 124.7,106.5 124.9,106.6 124.9,106.6 			"/>
		</g>
	</g>
	<g>
		<g>
			<polygon class="st62" points="161.1,112.3 141.9,123.4 122.7,112.3 141.9,101.3 			"/>
			<polygon class="st63" points="141.9,149 122.7,137.9 122.7,112.3 141.9,123.4 			"/>
			<polygon class="st64" points="161.1,137.9 141.9,149 141.9,123.4 161.1,112.3 			"/>
		</g>
		<g>
			<path class="st8" d="M143.6,119.2l-0.8-0.5c-0.9-0.5-1.4-1.3-1-1.9l1.4-3.7l5.9,2.3l-3.6,3.8
				C145.3,119.6,144.3,119.6,143.6,119.2z"/>
			<path class="st8" d="M128.8,110.7l0.4,0.2c0.9,0.5,2.3,0.8,3.3,0.6l6.9-0.6l-4-3.4l-6.6,2.1C128.2,109.7,128.1,110.3,128.8,110.7
				z"/>
			<path class="st8" d="M151.6,110.8c-0.5-0.3-1.2-0.5-1.9-0.6l-5.3-3c-0.1-0.4-0.5-0.8-1-1.1c-1.7-1-4.7-0.9-6.7,0.3
				c-2,1.1-2.2,2.9-0.5,3.9c0.8,0.4,1.8,0.7,2.9,0.7l4.2,2.4c0,0.6,0.4,1.2,1.2,1.7c1.7,1,4.7,0.9,6.7-0.3
				C153.1,113.5,153.3,111.8,151.6,110.8z M140.8,108.7l-0.9-0.5l-1.2,0.7l-0.8-0.4l1.2-0.7l-1-0.6l0.9-0.5l1,0.6l1-0.6l0.8,0.4
				l-1,0.6l0.9,0.5L140.8,108.7z M146.7,112.4c-0.3-0.2-0.3-0.5,0.1-0.7c0.3-0.2,0.9-0.2,1.2,0s0.3,0.5-0.1,0.7
				C147.5,112.5,147,112.6,146.7,112.4z M146.5,114.1c-0.3-0.2-0.3-0.5,0.1-0.7s0.9-0.2,1.2,0s0.3,0.5-0.1,0.7
				C147.3,114.2,146.8,114.2,146.5,114.1z M149.6,112.3c-0.3-0.2-0.3-0.5,0.1-0.7c0.3-0.2,0.9-0.2,1.2,0c0.3,0.2,0.3,0.5-0.1,0.7
				C150.4,112.4,149.9,112.4,149.6,112.3z M149.4,113.9c-0.3-0.2-0.3-0.5,0.1-0.7c0.3-0.2,0.9-0.2,1.2,0c0.3,0.2,0.3,0.5-0.1,0.7
				C150.2,114.1,149.7,114.1,149.4,113.9z"/>
		</g>
	</g>
	<g>
		<g>
			<polygon class="st62" points="84,89.2 64.8,100.2 45.6,89.2 64.8,78.1 			"/>
			<polygon class="st63" points="64.8,125.8 45.6,114.7 45.6,89.2 64.8,100.2 			"/>
			<polygon class="st64" points="84,114.7 64.8,125.8 64.8,100.2 84,89.2 			"/>
		</g>
		<g>
			<path class="st8" d="M66.6,96.1l-0.8-0.5c-0.9-0.5-1.4-1.3-1-1.9l1.4-3.7l5.9,2.3L68.5,96C68.2,96.4,67.2,96.5,66.6,96.1z"/>
			<path class="st8" d="M51.8,87.5l0.4,0.2c0.9,0.5,2.3,0.8,3.3,0.6l6.9-0.6l-4-3.4l-6.6,2.1C51.1,86.6,51.1,87.1,51.8,87.5z"/>
			<path class="st8" d="M74.5,87.7c-0.5-0.3-1.2-0.5-1.9-0.6l-5.3-3c-0.1-0.4-0.5-0.8-1-1.1c-1.7-1-4.7-0.9-6.7,0.3
				c-2,1.1-2.2,2.9-0.5,3.9c0.8,0.4,1.8,0.7,2.9,0.7l4.2,2.4c0,0.6,0.4,1.2,1.2,1.7c1.7,1,4.7,0.9,6.7-0.3
				C76,90.4,76.2,88.7,74.5,87.7z M63.8,85.5L62.9,85l-1.2,0.7L61,85.3l1.2-0.7l-1-0.6l0.9-0.5l1,0.6l1-0.6l0.8,0.4l-1,0.6l0.9,0.5
				L63.8,85.5z M69.7,89.2c-0.3-0.2-0.3-0.5,0.1-0.7c0.3-0.2,0.9-0.2,1.2,0c0.3,0.2,0.3,0.5-0.1,0.7C70.5,89.4,70,89.4,69.7,89.2z
				 M69.4,90.9c-0.3-0.2-0.3-0.5,0.1-0.7c0.3-0.2,0.9-0.2,1.2,0c0.3,0.2,0.3,0.5-0.1,0.7C70.3,91,69.7,91.1,69.4,90.9z M72.5,89.1
				c-0.3-0.2-0.3-0.5,0.1-0.7c0.3-0.2,0.9-0.2,1.2,0c0.3,0.2,0.3,0.5-0.1,0.7C73.4,89.3,72.8,89.3,72.5,89.1z M72.3,90.8
				c-0.3-0.2-0.3-0.5,0.1-0.7c0.3-0.2,0.9-0.2,1.2,0c0.3,0.2,0.3,0.5-0.1,0.7C73.2,90.9,72.6,90.9,72.3,90.8z"/>
		</g>
	</g>
	<g>
		<g>
			<polygon class="st1" points="103.2,100 84,110.6 64.8,100 84,89.3 			"/>
			<polygon class="st56" points="84,135.2 64.8,124.5 64.8,100 84,110.6 			"/>
			<polygon class="st57" points="103.2,124.5 84,135.2 84,110.6 103.2,100 			"/>
		</g>
		<path class="st58" d="M93.2,95.8c-4.3-2.4-10.9-2.5-14.8-0.4c-2.1,1.2-3,2.8-2.7,4.5c0,0-1.3,0.9-5.1,0.7c0,0,1.5,1.8,6.6,1.7
			c0.5,0.5,1.1,1,1.9,1.4c4.3,2.4,10.9,2.5,14.8,0.4C97.8,101.8,97.5,98.2,93.2,95.8z"/>
	</g>
	<g>
		<g>
			<polygon class="st59" points="122.4,111.2 103.2,122.3 84,111.2 103.2,100.2 			"/>
			<polygon class="st60" points="103.2,147.9 84,136.8 84,111.2 103.2,122.3 			"/>
			<polygon class="st61" points="122.4,136.8 103.2,147.9 103.2,122.3 122.4,111.2 			"/>
		</g>
		<g>
			<path class="st8" d="M113.2,110.3l-4.6,0.7c0,1-0.7,2.1-2.1,2.9c-0.2,0.1-0.4,0.2-0.5,0.3l2.2,2.1c0.5-0.2,0.9-0.4,1.3-0.7
				C112.1,114.1,113.4,112.1,113.2,110.3z"/>
			<g>
				<path class="st8" d="M98.2,114.4c-0.1-0.1-0.2-0.1-0.4-0.2c-2.2-1.3-1.9-3.5,0.6-5c2.6-1.5,6.4-1.6,8.6-0.4
					c0.7,0.4,1.1,0.9,1.3,1.4l4.6-0.7c-0.3-1-1.1-2-2.4-2.7c-3.9-2.2-10.7-2-15.1,0.6c-4.5,2.6-5,6.5-1.1,8.7
					c0.3,0.2,0.7,0.4,1.1,0.5L98.2,114.4z"/>
				<path class="st8" d="M104.9,114.6c-1.9,0.6-4,0.7-5.7,0.2l-2.7,2.3c3.1,1,7.2,0.8,10.7-0.4L104.9,114.6z"/>
			</g>
		</g>
	</g>
	<g>
		<g>
			<polygon class="st52" points="141.6,122.3 122.5,133.4 103.3,122.3 122.5,111.3 			"/>
			<polygon class="st53" points="122.5,159 103.3,147.9 103.3,122.3 122.5,133.4 			"/>
			<polygon class="st54" points="141.6,147.9 122.5,159 122.5,133.4 141.6,122.3 			"/>
		</g>
		<g>
			<polygon class="st37" points="124.9,128.5 111.4,120.7 120.4,115.5 133.9,123.3 			"/>
			<path class="st55" d="M133.7,123.1l-9-0.4c-1.8-0.1-3.1-0.9-3.3-1.9l-0.8-5.2l-0.2-0.1l-0.2,0.1l0.8,5.3c0.1,0.6,0.5,1.1,1.1,1.4
				c0.6,0.4,1.5,0.6,2.5,0.6l9.1,0.5l0.2-0.1L133.7,123.1z"/>
			<polygon class="st55" points="111.6,120.6 121.2,120.8 121.2,120.6 111.6,120.3 111.4,120.3 111.4,120.3 			"/>
			<polygon class="st55" points="125.1,128.4 124.9,122.8 124.5,122.8 124.7,128.4 124.9,128.5 124.9,128.5 			"/>
		</g>
	</g>
	<polygon class="st76" points="102.5,245.7 4.2,189 4.2,58 102.5,114.7 	"/>
	<path class="st77" d="M102,114.7v131l99-56.7V58L102,114.7z M184.9,88.4L184.9,88.4c-0.5,5.1-4.6,11.3-9.1,13.9l-44.7,25.8
		c-4.5,2.6-7.7,0.6-7.2-4.5v0c0.5-5.1,4.6-11.3,9.1-13.9l44.7-25.8C182.2,81.3,185.4,83.3,184.9,88.4z"/>
</g>
</svg>
