<?xml version="1.0" encoding="utf-8"?>
<!-- Generator: Adobe Illustrator 20.0.0, SVG Export Plug-In . SVG Version: 6.00 Build 0)  -->
<!DOCTYPE svg PUBLIC "-//W3C//DTD SVG 1.1//EN" "http://www.w3.org/Graphics/SVG/1.1/DTD/svg11.dtd">
<svg version="1.1" id="Layer_1" xmlns="http://www.w3.org/2000/svg" xmlns:xlink="http://www.w3.org/1999/xlink" x="0px" y="0px"
	 viewBox="0 0 182.9 227.4" style="enable-background:new 0 0 182.9 227.4;" xml:space="preserve">
<style type="text/css">
	.st0{fill:#091410;}
	.st1{fill:#1BA897;}
	.st2{fill:#FBEE2D;}
	.st3{fill:#D5C529;}
	.st4{fill:#C4B22F;}
	.st5{fill:#603240;}
	.st6{fill:#F1F2F2;}
	.st7{fill:#A52E23;}
	.st8{fill:#FFFFFF;}
	.st9{fill:#FDFEFE;}
	.st10{fill:#939598;}
	.st11{fill:#808285;}
	.st12{fill:#BCBEC0;}
	.st13{fill:#E6E7E8;}
	.st14{fill:#414042;}
	.st15{fill:#D1D3D4;}
	.st16{fill:#491B0D;}
	.st17{fill:#D84426;}
	.st18{fill:#93AC4C;}
	.st19{fill:#126F63;}
	.st20{fill:#E0C93A;}
	.st21{fill:#EF4423;}
	.st22{fill:#A09F9F;}
	.st23{fill:#AD4967;}
	.st24{fill:#85C441;}
	.st25{fill:#C53227;}
	.st26{fill:#7B7B7B;}
	.st27{fill:#B0B0B0;}
	.st28{fill:#4C4C4D;}
	.st29{fill:#8E8E8E;}
	.st30{fill:#BCBCBC;}
	.st31{fill:#212121;}
	.st32{fill:#DDDDDD;}
	.st33{fill:#B7B7B7;}
	.st34{fill:#F04A4A;}
	.st35{fill:#FDB523;}
	.st36{fill:#4AB749;}
	.st37{fill:#CCCCCB;}
	.st38{fill:#DBD622;}
	.st39{fill:#58C099;}
	.st40{fill:#4062AE;}
	.st41{fill:#D9D327;}
	.st42{fill:#4DA547;}
	.st43{fill:#49BB83;}
	.st44{fill:#6B50A1;}
	.st45{fill:#CD862A;}
	.st46{fill:#483E98;}
	.st47{fill:#A65926;}
	.st48{fill:#78C143;}
	.st49{fill:#32C0D1;}
	.st50{fill:#636464;}
	.st51{fill:#643584;}
	.st52{fill:#DC8727;}
	.st53{fill:#B56C29;}
	.st54{fill:#CC7A29;}
	.st55{fill:#A3A1A1;}
	.st56{fill:#167F70;}
	.st57{fill:#1AAF9A;}
	.st58{fill:#DCDBDB;}
	.st59{fill:#6BBE45;}
	.st60{fill:#43AF49;}
	.st61{fill:#62A844;}
	.st62{fill:#CE2E27;}
	.st63{fill:#8F1D1D;}
	.st64{fill:#BA2626;}
	.st65{fill:#753C97;}
	.st66{fill:#4D2966;}
	.st67{fill:#D9E028;}
	.st68{fill:#A3A537;}
	.st69{fill:#C5C62F;}
	.st70{fill:#B69830;}
	.st71{fill:#DDA82F;}
	.st72{fill:#D29B3C;}
	.st73{fill:#CB922B;}
	.st74{fill:#963D97;}
	.st75{fill:#833677;}
	.st76{fill:#973D8F;}
	.st77{fill:#83367E;}
	.st78{fill:#14475D;}
	.st79{fill:#06ABCD;}
	.st80{fill:#D0CECF;}
	.st81{fill:#D8D8D8;}
	.st82{opacity:0.4;}
	.st83{fill:#ACA99F;}
	.st84{fill:#367D93;}
	.st85{fill:#EEEAE1;}
	.st86{fill:#45ABCC;}
	.st87{fill:url(#SVGID_1_);}
	.st88{fill:url(#SVGID_2_);}
	.st89{fill:#789DA9;}
	.st90{fill:url(#SVGID_3_);}
	.st91{fill:url(#SVGID_4_);}
	.st92{fill:#63BBCC;}
	.st93{fill:#2D7482;}
	.st94{fill:#126C5F;}
	.st95{fill:#158372;}
	.st96{fill:#1A9684;}
	.st97{fill:#39B54A;}
</style>
<g>
	<polygon class="st70" points="182,174.1 91.5,121.8 91.5,1 182,53.3 	"/>
	<polygon class="st66" points="182,174.1 91.5,226.4 0.9,174.1 91.5,121.8 	"/>
	<path class="st71" d="M0.9,53.3v120.8l90-52.3V1L0.9,53.3z M76.9,29.1L76.9,29.1c-0.5,4.7-4.2,10.5-8.4,12.8L27.3,65.7
		c-4.1,2.4-7.1,0.5-6.6-4.2v0c0.5-4.7,4.2-10.5,8.4-12.8l41.2-23.8C74.4,22.5,77.3,24.4,76.9,29.1z"/>
	<g>
		<g>
			<polygon class="st62" points="109.2,41.4 91.5,51.6 73.8,41.4 91.5,31.2 			"/>
			<polygon class="st63" points="91.5,75.2 73.8,65 73.8,41.4 91.5,51.6 			"/>
			<polygon class="st64" points="109.2,65 91.5,75.2 91.5,51.6 109.2,41.4 			"/>
		</g>
		<g>
			<path class="st8" d="M93.1,47.7l-0.7-0.4c-0.9-0.5-1.2-1.2-1-1.8l1.3-3.4l5.5,2.1l-3.3,3.5C94.6,48.1,93.7,48.1,93.1,47.7z"/>
			<path class="st8" d="M79.4,39.9l0.4,0.2c0.9,0.5,2.1,0.7,3.1,0.5l6.3-0.6l-3.7-3.2l-6,1.9C78.8,39,78.8,39.5,79.4,39.9z"/>
			<path class="st8" d="M100.4,40c-0.5-0.3-1.1-0.5-1.8-0.6l-4.9-2.8c-0.1-0.4-0.5-0.7-1-1c-1.6-0.9-4.3-0.8-6.2,0.3
				c-1.8,1.1-2,2.6-0.4,3.6c0.7,0.4,1.6,0.6,2.6,0.6l3.9,2.2c0,0.6,0.4,1.1,1.1,1.5c1.6,0.9,4.3,0.8,6.2-0.3
				C101.8,42.5,102,40.9,100.4,40z M90.5,38l-0.8-0.5l-1.1,0.6l-0.7-0.4l1.1-0.6L88,36.6l0.8-0.5l0.9,0.5l0.9-0.5l0.7,0.4l-0.9,0.5
				l0.8,0.5L90.5,38z M95.9,41.4c-0.3-0.2-0.2-0.4,0.1-0.6c0.3-0.2,0.8-0.2,1.1,0s0.2,0.4-0.1,0.6C96.7,41.6,96.2,41.6,95.9,41.4z
				 M95.7,43c-0.3-0.2-0.2-0.4,0.1-0.6s0.8-0.2,1.1,0c0.3,0.2,0.2,0.4-0.1,0.6C96.5,43.1,96,43.1,95.7,43z M98.6,41.3
				c-0.3-0.2-0.2-0.4,0.1-0.6c0.3-0.2,0.8-0.2,1.1,0c0.3,0.2,0.2,0.4-0.1,0.6C99.3,41.5,98.8,41.5,98.6,41.3z M98.4,42.9
				c-0.3-0.2-0.2-0.4,0.1-0.6c0.3-0.2,0.8-0.2,1.1,0c0.3,0.2,0.2,0.4-0.1,0.6C99.1,43,98.7,43,98.4,42.9z"/>
		</g>
	</g>
	<g>
		<g>
			<polygon class="st1" points="127.2,51.5 109.5,61.3 91.9,51.5 109.5,41.7 			"/>
			<polygon class="st56" points="109.5,83.9 91.9,74.1 91.9,51.5 109.5,61.3 			"/>
			<polygon class="st57" points="127.2,74.1 109.5,83.9 109.5,61.3 127.2,51.5 			"/>
		</g>
		<path class="st58" d="M118,47.6c-3.9-2.2-10-2.3-13.6-0.3c-2,1.1-2.8,2.6-2.4,4.1c0,0-1.2,0.9-4.7,0.6c0,0,1.4,1.7,6.1,1.6
			c0.5,0.5,1.1,0.9,1.8,1.3c3.9,2.2,10,2.3,13.6,0.3S121.9,49.8,118,47.6z"/>
	</g>
	<g>
		<g>
			<polygon class="st59" points="144.9,61.5 127.2,71.8 109.6,61.5 127.2,51.3 			"/>
			<polygon class="st60" points="127.2,95.3 109.6,85.1 109.6,61.5 127.2,71.8 			"/>
			<polygon class="st61" points="144.9,85.1 127.2,95.3 127.2,71.8 144.9,61.5 			"/>
		</g>
		<g>
			<path class="st8" d="M136.4,60.7l-4.2,0.6c0,0.9-0.6,1.9-1.9,2.7c-0.2,0.1-0.3,0.2-0.5,0.3l2,2c0.4-0.2,0.8-0.4,1.2-0.6
				C135.5,64.2,136.6,62.3,136.4,60.7z"/>
			<g>
				<path class="st8" d="M122.6,64.5c-0.1-0.1-0.2-0.1-0.3-0.2c-2-1.2-1.8-3.2,0.6-4.6c2.4-1.4,5.9-1.5,8-0.3c0.6,0.4,1,0.8,1.2,1.3
					l4.2-0.6c-0.3-0.9-1-1.8-2.3-2.5c-3.6-2.1-9.8-1.8-14,0.6c-4.1,2.4-4.6,6-1,8.1c0.3,0.2,0.7,0.3,1,0.5L122.6,64.5z"/>
				<path class="st8" d="M128.8,64.6c-1.7,0.6-3.7,0.6-5.3,0.2L121,67c2.9,0.9,6.7,0.7,9.8-0.4L128.8,64.6z"/>
			</g>
		</g>
	</g>
	<g>
		<g>
			<polygon class="st59" points="91.6,51.6 73.9,61.8 56.3,51.6 73.9,41.4 			"/>
			<polygon class="st60" points="73.9,85.4 56.3,75.2 56.3,51.6 73.9,61.8 			"/>
			<polygon class="st61" points="91.6,75.2 73.9,85.4 73.9,61.8 91.6,51.6 			"/>
		</g>
		<g>
			<path class="st8" d="M83.1,50.7l-4.2,0.6c0,0.9-0.6,1.9-1.9,2.7c-0.2,0.1-0.3,0.2-0.5,0.3l2,2c0.4-0.2,0.8-0.4,1.2-0.6
				C82.2,54.2,83.3,52.4,83.1,50.7z"/>
			<g>
				<path class="st8" d="M69.3,54.5c-0.1-0.1-0.2-0.1-0.3-0.2c-2-1.2-1.8-3.2,0.6-4.6s5.9-1.5,8-0.3c0.6,0.4,1,0.8,1.2,1.3l4.2-0.6
					c-0.3-0.9-1-1.8-2.3-2.5c-3.6-2.1-9.8-1.8-14,0.6s-4.6,6-1,8.1c0.3,0.2,0.7,0.3,1,0.5L69.3,54.5z"/>
				<path class="st8" d="M75.5,54.7c-1.7,0.6-3.7,0.6-5.3,0.2L67.7,57c2.9,0.9,6.7,0.7,9.8-0.4L75.5,54.7z"/>
			</g>
		</g>
	</g>
	<g>
		<g>
			<polygon class="st67" points="163.2,72 145.5,82.2 127.9,72 145.5,61.8 			"/>
			<polygon class="st68" points="145.5,105.8 127.9,95.6 127.9,72 145.5,82.2 			"/>
			<polygon class="st69" points="163.2,95.6 145.5,105.8 145.5,82.2 163.2,72 			"/>
		</g>
		<g>
			<path class="st8" d="M152.8,71.8c-2.3,1.3-5.8,1.5-7.8,0.3c-2-1.1-1.7-3.2,0.6-4.5c2.3-1.3,5.8-1.5,7.8-0.3
				C155.4,68.5,155.1,70.5,152.8,71.8z"/>
			<path class="st8" d="M146.6,78.1c1.6-2.1,1.1-4.5-1.5-6c-2.6-1.5-6.7-1.8-10.4-0.9L146.6,78.1z"/>
		</g>
	</g>
	<g>
		<g>
			<polygon class="st52" points="180.9,83.7 163.2,93.9 145.5,83.7 163.2,73.5 			"/>
			<polygon class="st53" points="163.2,117.5 145.5,107.3 145.5,83.7 163.2,93.9 			"/>
			<polygon class="st54" points="180.9,107.3 163.2,117.5 163.2,93.9 180.9,83.7 			"/>
		</g>
		<g>
			<polygon class="st37" points="165.4,89.4 153,82.2 161.3,77.4 173.7,84.5 			"/>
			<path class="st55" d="M173.5,84.4l-8.3-0.4c-1.7-0.1-2.9-0.8-3-1.8l-0.7-4.8l-0.2-0.1l-0.2,0.1l0.7,4.8c0.1,0.5,0.5,1,1,1.3
				c0.6,0.3,1.4,0.6,2.3,0.6l8.4,0.4l0.2-0.1L173.5,84.4z"/>
			<polygon class="st55" points="153.2,82.4 162,82.5 162.1,82.2 153.2,82.2 153,82.5 153,82.5 			"/>
			<polygon class="st55" points="165.6,89.2 165.4,84.1 165,84.1 165.2,89.2 165.4,89.4 165.4,89.4 			"/>
		</g>
	</g>
	<g>
		<g>
			<polygon class="st52" points="109.7,62.5 92,72.7 74.3,62.5 92,52.3 			"/>
			<polygon class="st53" points="92,96.3 74.3,86.1 74.3,62.5 92,72.7 			"/>
			<polygon class="st54" points="109.7,86.1 92,96.3 92,72.7 109.7,62.5 			"/>
		</g>
		<g>
			<polygon class="st37" points="94.2,68.2 81.8,61 90.1,56.2 102.6,63.4 			"/>
			<path class="st55" d="M102.3,63.2l-8.3-0.4c-1.7-0.1-2.9-0.8-3-1.8l-0.7-4.8l-0.2-0.1l-0.2,0.1l0.7,4.8c0.1,0.5,0.5,1,1,1.3
				c0.6,0.3,1.4,0.6,2.3,0.6l8.4,0.4l0.2-0.1L102.3,63.2z"/>
			<polygon class="st55" points="82,60.8 90.8,61.1 90.9,60.9 82,60.6 81.8,60.5 81.8,60.5 			"/>
			<polygon class="st55" points="94.4,68.1 94.2,62.9 93.8,63 94,68.1 94.2,68.2 94.2,68.2 			"/>
		</g>
	</g>
	<g>
		<g>
			<polygon class="st62" points="127.2,71.9 109.5,82.1 91.9,71.9 109.5,61.7 			"/>
			<polygon class="st63" points="109.5,105.7 91.9,95.5 91.9,71.9 109.5,82.1 			"/>
			<polygon class="st64" points="127.2,95.5 109.5,105.7 109.5,82.1 127.2,71.9 			"/>
		</g>
		<g>
			<path class="st8" d="M111.2,78.3l-0.7-0.4c-0.9-0.5-1.2-1.2-1-1.8l1.3-3.4l5.5,2.1l-3.3,3.5C112.7,78.6,111.8,78.6,111.2,78.3z"
				/>
			<path class="st8" d="M97.5,70.4l0.4,0.2c0.9,0.5,2.1,0.7,3.1,0.5l6.3-0.6l-3.7-3.2l-6,1.9C96.9,69.5,96.9,70,97.5,70.4z"/>
			<path class="st8" d="M118.5,70.5c-0.5-0.3-1.1-0.5-1.8-0.6l-4.9-2.8c-0.1-0.4-0.5-0.7-1-1c-1.6-0.9-4.3-0.8-6.2,0.3
				c-1.8,1.1-2,2.6-0.4,3.6c0.7,0.4,1.6,0.6,2.6,0.6l3.9,2.2c0,0.6,0.4,1.1,1.1,1.5c1.6,0.9,4.3,0.8,6.2-0.3
				C119.9,73,120.1,71.4,118.5,70.5z M108.6,68.6l-0.8-0.5l-1.1,0.6l-0.7-0.4l1.1-0.6l-0.9-0.5l0.8-0.5l0.9,0.5l0.9-0.5l0.7,0.4
				l-0.9,0.5l0.8,0.5L108.6,68.6z M114,72c-0.3-0.2-0.2-0.4,0.1-0.6c0.3-0.2,0.8-0.2,1.1,0c0.3,0.2,0.2,0.4-0.1,0.6
				C114.7,72.1,114.3,72.1,114,72z M113.8,73.5c-0.3-0.2-0.2-0.4,0.1-0.6s0.8-0.2,1.1,0c0.3,0.2,0.2,0.4-0.1,0.6
				S114.1,73.6,113.8,73.5z M116.6,71.8c-0.3-0.2-0.2-0.4,0.1-0.6c0.3-0.2,0.8-0.2,1.1,0c0.3,0.2,0.2,0.4-0.1,0.6
				C117.4,72,116.9,72,116.6,71.8z M116.4,73.4c-0.3-0.2-0.2-0.4,0.1-0.6c0.3-0.2,0.8-0.2,1.1,0c0.3,0.2,0.2,0.4-0.1,0.6
				C117.2,73.5,116.7,73.5,116.4,73.4z"/>
		</g>
	</g>
	<g>
		<g>
			<polygon class="st1" points="144.1,82.6 126.4,92.4 108.7,82.6 126.4,72.8 			"/>
			<polygon class="st56" points="126.4,115.1 108.7,105.3 108.7,82.6 126.4,92.4 			"/>
			<polygon class="st57" points="144.1,105.3 126.4,115.1 126.4,92.4 144.1,82.6 			"/>
		</g>
		<path class="st58" d="M134.9,78.8c-3.9-2.2-10-2.3-13.6-0.3c-2,1.1-2.8,2.6-2.4,4.1c0,0-1.2,0.9-4.7,0.6c0,0,1.4,1.7,6.1,1.6
			c0.5,0.5,1.1,0.9,1.8,1.3c3.9,2.2,10,2.3,13.6,0.3C139.1,84.3,138.8,81,134.9,78.8z"/>
	</g>
	<g>
		<g>
			<polygon class="st1" points="73.9,61.4 56.2,71.2 38.5,61.4 56.2,51.6 			"/>
			<polygon class="st56" points="56.2,93.9 38.5,84.1 38.5,61.4 56.2,71.2 			"/>
			<polygon class="st57" points="73.9,84.1 56.2,93.9 56.2,71.2 73.9,61.4 			"/>
		</g>
		<path class="st58" d="M64.7,57.6c-3.9-2.2-10-2.3-13.6-0.3c-2,1.1-2.8,2.6-2.4,4.1c0,0-1.2,0.9-4.7,0.6c0,0,1.4,1.7,6.1,1.6
			c0.5,0.5,1.1,0.9,1.8,1.3c3.9,2.2,10,2.3,13.6,0.3C68.9,63.1,68.6,59.8,64.7,57.6z"/>
	</g>
	<g>
		<g>
			<polygon class="st67" points="161.2,91.2 143.6,101.4 125.9,91.2 143.6,81 			"/>
			<polygon class="st68" points="143.6,125 125.9,114.8 125.9,91.2 143.6,101.4 			"/>
			<polygon class="st69" points="161.2,114.8 143.6,125 143.6,101.4 161.2,91.2 			"/>
		</g>
		<g>
			<path class="st8" d="M150.8,91.1c-2.3,1.3-5.8,1.5-7.8,0.3s-1.7-3.2,0.6-4.5c2.3-1.3,5.8-1.5,7.8-0.3S153.1,89.7,150.8,91.1z"/>
			<path class="st8" d="M144.6,97.4c1.6-2.1,1.1-4.5-1.5-6c-2.6-1.5-6.7-1.8-10.4-0.9L144.6,97.4z"/>
		</g>
	</g>
	<g>
		<g>
			<polygon class="st67" points="91.7,71.7 74,81.9 56.3,71.7 74,61.5 			"/>
			<polygon class="st68" points="74,105.5 56.3,95.3 56.3,71.7 74,81.9 			"/>
			<polygon class="st69" points="91.7,95.3 74,105.5 74,81.9 91.7,71.7 			"/>
		</g>
		<g>
			<path class="st8" d="M81.3,71.5c-2.3,1.3-5.8,1.5-7.8,0.3s-1.7-3.2,0.6-4.5s5.8-1.5,7.8-0.3C83.8,68.2,83.6,70.2,81.3,71.5z"/>
			<path class="st8" d="M75.1,77.8c1.6-2.1,1.1-4.5-1.5-6S66.9,70,63.2,71L75.1,77.8z"/>
		</g>
	</g>
	<g>
		<g>
			<polygon class="st67" points="56.3,71.7 38.6,81.9 20.9,71.7 38.6,61.5 			"/>
			<polygon class="st68" points="38.6,105.5 20.9,95.3 20.9,71.7 38.6,81.9 			"/>
			<polygon class="st69" points="56.3,95.3 38.6,105.5 38.6,81.9 56.3,71.7 			"/>
		</g>
		<g>
			<path class="st8" d="M45.9,71.5c-2.3,1.3-5.8,1.5-7.8,0.3c-2-1.1-1.7-3.2,0.6-4.5c2.3-1.3,5.8-1.5,7.8-0.3
				C48.4,68.2,48.2,70.2,45.9,71.5z"/>
			<path class="st8" d="M39.6,77.8c1.6-2.1,1.1-4.5-1.5-6c-2.6-1.5-6.7-1.8-10.4-0.9L39.6,77.8z"/>
		</g>
	</g>
	<g>
		<g>
			<polygon class="st59" points="109.8,82.1 92.1,92.3 74.5,82.1 92.1,71.9 			"/>
			<polygon class="st60" points="92.1,115.9 74.5,105.7 74.5,82.1 92.1,92.3 			"/>
			<polygon class="st61" points="109.8,105.7 92.1,115.9 92.1,92.3 109.8,82.1 			"/>
		</g>
		<g>
			<path class="st8" d="M101.3,81.2l-4.2,0.6c0,0.9-0.6,1.9-1.9,2.7c-0.2,0.1-0.3,0.2-0.5,0.3l2,2c0.4-0.2,0.8-0.4,1.2-0.6
				C100.4,84.7,101.5,82.9,101.3,81.2z"/>
			<g>
				<path class="st8" d="M87.5,85c-0.1-0.1-0.2-0.1-0.3-0.2c-2-1.2-1.8-3.2,0.6-4.6c2.4-1.4,5.9-1.5,8-0.3c0.6,0.4,1,0.8,1.2,1.3
					l4.2-0.6c-0.3-0.9-1-1.8-2.3-2.5c-3.6-2.1-9.8-1.8-14,0.6c-4.1,2.4-4.6,6-1,8.1c0.3,0.2,0.7,0.3,1,0.5L87.5,85z"/>
				<path class="st8" d="M93.7,85.1c-1.7,0.6-3.7,0.6-5.3,0.2l-2.5,2.2c2.9,0.9,6.7,0.7,9.8-0.4L93.7,85.1z"/>
			</g>
		</g>
	</g>
	<g>
		<g>
			<polygon class="st52" points="127.6,92.3 109.9,102.5 92.2,92.3 109.9,82.1 			"/>
			<polygon class="st53" points="109.9,126.1 92.2,115.9 92.2,92.3 109.9,102.5 			"/>
			<polygon class="st54" points="127.6,115.9 109.9,126.1 109.9,102.5 127.6,92.3 			"/>
		</g>
		<g>
			<polygon class="st37" points="112.1,98 99.7,90.8 108,86 120.4,93.2 			"/>
			<path class="st55" d="M120.2,93l-8.3-0.4c-1.7-0.1-2.9-0.8-3-1.8l-0.7-4.8L108,86l-0.2,0.1l0.7,4.8c0.1,0.5,0.5,1,1,1.3
				c0.6,0.3,1.4,0.6,2.3,0.6l8.4,0.4l0.2-0.1L120.2,93z"/>
			<polygon class="st55" points="99.9,91.2 108.7,91.2 108.8,90.9 99.9,91.1 99.7,91.5 99.7,91.5 			"/>
			<polygon class="st55" points="112.3,97.9 112.1,92.7 111.7,92.8 111.9,97.9 112.1,98 112.1,98 			"/>
		</g>
	</g>
	<g>
		<g>
			<polygon class="st62" points="145.5,103.3 127.8,113.5 110.1,103.3 127.8,93.1 			"/>
			<polygon class="st63" points="127.8,137.1 110.1,126.8 110.1,103.3 127.8,113.5 			"/>
			<polygon class="st64" points="145.5,126.8 127.8,137.1 127.8,113.5 145.5,103.3 			"/>
		</g>
		<g>
			<path class="st8" d="M129.4,109.6l-0.7-0.4c-0.9-0.5-1.2-1.2-1-1.8l1.3-3.4l5.5,2.1l-3.3,3.5C130.9,110,130,110,129.4,109.6z"/>
			<path class="st8" d="M115.7,101.7l0.4,0.2c0.9,0.5,2.1,0.7,3.1,0.5l6.3-0.6l-3.7-3.2l-6,1.9C115.2,100.9,115.1,101.4,115.7,101.7
				z"/>
			<path class="st8" d="M136.7,101.9c-0.5-0.3-1.1-0.5-1.8-0.6l-4.9-2.8c-0.1-0.4-0.5-0.7-1-1c-1.6-0.9-4.3-0.8-6.2,0.3
				c-1.8,1.1-2,2.6-0.4,3.6c0.7,0.4,1.6,0.6,2.6,0.6l3.9,2.2c0,0.6,0.4,1.1,1.1,1.5c1.6,0.9,4.3,0.8,6.2-0.3
				C138.1,104.4,138.3,102.8,136.7,101.9z M126.8,99.9l-0.8-0.5l-1.1,0.6l-0.7-0.4l1.1-0.6l-0.9-0.5l0.8-0.5l0.9,0.5l0.9-0.5
				l0.7,0.4l-0.9,0.5l0.8,0.5L126.8,99.9z M132.2,103.3c-0.3-0.2-0.2-0.4,0.1-0.6c0.3-0.2,0.8-0.2,1.1,0c0.3,0.2,0.2,0.4-0.1,0.6
				C133,103.5,132.5,103.5,132.2,103.3z M132,104.9c-0.3-0.2-0.2-0.4,0.1-0.6c0.3-0.2,0.8-0.2,1.1,0c0.3,0.2,0.2,0.4-0.1,0.6
				C132.8,105,132.3,105,132,104.9z M134.9,103.2c-0.3-0.2-0.2-0.4,0.1-0.6c0.3-0.2,0.8-0.2,1.1,0c0.3,0.2,0.2,0.4-0.1,0.6
				S135.2,103.4,134.9,103.2z M134.7,104.7c-0.3-0.2-0.2-0.4,0.1-0.6c0.3-0.2,0.8-0.2,1.1,0c0.3,0.2,0.2,0.4-0.1,0.6
				C135.5,104.9,135,104.9,134.7,104.7z"/>
		</g>
	</g>
	<g>
		<g>
			<polygon class="st62" points="74.4,81.9 56.8,92.1 39.1,81.9 56.8,71.7 			"/>
			<polygon class="st63" points="56.8,115.7 39.1,105.5 39.1,81.9 56.8,92.1 			"/>
			<polygon class="st64" points="74.4,105.5 56.8,115.7 56.8,92.1 74.4,81.9 			"/>
		</g>
		<g>
			<path class="st8" d="M58.4,88.3l-0.7-0.4c-0.9-0.5-1.2-1.2-1-1.8l1.3-3.4l5.5,2.1l-3.3,3.5C59.9,88.6,59,88.6,58.4,88.3z"/>
			<path class="st8" d="M44.7,80.4l0.4,0.2c0.9,0.5,2.1,0.7,3.1,0.5l6.3-0.6l-3.7-3.2l-6,1.9C44.1,79.5,44.1,80.1,44.7,80.4z"/>
			<path class="st8" d="M65.7,80.5c-0.5-0.3-1.1-0.5-1.8-0.6l-4.9-2.8c-0.1-0.4-0.5-0.7-1-1c-1.6-0.9-4.3-0.8-6.2,0.3
				c-1.8,1.1-2,2.6-0.4,3.6c0.7,0.4,1.6,0.6,2.6,0.6l3.9,2.2c0,0.6,0.4,1.1,1.1,1.5c1.6,0.9,4.3,0.8,6.2-0.3
				C67.1,83,67.3,81.5,65.7,80.5z M55.8,78.6L55,78.1l-1.1,0.6l-0.7-0.4l1.1-0.6l-0.9-0.5l0.8-0.5l0.9,0.5l0.9-0.5l0.7,0.4l-0.9,0.5
				l0.8,0.5L55.8,78.6z M61.2,82c-0.3-0.2-0.2-0.4,0.1-0.6c0.3-0.2,0.8-0.2,1.1,0c0.3,0.2,0.2,0.4-0.1,0.6
				C62,82.1,61.5,82.1,61.2,82z M61,83.5c-0.3-0.2-0.2-0.4,0.1-0.6c0.3-0.2,0.8-0.2,1.1,0c0.3,0.2,0.2,0.4-0.1,0.6
				C61.8,83.6,61.3,83.7,61,83.5z M63.9,81.9c-0.3-0.2-0.2-0.4,0.1-0.6c0.3-0.2,0.8-0.2,1.1,0c0.3,0.2,0.2,0.4-0.1,0.6
				C64.6,82,64.1,82,63.9,81.9z M63.7,83.4c-0.3-0.2-0.2-0.4,0.1-0.6c0.3-0.2,0.8-0.2,1.1,0c0.3,0.2,0.2,0.4-0.1,0.6
				C64.4,83.5,63.9,83.6,63.7,83.4z"/>
		</g>
	</g>
	<g>
		<g>
			<polygon class="st1" points="92.1,91.9 74.4,101.7 56.8,91.9 74.4,82.1 			"/>
			<polygon class="st56" points="74.4,124.3 56.8,114.5 56.8,91.9 74.4,101.7 			"/>
			<polygon class="st57" points="92.1,114.5 74.4,124.3 74.4,101.7 92.1,91.9 			"/>
		</g>
		<path class="st58" d="M82.9,88c-3.9-2.2-10-2.3-13.6-0.3c-2,1.1-2.8,2.6-2.4,4.1c0,0-1.2,0.9-4.7,0.6c0,0,1.4,1.7,6.1,1.6
			c0.5,0.5,1.1,0.9,1.8,1.3c3.9,2.2,10,2.3,13.6,0.3S86.9,90.2,82.9,88z"/>
	</g>
	<g>
		<g>
			<polygon class="st59" points="109.8,102.3 92.1,112.5 74.5,102.3 92.1,92.1 			"/>
			<polygon class="st60" points="92.1,136.1 74.5,125.9 74.5,102.3 92.1,112.5 			"/>
			<polygon class="st61" points="109.8,125.9 92.1,136.1 92.1,112.5 109.8,102.3 			"/>
		</g>
		<g>
			<path class="st8" d="M101.3,101.4l-4.2,0.6c0,0.9-0.6,1.9-1.9,2.7c-0.2,0.1-0.3,0.2-0.5,0.3l2,2c0.4-0.2,0.8-0.4,1.2-0.6
				C100.4,104.9,101.5,103.1,101.3,101.4z"/>
			<g>
				<path class="st8" d="M87.5,105.2c-0.1-0.1-0.2-0.1-0.3-0.2c-2-1.2-1.8-3.2,0.6-4.6s5.9-1.5,8-0.3c0.6,0.4,1,0.8,1.2,1.3l4.2-0.6
					c-0.3-0.9-1-1.8-2.3-2.5c-3.6-2.1-9.8-1.8-14,0.6c-4.1,2.4-4.6,6-1,8.1c0.3,0.2,0.7,0.3,1,0.5L87.5,105.2z"/>
				<path class="st8" d="M93.7,105.3c-1.7,0.6-3.7,0.6-5.3,0.2l-2.5,2.2c2.9,0.9,6.7,0.7,9.8-0.4L93.7,105.3z"/>
			</g>
		</g>
	</g>
	<g>
		<g>
			<polygon class="st52" points="127.6,112.5 109.9,122.7 92.2,112.5 109.9,102.3 			"/>
			<polygon class="st53" points="109.9,146.3 92.2,136.1 92.2,112.5 109.9,122.7 			"/>
			<polygon class="st54" points="127.6,136.1 109.9,146.3 109.9,122.7 127.6,112.5 			"/>
		</g>
		<g>
			<polygon class="st37" points="112.1,118.2 99.7,111 108,106.2 120.4,113.4 			"/>
			<path class="st55" d="M120.2,113.2l-8.3-0.4c-1.7-0.1-2.9-0.8-3-1.8l-0.7-4.8l-0.2-0.1l-0.2,0.1l0.7,4.8c0.1,0.5,0.5,1,1,1.3
				c0.6,0.3,1.4,0.6,2.3,0.6l8.4,0.4l0.2-0.1L120.2,113.2z"/>
			<polygon class="st55" points="99.9,111.3 108.7,111.3 108.8,111 99.9,111.1 99.7,111.5 99.7,111.5 			"/>
			<polygon class="st55" points="112.3,118.1 112.1,112.9 111.7,112.9 111.9,118 112.1,118.2 112.1,118.2 			"/>
		</g>
	</g>
	<polygon class="st72" points="91.5,226.2 0.9,173.9 0.9,53.2 91.5,105.5 	"/>
	<path class="st73" d="M90.9,105.5v120.8l91-52.3V53.2L90.9,105.5z M167.4,81.2L167.4,81.2c-0.5,4.7-4.2,10.5-8.4,12.8l-41.2,23.8
		c-4.1,2.4-7.1,0.5-6.6-4.2v0c0.5-4.7,4.2-10.5,8.4-12.8L160.8,77C164.9,74.7,167.9,76.5,167.4,81.2z"/>
</g>
</svg>
