<?xml version="1.0" encoding="utf-8"?>
<!-- Generator: Adobe Illustrator 20.0.0, SVG Export Plug-In . SVG Version: 6.00 Build 0)  -->
<!DOCTYPE svg PUBLIC "-//W3C//DTD SVG 1.1//EN" "http://www.w3.org/Graphics/SVG/1.1/DTD/svg11.dtd">
<svg version="1.1" id="Layer_1" xmlns="http://www.w3.org/2000/svg" xmlns:xlink="http://www.w3.org/1999/xlink" x="0px" y="0px"
	 viewBox="0 0 565.7 688" style="enable-background:new 0 0 565.7 688;" xml:space="preserve">
<style type="text/css">
	.st0{fill:#091410;}
	.st1{fill:#1BA897;}
	.st2{fill:#FBEE2D;}
	.st3{fill:#D5C529;}
	.st4{fill:#C4B22F;}
	.st5{fill:#603240;}
	.st6{fill:#F1F2F2;}
	.st7{fill:#A52E23;}
	.st8{fill:#FFFFFF;}
	.st9{fill:#FDFEFE;}
	.st10{fill:#939598;}
	.st11{fill:#808285;}
	.st12{fill:#BCBEC0;}
	.st13{fill:#E6E7E8;}
	.st14{fill:#414042;}
	.st15{fill:#D1D3D4;}
	.st16{fill:#491B0D;}
	.st17{fill:#D84426;}
	.st18{fill:#93AC4C;}
	.st19{fill:#126F63;}
	.st20{fill:#E0C93A;}
	.st21{fill:#EF4423;}
	.st22{fill:#A09F9F;}
	.st23{fill:#AD4967;}
	.st24{fill:#85C441;}
	.st25{fill:#C53227;}
	.st26{fill:#7B7B7B;}
	.st27{fill:#B0B0B0;}
	.st28{fill:#4C4C4D;}
	.st29{fill:#8E8E8E;}
	.st30{fill:#BCBCBC;}
	.st31{fill:#212121;}
	.st32{fill:#DDDDDD;}
	.st33{fill:#B7B7B7;}
	.st34{fill:#F04A4A;}
	.st35{fill:#FDB523;}
	.st36{fill:#4AB749;}
	.st37{fill:#CCCCCB;}
	.st38{fill:#DBD622;}
	.st39{fill:#58C099;}
	.st40{fill:#4062AE;}
	.st41{fill:#D9D327;}
	.st42{fill:#4DA547;}
	.st43{fill:#49BB83;}
	.st44{fill:#6B50A1;}
	.st45{fill:#CD862A;}
	.st46{fill:#483E98;}
	.st47{fill:#A65926;}
	.st48{fill:#78C143;}
	.st49{fill:#32C0D1;}
	.st50{fill:#636464;}
	.st51{fill:#643584;}
	.st52{fill:#DC8727;}
	.st53{fill:#B56C29;}
	.st54{fill:#CC7A29;}
	.st55{fill:#A3A1A1;}
	.st56{fill:#167F70;}
	.st57{fill:#1AAF9A;}
	.st58{fill:#DCDBDB;}
	.st59{fill:#6BBE45;}
	.st60{fill:#43AF49;}
	.st61{fill:#62A844;}
	.st62{fill:#CE2E27;}
	.st63{fill:#8F1D1D;}
	.st64{fill:#BA2626;}
	.st65{fill:#753C97;}
	.st66{fill:#4D2966;}
	.st67{fill:#D9E028;}
	.st68{fill:#A3A537;}
	.st69{fill:#C5C62F;}
	.st70{fill:#B69830;}
	.st71{fill:#DDA82F;}
	.st72{fill:#D29B3C;}
	.st73{fill:#CB922B;}
	.st74{fill:#963D97;}
	.st75{fill:#833677;}
	.st76{fill:#973D8F;}
	.st77{fill:#83367E;}
	.st78{fill:#14475D;}
	.st79{fill:#06ABCD;}
	.st80{fill:#D0CECF;}
	.st81{fill:#D8D8D8;}
	.st82{opacity:0.4;}
	.st83{fill:#ACA99F;}
	.st84{fill:#367D93;}
	.st85{fill:#EEEAE1;}
	.st86{fill:#45ABCC;}
	.st87{fill:url(#SVGID_1_);}
	.st88{fill:url(#SVGID_2_);}
	.st89{fill:#789DA9;}
	.st90{fill:url(#SVGID_3_);}
	.st91{fill:url(#SVGID_4_);}
	.st92{fill:#63BBCC;}
	.st93{fill:#2D7482;}
	.st94{fill:#126C5F;}
	.st95{fill:#158372;}
	.st96{fill:#1A9684;}
	.st97{fill:#39B54A;}
</style>
<g>
	<polygon class="st65" points="556.2,526.4 282.6,368.4 282.6,3.7 556.2,161.6 	"/>
	<polygon class="st66" points="556.2,526.4 282.6,684.3 9,526.4 282.6,368.4 	"/>
	<path class="st51" d="M9,161.6v364.8l274-157.9V3.7L9,161.6z M238.5,88.4L238.5,88.4c-1.4,14.2-12.7,31.6-25.3,38.8L88.8,199.1
		c-12.5,7.2-21.5,1.6-20.1-12.6v0c1.4-14.2,12.7-31.6,25.3-38.8l124.4-71.8C231,68.6,239.9,74.2,238.5,88.4z"/>
	<g>
		<g>
			<polygon class="st62" points="336,125.6 282.6,156.4 229.2,125.6 282.6,94.7 			"/>
			<polygon class="st63" points="282.6,227.7 229.2,196.8 229.2,125.6 282.6,156.4 			"/>
			<polygon class="st64" points="336,196.8 282.6,227.7 282.6,156.4 336,125.6 			"/>
		</g>
		<g>
			<path class="st8" d="M287.5,144.8l-2.2-1.3c-2.6-1.5-3.8-3.6-2.9-5.3l4-10.4l16.5,6.4l-10,10.5
				C292,145.8,289.3,145.9,287.5,144.8z"/>
			<path class="st8" d="M246.2,121l1.1,0.7c2.6,1.5,6.3,2.2,9.3,1.7l19.1-1.7l-11.1-9.5l-18.2,5.8
				C244.5,118.4,244.4,119.9,246.2,121z"/>
			<path class="st8" d="M309.6,121.4c-1.5-0.9-3.3-1.4-5.3-1.7l-14.7-8.5c-0.4-1.2-1.4-2.2-2.9-3.1c-4.8-2.8-13.1-2.4-18.6,0.8
				c-5.5,3.2-6.1,8-1.3,10.8c2.1,1.2,5,1.8,8,1.9l11.7,6.8c0,1.7,1.1,3.4,3.2,4.6c4.8,2.8,13.1,2.4,18.6-0.8
				C313.8,129,314.4,124.2,309.6,121.4z M279.7,115.5l-2.5-1.4l-3.3,1.9l-2.1-1.2l3.3-1.9l-2.8-1.6l2.5-1.4l2.8,1.6l2.9-1.7l2.1,1.2
				l-2.9,1.7l2.5,1.4L279.7,115.5z M296,125.8c-0.8-0.5-0.7-1.3,0.2-1.9s2.4-0.6,3.3-0.1c0.8,0.5,0.7,1.3-0.2,1.9
				C298.3,126.2,296.9,126.2,296,125.8z M295.5,130.4c-0.8-0.5-0.7-1.3,0.2-1.9c1-0.6,2.4-0.6,3.3-0.1s0.7,1.3-0.2,1.9
				S296.3,130.9,295.5,130.4z M304,125.4c-0.8-0.5-0.7-1.3,0.2-1.9c1-0.6,2.4-0.6,3.3-0.1s0.7,1.3-0.2,1.9
				C306.3,125.9,304.9,125.9,304,125.4z M303.5,130.1c-0.8-0.5-0.7-1.3,0.2-1.9c1-0.6,2.4-0.6,3.3-0.1s0.7,1.3-0.2,1.9
				C305.8,130.5,304.3,130.5,303.5,130.1z"/>
		</g>
	</g>
	<g>
		<g>
			<polygon class="st1" points="390.6,156.1 337.2,185.7 283.8,156.1 337.2,126.5 			"/>
			<polygon class="st56" points="337.2,254.1 283.8,224.5 283.8,156.1 337.2,185.7 			"/>
			<polygon class="st57" points="390.6,224.5 337.2,254.1 337.2,185.7 390.6,156.1 			"/>
		</g>
		<path class="st58" d="M362.8,144.5c-11.9-6.6-30.3-7.1-41.2-1.1c-6,3.3-8.4,7.9-7.4,12.4c0,0-3.6,2.6-14.3,1.9
			c0,0,4.1,5.1,18.3,4.7c1.4,1.4,3.2,2.7,5.3,3.8c11.9,6.6,30.3,7.1,41.2,1.1C375.5,161.4,374.7,151.1,362.8,144.5z"/>
	</g>
	<g>
		<g>
			<polygon class="st59" points="444.1,186.5 390.7,217.4 337.2,186.5 390.7,155.7 			"/>
			<polygon class="st60" points="390.7,288.6 337.2,257.7 337.2,186.5 390.7,217.4 			"/>
			<polygon class="st61" points="444.1,257.7 390.7,288.6 390.7,217.4 444.1,186.5 			"/>
		</g>
		<g>
			<path class="st8" d="M418.4,183.8l-12.8,1.9c0.1,2.8-1.9,5.8-5.9,8.1c-0.5,0.3-1,0.5-1.5,0.8l6.2,5.9c1.3-0.6,2.5-1.2,3.7-1.9
				C415.5,194.4,419,188.9,418.4,183.8z"/>
			<g>
				<path class="st8" d="M376.7,195.3c-0.4-0.2-0.7-0.3-1-0.5c-6.2-3.6-5.4-9.8,1.7-13.9c7.1-4.1,17.9-4.6,24.1-1
					c1.9,1.1,3.2,2.5,3.7,3.9l12.8-1.9c-0.9-2.9-3.2-5.5-6.8-7.6c-10.8-6.2-29.7-5.4-42.2,1.7c-12.5,7.2-13.8,18.1-3,24.3
					c0.9,0.5,2,1,3,1.5L376.7,195.3z"/>
				<path class="st8" d="M395.3,195.8c-5.2,1.7-11.1,1.9-15.9,0.5l-7.7,6.5c8.8,2.7,20.1,2.3,29.7-1.1L395.3,195.8z"/>
			</g>
		</g>
	</g>
	<g>
		<g>
			<polygon class="st59" points="283.1,156.5 229.7,187.4 176.2,156.5 229.7,125.7 			"/>
			<polygon class="st60" points="229.7,258.6 176.2,227.7 176.2,156.5 229.7,187.4 			"/>
			<polygon class="st61" points="283.1,227.7 229.7,258.6 229.7,187.4 283.1,156.5 			"/>
		</g>
		<g>
			<path class="st8" d="M257.4,153.8l-12.8,1.9c0.1,2.8-1.9,5.8-5.9,8.1c-0.5,0.3-1,0.5-1.5,0.8l6.2,5.9c1.3-0.6,2.5-1.2,3.7-1.9
				C254.5,164.4,258,158.9,257.4,153.8z"/>
			<g>
				<path class="st8" d="M215.7,165.3c-0.4-0.2-0.7-0.3-1-0.5c-6.2-3.6-5.4-9.8,1.7-13.9c7.1-4.1,17.9-4.6,24.1-1
					c1.9,1.1,3.2,2.5,3.7,3.9l12.8-1.9c-0.9-2.9-3.2-5.5-6.8-7.6c-10.8-6.2-29.7-5.4-42.2,1.7c-12.5,7.2-13.8,18.1-3,24.3
					c0.9,0.5,2,1,3,1.5L215.7,165.3z"/>
				<path class="st8" d="M234.3,165.8c-5.2,1.7-11.1,1.9-15.9,0.5l-7.7,6.5c8.8,2.7,20.1,2.3,29.7-1.1L234.3,165.8z"/>
			</g>
		</g>
	</g>
	<g>
		<g>
			<polygon class="st67" points="499.3,218.1 445.9,249 392.5,218.1 445.9,187.3 			"/>
			<polygon class="st68" points="445.9,320.2 392.5,289.4 392.5,218.1 445.9,249 			"/>
			<polygon class="st69" points="499.3,289.4 445.9,320.2 445.9,249 499.3,218.1 			"/>
		</g>
		<g>
			<path class="st8" d="M467.9,217.6c-6.9,4-17.4,4.4-23.4,1c-6-3.5-5.3-9.5,1.7-13.5c6.9-4,17.4-4.4,23.4-1
				C475.5,207.6,474.8,213.6,467.9,217.6z"/>
			<path class="st8" d="M449,236.7c5-6.4,3.4-13.5-4.6-18.1c-8-4.6-20.2-5.5-31.3-2.6L449,236.7z"/>
		</g>
	</g>
	<g>
		<g>
			<polygon class="st52" points="552.6,253.4 499.2,284.2 445.8,253.4 499.2,222.5 			"/>
			<polygon class="st53" points="499.2,355.4 445.8,324.6 445.8,253.4 499.2,284.2 			"/>
			<polygon class="st54" points="552.6,324.6 499.2,355.4 499.2,284.2 552.6,253.4 			"/>
		</g>
		<g>
			<polygon class="st37" points="505.9,270.5 468.4,248.8 493.5,234.3 531.1,256 			"/>
			<path class="st55" d="M530.4,255.6l-25-1.2c-5-0.3-8.7-2.4-9.2-5.3l-2.1-14.4l-0.6-0.4l-0.5,0.3l2.2,14.6c0.2,1.6,1.4,3,3.1,4
				c1.8,1,4.2,1.7,6.9,1.8l25.3,1.3l0.5-0.3L530.4,255.6z"/>
			<polygon class="st55" points="469,249.2 495.6,249.5 495.8,248.8 468.9,248.5 468.4,248.8 468.4,248.8 			"/>
			<polygon class="st55" points="506.5,270.2 505.9,254.7 504.8,254.8 505.3,270.2 505.9,270.5 505.9,270.5 			"/>
		</g>
	</g>
	<g>
		<g>
			<polygon class="st52" points="337.6,189.4 284.2,220.2 230.8,189.4 284.2,158.5 			"/>
			<polygon class="st53" points="284.2,291.4 230.8,260.6 230.8,189.4 284.2,220.2 			"/>
			<polygon class="st54" points="337.6,260.6 284.2,291.4 284.2,220.2 337.6,189.4 			"/>
		</g>
		<g>
			<polygon class="st37" points="290.9,206.5 253.4,184.8 278.5,170.3 316.1,192 			"/>
			<path class="st55" d="M315.4,191.6l-25-1.2c-5-0.3-8.7-2.4-9.2-5.3l-2.1-14.4l-0.6-0.4l-0.5,0.3l2.2,14.6c0.2,1.6,1.4,3,3.1,4
				c1.8,1,4.2,1.7,6.9,1.8l25.3,1.3l0.5-0.3L315.4,191.6z"/>
			<polygon class="st55" points="254,185.2 280.6,185.5 280.8,184.8 253.9,184.5 253.4,184.8 253.4,184.8 			"/>
			<polygon class="st55" points="291.5,206.2 290.9,190.7 289.8,190.8 290.3,206.2 290.9,206.5 290.9,206.5 			"/>
		</g>
	</g>
	<g>
		<g>
			<polygon class="st62" points="390.6,217.8 337.2,248.6 283.8,217.8 337.2,186.9 			"/>
			<polygon class="st63" points="337.2,319.8 283.8,289 283.8,217.8 337.2,248.6 			"/>
			<polygon class="st64" points="390.6,289 337.2,319.8 337.2,248.6 390.6,217.8 			"/>
		</g>
		<g>
			<path class="st8" d="M342.1,237l-2.2-1.3c-2.6-1.5-3.8-3.6-2.9-5.3l4-10.4l16.5,6.4l-10,10.5C346.6,238,343.9,238.1,342.1,237z"
				/>
			<path class="st8" d="M300.8,213.2l1.1,0.7c2.6,1.5,6.3,2.2,9.3,1.7l19.1-1.7l-11.1-9.5l-18.2,5.8
				C299,210.5,299,212.1,300.8,213.2z"/>
			<path class="st8" d="M364.2,213.6c-1.5-0.9-3.3-1.4-5.3-1.7l-14.7-8.5c-0.4-1.2-1.4-2.2-2.9-3.1c-4.8-2.8-13.1-2.4-18.6,0.8
				c-5.5,3.2-6.1,8-1.3,10.8c2.1,1.2,5,1.8,8,1.9l11.7,6.8c0,1.7,1.1,3.4,3.2,4.6c4.8,2.8,13.1,2.4,18.6-0.8
				C368.3,221.2,368.9,216.3,364.2,213.6z M334.3,207.7l-2.5-1.4l-3.3,1.9l-2.1-1.2l3.3-1.9l-2.8-1.6l2.5-1.4l2.8,1.6l2.9-1.7
				l2.1,1.2l-2.9,1.7l2.5,1.4L334.3,207.7z M350.6,217.9c-0.8-0.5-0.7-1.3,0.2-1.9c1-0.6,2.4-0.6,3.3-0.1c0.8,0.5,0.7,1.3-0.2,1.9
				C352.9,218.4,351.4,218.4,350.6,217.9z M350,222.6c-0.8-0.5-0.7-1.3,0.2-1.9c1-0.6,2.4-0.6,3.3-0.1s0.7,1.3-0.2,1.9
				S350.9,223,350,222.6z M358.6,217.6c-0.8-0.5-0.7-1.3,0.2-1.9c1-0.6,2.4-0.6,3.3-0.1s0.7,1.3-0.2,1.9
				C360.9,218,359.5,218.1,358.6,217.6z M358,222.2c-0.8-0.5-0.7-1.3,0.2-1.9c1-0.6,2.4-0.6,3.3-0.1c0.8,0.5,0.7,1.3-0.2,1.9
				C360.3,222.7,358.9,222.7,358,222.2z"/>
		</g>
	</g>
	<g>
		<g>
			<polygon class="st1" points="441.6,250.1 388.2,279.7 334.8,250.1 388.2,220.5 			"/>
			<polygon class="st56" points="388.2,348.1 334.8,318.5 334.8,250.1 388.2,279.7 			"/>
			<polygon class="st57" points="441.6,318.5 388.2,348.1 388.2,279.7 441.6,250.1 			"/>
		</g>
		<path class="st58" d="M413.8,238.5c-11.9-6.6-30.3-7.1-41.2-1.1c-6,3.3-8.4,7.9-7.4,12.4c0,0-3.6,2.6-14.3,1.9
			c0,0,4.1,5.1,18.3,4.7c1.4,1.4,3.2,2.7,5.3,3.8c11.9,6.6,30.3,7.1,41.2,1.1C426.5,255.4,425.7,245.1,413.8,238.5z"/>
	</g>
	<g>
		<g>
			<polygon class="st1" points="229.6,186.1 176.2,215.7 122.8,186.1 176.2,156.5 			"/>
			<polygon class="st56" points="176.2,284.1 122.8,254.5 122.8,186.1 176.2,215.7 			"/>
			<polygon class="st57" points="229.6,254.5 176.2,284.1 176.2,215.7 229.6,186.1 			"/>
		</g>
		<path class="st58" d="M201.8,174.5c-11.9-6.6-30.3-7.1-41.2-1.1c-6,3.3-8.4,7.9-7.4,12.4c0,0-3.6,2.6-14.3,1.9
			c0,0,4.1,5.1,18.3,4.7c1.4,1.4,3.2,2.7,5.3,3.8c11.9,6.6,30.3,7.1,41.2,1.1C214.5,191.4,213.7,181.1,201.8,174.5z"/>
	</g>
	<g>
		<g>
			<polygon class="st67" points="493.3,276.1 439.9,307 386.5,276.1 439.9,245.3 			"/>
			<polygon class="st68" points="439.9,378.2 386.5,347.4 386.5,276.1 439.9,307 			"/>
			<polygon class="st69" points="493.3,347.4 439.9,378.2 439.9,307 493.3,276.1 			"/>
		</g>
		<g>
			<path class="st8" d="M461.9,275.6c-6.9,4-17.4,4.4-23.4,1c-6-3.5-5.3-9.5,1.7-13.5c6.9-4,17.4-4.4,23.4-1
				C469.5,265.6,468.8,271.6,461.9,275.6z"/>
			<path class="st8" d="M443,294.7c5-6.4,3.4-13.5-4.6-18.1s-20.2-5.5-31.3-2.6L443,294.7z"/>
		</g>
	</g>
	<g>
		<g>
			<polygon class="st67" points="283.3,217.1 229.9,248 176.5,217.1 229.9,186.3 			"/>
			<polygon class="st68" points="229.9,319.2 176.5,288.4 176.5,217.1 229.9,248 			"/>
			<polygon class="st69" points="283.3,288.4 229.9,319.2 229.9,248 283.3,217.1 			"/>
		</g>
		<g>
			<path class="st8" d="M251.9,216.6c-6.9,4-17.4,4.4-23.4,1c-6-3.5-5.3-9.5,1.7-13.5c6.9-4,17.4-4.4,23.4-1
				S258.8,212.6,251.9,216.6z"/>
			<path class="st8" d="M233,235.7c5-6.4,3.4-13.5-4.6-18.1c-8-4.6-20.2-5.5-31.3-2.6L233,235.7z"/>
		</g>
	</g>
	<g>
		<g>
			<polygon class="st67" points="176.3,217.1 122.9,248 69.5,217.1 122.9,186.3 			"/>
			<polygon class="st68" points="122.9,319.2 69.5,288.4 69.5,217.1 122.9,248 			"/>
			<polygon class="st69" points="176.3,288.4 122.9,319.2 122.9,248 176.3,217.1 			"/>
		</g>
		<g>
			<path class="st8" d="M144.9,216.6c-6.9,4-17.4,4.4-23.4,1s-5.3-9.5,1.7-13.5c6.9-4,17.4-4.4,23.4-1
				C152.5,206.6,151.8,212.6,144.9,216.6z"/>
			<path class="st8" d="M126,235.7c5-6.4,3.4-13.5-4.6-18.1c-8-4.6-20.2-5.5-31.3-2.6L126,235.7z"/>
		</g>
	</g>
	<g>
		<g>
			<polygon class="st59" points="338.1,248.5 284.7,279.4 231.2,248.5 284.7,217.7 			"/>
			<polygon class="st60" points="284.7,350.6 231.2,319.7 231.2,248.5 284.7,279.4 			"/>
			<polygon class="st61" points="338.1,319.7 284.7,350.6 284.7,279.4 338.1,248.5 			"/>
		</g>
		<g>
			<path class="st8" d="M312.4,245.8l-12.8,1.9c0.1,2.8-1.9,5.8-5.9,8.1c-0.5,0.3-1,0.5-1.5,0.8l6.2,5.9c1.3-0.6,2.5-1.2,3.7-1.9
				C309.5,256.4,313,250.9,312.4,245.8z"/>
			<g>
				<path class="st8" d="M270.7,257.3c-0.4-0.2-0.7-0.3-1-0.5c-6.2-3.6-5.4-9.8,1.7-13.9c7.1-4.1,17.9-4.6,24.1-1
					c1.9,1.1,3.2,2.5,3.7,3.9l12.8-1.9c-0.9-2.9-3.2-5.5-6.8-7.6c-10.8-6.2-29.7-5.4-42.2,1.7c-12.5,7.2-13.8,18.1-3,24.3
					c0.9,0.5,2,1,3,1.5L270.7,257.3z"/>
				<path class="st8" d="M289.3,257.8c-5.2,1.7-11.1,1.9-15.9,0.5l-7.7,6.5c8.8,2.7,20.1,2.3,29.7-1.1L289.3,257.8z"/>
			</g>
		</g>
	</g>
	<g>
		<g>
			<polygon class="st52" points="391.6,279.4 338.2,310.2 284.8,279.4 338.2,248.5 			"/>
			<polygon class="st53" points="338.2,381.4 284.8,350.6 284.8,279.4 338.2,310.2 			"/>
			<polygon class="st54" points="391.6,350.6 338.2,381.4 338.2,310.2 391.6,279.4 			"/>
		</g>
		<g>
			<polygon class="st37" points="344.9,296.5 307.4,274.8 332.5,260.3 370.1,282 			"/>
			<path class="st55" d="M369.4,281.6l-25-1.2c-5-0.3-8.7-2.4-9.2-5.3l-2.1-14.4l-0.6-0.4l-0.5,0.3l2.2,14.6c0.2,1.6,1.4,3,3.1,4
				c1.8,1,4.2,1.7,6.9,1.8l25.3,1.3l0.5-0.3L369.4,281.6z"/>
			<polygon class="st55" points="308,275.2 334.6,275.5 334.8,274.8 307.9,274.5 307.4,274.8 307.4,274.8 			"/>
			<polygon class="st55" points="345.5,296.2 344.9,280.7 343.8,280.8 344.3,296.2 344.9,296.5 344.9,296.5 			"/>
		</g>
	</g>
	<g>
		<g>
			<polygon class="st62" points="445.7,312.5 392.3,343.4 338.8,312.5 392.3,281.7 			"/>
			<polygon class="st63" points="392.3,414.6 338.8,383.8 338.8,312.5 392.3,343.4 			"/>
			<polygon class="st64" points="445.7,383.8 392.3,414.6 392.3,343.4 445.7,312.5 			"/>
		</g>
		<g>
			<path class="st8" d="M397.2,331.8l-2.2-1.3c-2.6-1.5-3.8-3.6-2.9-5.3l4-10.4l16.5,6.4l-10,10.5
				C401.7,332.8,399,332.8,397.2,331.8z"/>
			<path class="st8" d="M355.9,307.9l1.1,0.7c2.6,1.5,6.3,2.2,9.3,1.7l19.1-1.7l-11.1-9.5l-18.2,5.8
				C354.1,305.3,354,306.9,355.9,307.9z"/>
			<path class="st8" d="M419.2,308.4c-1.5-0.9-3.3-1.4-5.3-1.7l-14.7-8.5c-0.4-1.2-1.4-2.2-2.9-3.1c-4.8-2.8-13.1-2.4-18.6,0.8
				c-5.5,3.2-6.1,8-1.3,10.8c2.1,1.2,5,1.8,8,1.9l11.7,6.8c0,1.7,1.1,3.4,3.2,4.6c4.8,2.8,13.1,2.4,18.6-0.8
				C423.4,315.9,424,311.1,419.2,308.4z M389.4,302.4l-2.5-1.4l-3.3,1.9l-2.1-1.2l3.3-1.9l-2.8-1.6l2.5-1.4l2.8,1.6l2.9-1.7l2.1,1.2
				l-2.9,1.7l2.5,1.4L389.4,302.4z M405.7,312.7c-0.8-0.5-0.7-1.3,0.2-1.9c1-0.6,2.4-0.6,3.3-0.1c0.8,0.5,0.7,1.3-0.2,1.9
				C408,313.1,406.5,313.2,405.7,312.7z M405.1,317.3c-0.8-0.5-0.7-1.3,0.2-1.9s2.4-0.6,3.3-0.1s0.7,1.3-0.2,1.9
				S406,317.8,405.1,317.3z M413.7,312.4c-0.8-0.5-0.7-1.3,0.2-1.9c1-0.6,2.4-0.6,3.3-0.1s0.7,1.3-0.2,1.9
				C416,312.8,414.6,312.9,413.7,312.4z M413.1,317c-0.8-0.5-0.7-1.3,0.2-1.9c1-0.6,2.4-0.6,3.3-0.1s0.7,1.3-0.2,1.9
				C415.4,317.4,414,317.5,413.1,317z"/>
		</g>
	</g>
	<g>
		<g>
			<polygon class="st62" points="231.2,248 177.8,278.9 124.3,248 177.8,217.2 			"/>
			<polygon class="st63" points="177.8,350.1 124.3,319.3 124.3,248 177.8,278.9 			"/>
			<polygon class="st64" points="231.2,319.3 177.8,350.1 177.8,278.9 231.2,248 			"/>
		</g>
		<g>
			<path class="st8" d="M182.7,267.3l-2.2-1.3c-2.6-1.5-3.8-3.6-2.9-5.3l4-10.4l16.5,6.4l-10,10.5
				C187.2,268.3,184.5,268.4,182.7,267.3z"/>
			<path class="st8" d="M141.4,243.5l1.1,0.7c2.6,1.5,6.3,2.2,9.3,1.7l19.1-1.7l-11.1-9.5l-18.2,5.8
				C139.6,240.8,139.5,242.4,141.4,243.5z"/>
			<path class="st8" d="M204.7,243.9c-1.5-0.9-3.3-1.4-5.3-1.7l-14.7-8.5c-0.4-1.2-1.4-2.2-2.9-3.1c-4.8-2.8-13.1-2.4-18.6,0.8
				c-5.5,3.2-6.1,8-1.3,10.8c2.1,1.2,5,1.8,8,1.9l11.7,6.8c0,1.7,1.1,3.4,3.2,4.6c4.8,2.8,13.1,2.4,18.6-0.8
				C208.9,251.4,209.5,246.6,204.7,243.9z M174.9,238l-2.5-1.4l-3.3,1.9l-2.1-1.2l3.3-1.9l-2.8-1.6l2.5-1.4l2.8,1.6l2.9-1.7l2.1,1.2
				l-2.9,1.7l2.5,1.4L174.9,238z M191.2,248.2c-0.8-0.5-0.7-1.3,0.2-1.9s2.4-0.6,3.3-0.1c0.8,0.5,0.7,1.3-0.2,1.9
				C193.5,248.6,192,248.7,191.2,248.2z M190.6,252.8c-0.8-0.5-0.7-1.3,0.2-1.9c1-0.6,2.4-0.6,3.3-0.1s0.7,1.3-0.2,1.9
				S191.5,253.3,190.6,252.8z M199.2,247.9c-0.8-0.5-0.7-1.3,0.2-1.9c1-0.6,2.4-0.6,3.3-0.1c0.8,0.5,0.7,1.3-0.2,1.9
				C201.5,248.3,200,248.4,199.2,247.9z M198.6,252.5c-0.8-0.5-0.7-1.3,0.2-1.9c1-0.6,2.4-0.6,3.3-0.1c0.8,0.5,0.7,1.3-0.2,1.9
				C200.9,252.9,199.5,253,198.6,252.5z"/>
		</g>
	</g>
	<g>
		<g>
			<polygon class="st1" points="284.6,278.1 231.2,307.7 177.8,278.1 231.2,248.5 			"/>
			<polygon class="st56" points="231.2,376.1 177.8,346.5 177.8,278.1 231.2,307.7 			"/>
			<polygon class="st57" points="284.6,346.5 231.2,376.1 231.2,307.7 284.6,278.1 			"/>
		</g>
		<path class="st58" d="M256.8,266.5c-11.9-6.6-30.3-7.1-41.2-1.1c-6,3.3-8.4,7.9-7.4,12.4c0,0-3.6,2.6-14.3,1.9
			c0,0,4.1,5.1,18.3,4.7c1.4,1.4,3.2,2.7,5.3,3.8c11.9,6.6,30.3,7.1,41.2,1.1C269.5,283.4,268.7,273.1,256.8,266.5z"/>
	</g>
	<g>
		<g>
			<polygon class="st59" points="338.1,309.5 284.7,340.4 231.2,309.5 284.7,278.7 			"/>
			<polygon class="st60" points="284.7,411.6 231.2,380.7 231.2,309.5 284.7,340.4 			"/>
			<polygon class="st61" points="338.1,380.7 284.7,411.6 284.7,340.4 338.1,309.5 			"/>
		</g>
		<g>
			<path class="st8" d="M312.4,306.8l-12.8,1.9c0.1,2.8-1.9,5.8-5.9,8.1c-0.5,0.3-1,0.5-1.5,0.8l6.2,5.9c1.3-0.6,2.5-1.2,3.7-1.9
				C309.5,317.4,313,311.9,312.4,306.8z"/>
			<g>
				<path class="st8" d="M270.7,318.3c-0.4-0.2-0.7-0.3-1-0.5c-6.2-3.6-5.4-9.8,1.7-13.9c7.1-4.1,17.9-4.6,24.1-1
					c1.9,1.1,3.2,2.5,3.7,3.9l12.8-1.9c-0.9-2.9-3.2-5.5-6.8-7.6c-10.8-6.2-29.7-5.4-42.2,1.7c-12.5,7.2-13.8,18.1-3,24.3
					c0.9,0.5,2,1,3,1.5L270.7,318.3z"/>
				<path class="st8" d="M289.3,318.8c-5.2,1.7-11.1,1.9-15.9,0.5l-7.7,6.5c8.8,2.7,20.1,2.3,29.7-1.1L289.3,318.8z"/>
			</g>
		</g>
	</g>
	<g>
		<g>
			<polygon class="st52" points="391.6,340.4 338.2,371.2 284.8,340.4 338.2,309.5 			"/>
			<polygon class="st53" points="338.2,442.4 284.8,411.6 284.8,340.4 338.2,371.2 			"/>
			<polygon class="st54" points="391.6,411.6 338.2,442.4 338.2,371.2 391.6,340.4 			"/>
		</g>
		<g>
			<polygon class="st37" points="344.9,357.5 307.4,335.8 332.5,321.3 370.1,343 			"/>
			<path class="st55" d="M369.4,342.6l-25-1.2c-5-0.3-8.7-2.4-9.2-5.3l-2.1-14.4l-0.6-0.4l-0.5,0.3l2.2,14.6c0.2,1.6,1.4,3,3.1,4
				c1.8,1,4.2,1.7,6.9,1.8l25.3,1.3l0.5-0.3L369.4,342.6z"/>
			<polygon class="st55" points="308,336.2 334.6,336.5 334.8,335.8 307.9,335.5 307.4,335.8 307.4,335.8 			"/>
			<polygon class="st55" points="345.5,357.2 344.9,341.7 343.8,341.8 344.3,357.2 344.9,357.5 344.9,357.5 			"/>
		</g>
	</g>
	<polygon class="st65" points="282.6,683.9 9,526 9,161.2 282.6,319.1 	"/>
	<path class="st51" d="M283,319.1v364.8L557,526V161.2L283,319.1z M512.1,246L512.1,246c-1.4,14.2-12.7,31.6-25.3,38.8l-124.4,71.8
		c-12.5,7.2-21.5,1.6-20.1-12.6v0c1.4-14.2,12.7-31.6,25.3-38.8L492,233.3C504.5,226.1,513.5,231.8,512.1,246z"/>
</g>
</svg>
