<?xml version="1.0" encoding="utf-8"?>
<!-- Generator: Adobe Illustrator 20.0.0, SVG Export Plug-In . SVG Version: 6.00 Build 0)  -->
<!DOCTYPE svg PUBLIC "-//W3C//DTD SVG 1.1//EN" "http://www.w3.org/Graphics/SVG/1.1/DTD/svg11.dtd">
<svg version="1.1" id="Layer_1" xmlns="http://www.w3.org/2000/svg" xmlns:xlink="http://www.w3.org/1999/xlink" x="0px" y="0px"
	 viewBox="0 0 177.6 220.3" style="enable-background:new 0 0 177.6 220.3;" xml:space="preserve">
<style type="text/css">
	.st0{fill:#091410;}
	.st1{fill:#1BA897;}
	.st2{fill:#FBEE2D;}
	.st3{fill:#D5C529;}
	.st4{fill:#C4B22F;}
	.st5{fill:#603240;}
	.st6{fill:#F1F2F2;}
	.st7{fill:#A52E23;}
	.st8{fill:#FFFFFF;}
	.st9{fill:#FDFEFE;}
	.st10{fill:#939598;}
	.st11{fill:#808285;}
	.st12{fill:#BCBEC0;}
	.st13{fill:#E6E7E8;}
	.st14{fill:#414042;}
	.st15{fill:#D1D3D4;}
	.st16{fill:#491B0D;}
	.st17{fill:#D84426;}
	.st18{fill:#93AC4C;}
	.st19{fill:#126F63;}
	.st20{fill:#E0C93A;}
	.st21{fill:#EF4423;}
	.st22{fill:#A09F9F;}
	.st23{fill:#AD4967;}
	.st24{fill:#85C441;}
	.st25{fill:#C53227;}
	.st26{fill:#7B7B7B;}
	.st27{fill:#B0B0B0;}
	.st28{fill:#4C4C4D;}
	.st29{fill:#8E8E8E;}
	.st30{fill:#BCBCBC;}
	.st31{fill:#212121;}
	.st32{fill:#DDDDDD;}
	.st33{fill:#B7B7B7;}
	.st34{fill:#F04A4A;}
	.st35{fill:#FDB523;}
	.st36{fill:#4AB749;}
	.st37{fill:#CCCCCB;}
	.st38{fill:#DBD622;}
	.st39{fill:#58C099;}
	.st40{fill:#4062AE;}
	.st41{fill:#D9D327;}
	.st42{fill:#4DA547;}
	.st43{fill:#49BB83;}
	.st44{fill:#6B50A1;}
	.st45{fill:#CD862A;}
	.st46{fill:#483E98;}
	.st47{fill:#A65926;}
	.st48{fill:#78C143;}
	.st49{fill:#32C0D1;}
	.st50{fill:#636464;}
	.st51{fill:#643584;}
	.st52{fill:#DC8727;}
	.st53{fill:#B56C29;}
	.st54{fill:#CC7A29;}
	.st55{fill:#A3A1A1;}
	.st56{fill:#167F70;}
	.st57{fill:#1AAF9A;}
	.st58{fill:#DCDBDB;}
	.st59{fill:#6BBE45;}
	.st60{fill:#43AF49;}
	.st61{fill:#62A844;}
	.st62{fill:#CE2E27;}
	.st63{fill:#8F1D1D;}
	.st64{fill:#BA2626;}
	.st65{fill:#753C97;}
	.st66{fill:#4D2966;}
	.st67{fill:#D9E028;}
	.st68{fill:#A3A537;}
	.st69{fill:#C5C62F;}
	.st70{fill:#B69830;}
	.st71{fill:#DDA82F;}
	.st72{fill:#D29B3C;}
	.st73{fill:#CB922B;}
	.st74{fill:#963D97;}
	.st75{fill:#833677;}
	.st76{fill:#973D8F;}
	.st77{fill:#83367E;}
	.st78{fill:#14475D;}
	.st79{fill:#06ABCD;}
	.st80{fill:#D0CECF;}
	.st81{fill:#D8D8D8;}
	.st82{opacity:0.4;}
	.st83{fill:#ACA99F;}
	.st84{fill:#367D93;}
	.st85{fill:#EEEAE1;}
	.st86{fill:#45ABCC;}
	.st87{fill:url(#SVGID_1_);}
	.st88{fill:url(#SVGID_2_);}
	.st89{fill:#789DA9;}
	.st90{fill:url(#SVGID_3_);}
	.st91{fill:url(#SVGID_4_);}
	.st92{fill:#63BBCC;}
	.st93{fill:#2D7482;}
	.st94{fill:#126C5F;}
	.st95{fill:#158372;}
	.st96{fill:#1A9684;}
	.st97{fill:#39B54A;}
</style>
<g>
	<polygon class="st94" points="176.1,168.2 89,117.9 89,1.8 176.1,52.1 	"/>
	<polygon class="st66" points="176.1,168.2 89,218.5 1.9,168.2 89,117.9 	"/>
	<path class="st1" d="M1.5,52.2v116.1l88-50.3V2L1.5,52.2z M74.7,29L74.7,29c-0.5,4.5-4.1,10.1-8,12.4L27,64.2c-4,2.3-6.8,0.5-6.4-4
		v0c0.5-4.5,4.1-10.1,8-12.4l39.6-22.9C72.2,22.6,75.1,24.4,74.7,29z"/>
	<g>
		<g>
			<polygon class="st62" points="106,40.6 89,50.4 72,40.6 89,30.8 			"/>
			<polygon class="st63" points="89,73.1 72,63.3 72,40.6 89,50.4 			"/>
			<polygon class="st64" points="106,63.3 89,73.1 89,50.4 106,40.6 			"/>
		</g>
		<g>
			<path class="st8" d="M90.5,46.7l-0.7-0.4c-0.8-0.5-1.2-1.2-0.9-1.7l1.3-3.3l5.3,2l-3.2,3.4C92,47,91.1,47.1,90.5,46.7z"/>
			<path class="st8" d="M77.4,39.1l0.4,0.2c0.8,0.5,2,0.7,2.9,0.5l6.1-0.5l-3.5-3l-5.8,1.8C76.8,38.3,76.8,38.8,77.4,39.1z"/>
			<path class="st8" d="M97.3,39.4c-0.5-0.3-1-0.5-1.7-0.5l-4.7-2.7c-0.1-0.4-0.5-0.7-0.9-1c-1.5-0.9-4.2-0.8-5.9,0.2
				c-1.8,1-1.9,2.5-0.4,3.4c0.7,0.4,1.6,0.6,2.5,0.6l3.7,2.2c0,0.5,0.3,1.1,1,1.5c1.5,0.9,4.2,0.8,5.9-0.2
				C98.6,41.9,98.8,40.3,97.3,39.4z M87.8,37.6L87,37.1l-1,0.6l-0.7-0.4l1-0.6l-0.9-0.5l0.8-0.5l0.9,0.5l0.9-0.5l0.7,0.4l-0.9,0.5
				l0.8,0.5L87.8,37.6z M93,40.8c-0.3-0.2-0.2-0.4,0.1-0.6c0.3-0.2,0.8-0.2,1,0c0.3,0.2,0.2,0.4-0.1,0.6C93.7,41,93.2,41,93,40.8z
				 M92.8,42.3c-0.3-0.2-0.2-0.4,0.1-0.6c0.3-0.2,0.8-0.2,1,0c0.3,0.2,0.2,0.4-0.1,0.6C93.5,42.4,93.1,42.5,92.8,42.3z M95.5,40.7
				c-0.3-0.2-0.2-0.4,0.1-0.6c0.3-0.2,0.8-0.2,1,0c0.3,0.2,0.2,0.4-0.1,0.6C96.3,40.9,95.8,40.9,95.5,40.7z M95.3,42.2
				c-0.3-0.2-0.2-0.4,0.1-0.6c0.3-0.2,0.8-0.2,1,0c0.3,0.2,0.2,0.4-0.1,0.6C96.1,42.3,95.6,42.4,95.3,42.2z"/>
		</g>
	</g>
	<g>
		<g>
			<polygon class="st1" points="123.3,50.3 106.3,59.8 89.3,50.3 106.3,40.9 			"/>
			<polygon class="st56" points="106.3,81.5 89.3,72.1 89.3,50.3 106.3,59.8 			"/>
			<polygon class="st57" points="123.3,72.1 106.3,81.5 106.3,59.8 123.3,50.3 			"/>
		</g>
		<path class="st58" d="M114.2,46.8c-3.8-2.1-9.7-2.2-13.1-0.3c-1.9,1.1-2.7,2.5-2.4,4c0,0-1.2,0.8-4.6,0.6c0,0,1.3,1.6,5.8,1.5
			c0.5,0.4,1,0.8,1.7,1.2c3.8,2.1,9.7,2.2,13.1,0.3C118.3,52.2,118,48.9,114.2,46.8z"/>
	</g>
	<g>
		<g>
			<polygon class="st59" points="140.4,60 123.4,69.8 106.4,60 123.4,50.2 			"/>
			<polygon class="st60" points="123.4,92.5 106.4,82.7 106.4,60 123.4,69.8 			"/>
			<polygon class="st61" points="140.4,82.7 123.4,92.5 123.4,69.8 140.4,60 			"/>
		</g>
		<g>
			<path class="st8" d="M131.9,59.3l-4.1,0.6c0,0.9-0.6,1.8-1.9,2.6c-0.2,0.1-0.3,0.2-0.5,0.3l2,1.9c0.4-0.2,0.8-0.4,1.2-0.6
				C131,62.7,132.1,60.9,131.9,59.3z"/>
			<g>
				<path class="st8" d="M118.7,63c-0.1-0.1-0.2-0.1-0.3-0.2c-2-1.1-1.7-3.1,0.6-4.4s5.7-1.5,7.7-0.3c0.6,0.4,1,0.8,1.2,1.3l4.1-0.6
					c-0.3-0.9-1-1.7-2.2-2.4c-3.4-2-9.5-1.7-13.4,0.6s-4.4,5.8-1,7.8c0.3,0.2,0.6,0.3,1,0.5L118.7,63z"/>
				<path class="st8" d="M124.6,63.1c-1.6,0.5-3.5,0.6-5.1,0.2l-2.4,2.1c2.8,0.9,6.4,0.7,9.5-0.4L124.6,63.1z"/>
			</g>
		</g>
	</g>
	<g>
		<g>
			<polygon class="st59" points="89.1,50.4 72.1,60.3 55.1,50.4 72.1,40.6 			"/>
			<polygon class="st60" points="72.1,82.9 55.1,73.1 55.1,50.4 72.1,60.3 			"/>
			<polygon class="st61" points="89.1,73.1 72.1,82.9 72.1,60.3 89.1,50.4 			"/>
		</g>
		<g>
			<path class="st8" d="M80.7,49.8l-4.1,0.6c0,0.9-0.6,1.8-1.9,2.6c-0.2,0.1-0.3,0.2-0.5,0.3l2,1.9c0.4-0.2,0.8-0.4,1.2-0.6
				C79.7,53.1,80.9,51.4,80.7,49.8z"/>
			<g>
				<path class="st8" d="M67.4,53.4c-0.1-0.1-0.2-0.1-0.3-0.2c-2-1.1-1.7-3.1,0.6-4.4s5.7-1.5,7.7-0.3c0.6,0.4,1,0.8,1.2,1.3
					l4.1-0.6c-0.3-0.9-1-1.7-2.2-2.4c-3.4-2-9.5-1.7-13.4,0.6s-4.4,5.8-1,7.8c0.3,0.2,0.6,0.3,1,0.5L67.4,53.4z"/>
				<path class="st8" d="M73.3,53.6c-1.6,0.5-3.5,0.6-5.1,0.2l-2.4,2.1c2.8,0.9,6.4,0.7,9.5-0.4L73.3,53.6z"/>
			</g>
		</g>
	</g>
	<g>
		<g>
			<polygon class="st67" points="158,70.1 141,79.9 124,70.1 141,60.3 			"/>
			<polygon class="st68" points="141,102.6 124,92.7 124,70.1 141,79.9 			"/>
			<polygon class="st69" points="158,92.7 141,102.6 141,79.9 158,70.1 			"/>
		</g>
		<g>
			<path class="st8" d="M147.9,69.9c-2.2,1.3-5.5,1.4-7.5,0.3c-1.9-1.1-1.7-3,0.5-4.3s5.5-1.4,7.5-0.3
				C150.4,66.7,150.2,68.6,147.9,69.9z"/>
			<path class="st8" d="M141.7,76.1c1.6-2,1.1-4.3-1.5-5.8c-2.5-1.5-6.4-1.8-10-0.8L141.7,76.1z"/>
		</g>
	</g>
	<g>
		<g>
			<polygon class="st52" points="174.9,81.3 157.9,91.1 140.9,81.3 157.9,71.5 			"/>
			<polygon class="st53" points="157.9,113.8 140.9,104 140.9,81.3 157.9,91.1 			"/>
			<polygon class="st54" points="174.9,104 157.9,113.8 157.9,91.1 174.9,81.3 			"/>
		</g>
		<g>
			<polygon class="st37" points="160.1,86.7 148.1,79.8 156.1,75.2 168.1,82.1 			"/>
			<path class="st55" d="M167.6,82.2l-8-0.4c-1.6-0.1-2.8-0.8-2.9-1.7l-0.7-4.6l-0.2-0.1l-0.2,0.1l0.7,4.7c0.1,0.5,0.4,0.9,1,1.3
				c0.6,0.3,1.3,0.5,2.2,0.6l8.1,0.4l0.2-0.1L167.6,82.2z"/>
			<polygon class="st55" points="148,80.3 156.5,80.3 156.6,80.1 148,80.1 147.8,80.4 147.8,80.4 			"/>
			<polygon class="st55" points="160,86.8 159.8,81.9 159.4,81.9 159.6,86.8 159.8,86.9 159.8,86.9 			"/>
		</g>
	</g>
	<g>
		<g>
			<polygon class="st52" points="106.5,60.9 89.5,70.7 72.5,60.9 89.5,51.1 			"/>
			<polygon class="st53" points="89.5,93.4 72.5,83.6 72.5,60.9 89.5,70.7 			"/>
			<polygon class="st54" points="106.5,83.6 89.5,93.4 89.5,70.7 106.5,60.9 			"/>
		</g>
		<g>
			<polygon class="st37" points="91.6,66.4 79.7,59.5 87.7,54.8 99.6,61.7 			"/>
			<path class="st55" d="M99.1,61.8l-8-0.4c-1.6-0.1-2.8-0.8-2.9-1.7l-0.7-4.6L87.4,55l-0.2,0.1l0.7,4.7c0.1,0.5,0.4,0.9,1,1.3
				c0.6,0.3,1.3,0.5,2.2,0.6l8.1,0.4l0.2-0.1L99.1,61.8z"/>
			<polygon class="st55" points="79.6,60.1 88.1,60 88.1,59.7 79.6,59.9 79.4,60.4 79.4,60.4 			"/>
			<polygon class="st55" points="91.5,66.4 91.3,61.5 91,61.5 91.2,66.4 91.3,66.5 91.3,66.5 			"/>
		</g>
	</g>
	<g>
		<g>
			<polygon class="st62" points="123.3,69.9 106.3,79.8 89.3,69.9 106.3,60.1 			"/>
			<polygon class="st63" points="106.3,102.4 89.3,92.6 89.3,69.9 106.3,79.8 			"/>
			<polygon class="st64" points="123.3,92.6 106.3,102.4 106.3,79.8 123.3,69.9 			"/>
		</g>
		<g>
			<path class="st8" d="M107.9,76.1l-0.7-0.4c-0.8-0.5-1.2-1.2-0.9-1.7l1.3-3.3l5.3,2l-3.2,3.4C109.3,76.4,108.5,76.4,107.9,76.1z"
				/>
			<path class="st8" d="M94.7,68.5l0.4,0.2c0.8,0.5,2,0.7,2.9,0.5l6.1-0.5l-3.5-3l-5.8,1.8C94.2,67.7,94.2,68.2,94.7,68.5z"/>
			<path class="st8" d="M114.7,68.8c-0.5-0.3-1-0.5-1.7-0.5l-4.7-2.7c-0.1-0.4-0.5-0.7-0.9-1c-1.5-0.9-4.2-0.8-5.9,0.2
				c-1.8,1-1.9,2.5-0.4,3.4c0.7,0.4,1.6,0.6,2.5,0.6l3.7,2.2c0,0.5,0.3,1.1,1,1.5c1.5,0.9,4.2,0.8,5.9-0.2
				C116,71.2,116.2,69.7,114.7,68.8z M105.1,66.9l-0.8-0.5l-1,0.6l-0.7-0.4l1-0.6l-0.9-0.5l0.8-0.5l0.9,0.5l0.9-0.5l0.7,0.4
				l-0.9,0.5l0.8,0.5L105.1,66.9z M110.3,70.2c-0.3-0.2-0.2-0.4,0.1-0.6c0.3-0.2,0.8-0.2,1,0c0.3,0.2,0.2,0.4-0.1,0.6
				C111.1,70.3,110.6,70.3,110.3,70.2z M110.2,71.7c-0.3-0.2-0.2-0.4,0.1-0.6c0.3-0.2,0.8-0.2,1,0s0.2,0.4-0.1,0.6
				C110.9,71.8,110.4,71.8,110.2,71.7z M112.9,70.1c-0.3-0.2-0.2-0.4,0.1-0.6c0.3-0.2,0.8-0.2,1,0c0.3,0.2,0.2,0.4-0.1,0.6
				C113.6,70.2,113.2,70.2,112.9,70.1z M112.7,71.5c-0.3-0.2-0.2-0.4,0.1-0.6c0.3-0.2,0.8-0.2,1,0c0.3,0.2,0.2,0.4-0.1,0.6
				C113.4,71.7,113,71.7,112.7,71.5z"/>
		</g>
	</g>
	<g>
		<g>
			<polygon class="st1" points="139.6,80.3 122.6,89.7 105.6,80.3 122.6,70.8 			"/>
			<polygon class="st56" points="122.6,111.5 105.6,102 105.6,80.3 122.6,89.7 			"/>
			<polygon class="st57" points="139.6,102 122.6,111.5 122.6,89.7 139.6,80.3 			"/>
		</g>
		<path class="st58" d="M130.5,76.7c-3.8-2.1-9.7-2.2-13.1-0.3c-1.9,1.1-2.7,2.5-2.4,4c0,0-1.2,0.8-4.6,0.6c0,0,1.3,1.6,5.8,1.5
			c0.5,0.4,1,0.8,1.7,1.2c3.8,2.1,9.7,2.2,13.1,0.3C134.5,82.1,134.2,78.8,130.5,76.7z"/>
	</g>
	<g>
		<g>
			<polygon class="st1" points="72.1,59.9 55.1,69.3 38.1,59.9 55.1,50.4 			"/>
			<polygon class="st56" points="55.1,91.1 38.1,81.7 38.1,59.9 55.1,69.3 			"/>
			<polygon class="st57" points="72.1,81.7 55.1,91.1 55.1,69.3 72.1,59.9 			"/>
		</g>
		<path class="st58" d="M63,56.4c-3.8-2.1-9.7-2.2-13.1-0.3c-1.9,1.1-2.7,2.5-2.4,4c0,0-1.2,0.8-4.6,0.6c0,0,1.3,1.6,5.8,1.5
			c0.5,0.4,1,0.8,1.7,1.2c3.8,2.1,9.7,2.2,13.1,0.3C67,61.7,66.7,58.5,63,56.4z"/>
	</g>
	<g>
		<g>
			<polygon class="st67" points="156.1,88.5 139.1,98.4 122,88.5 139.1,78.7 			"/>
			<polygon class="st68" points="139.1,121 122,111.2 122,88.5 139.1,98.4 			"/>
			<polygon class="st69" points="156.1,111.2 139.1,121 139.1,98.4 156.1,88.5 			"/>
		</g>
		<g>
			<path class="st8" d="M146,88.4c-2.2,1.3-5.5,1.4-7.5,0.3c-1.9-1.1-1.7-3,0.5-4.3s5.5-1.4,7.5-0.3C148.5,85.2,148.2,87.1,146,88.4
				z"/>
			<path class="st8" d="M139.8,94.6c1.6-2,1.1-4.3-1.5-5.8s-6.4-1.8-10-0.8L139.8,94.6z"/>
		</g>
	</g>
	<g>
		<g>
			<polygon class="st67" points="89.2,69.8 72.2,79.6 55.2,69.8 72.2,59.9 			"/>
			<polygon class="st68" points="72.2,102.2 55.2,92.4 55.2,69.8 72.2,79.6 			"/>
			<polygon class="st69" points="89.2,92.4 72.2,102.2 72.2,79.6 89.2,69.8 			"/>
		</g>
		<g>
			<path class="st8" d="M79.2,69.6c-2.2,1.3-5.5,1.4-7.5,0.3c-1.9-1.1-1.7-3,0.5-4.3c2.2-1.3,5.5-1.4,7.5-0.3
				C81.6,66.4,81.4,68.3,79.2,69.6z"/>
			<path class="st8" d="M72.9,75.8c1.6-2,1.1-4.3-1.5-5.8c-2.5-1.5-6.4-1.8-10-0.8L72.9,75.8z"/>
		</g>
	</g>
	<g>
		<g>
			<polygon class="st67" points="55.1,69.8 38.1,79.6 21.1,69.8 38.1,59.9 			"/>
			<polygon class="st68" points="38.1,102.2 21.1,92.4 21.1,69.8 38.1,79.6 			"/>
			<polygon class="st69" points="55.1,92.4 38.1,102.2 38.1,79.6 55.1,69.8 			"/>
		</g>
		<g>
			<path class="st8" d="M45.1,69.6c-2.2,1.3-5.5,1.4-7.5,0.3c-1.9-1.1-1.7-3,0.5-4.3c2.2-1.3,5.5-1.4,7.5-0.3
				C47.6,66.4,47.3,68.3,45.1,69.6z"/>
			<path class="st8" d="M38.8,75.8c1.6-2,1.1-4.3-1.5-5.8c-2.5-1.5-6.4-1.8-10-0.8L38.8,75.8z"/>
		</g>
	</g>
	<g>
		<g>
			<polygon class="st59" points="106.6,79.7 89.6,89.6 72.6,79.7 89.6,69.9 			"/>
			<polygon class="st60" points="89.6,112.2 72.6,102.4 72.6,79.7 89.6,89.6 			"/>
			<polygon class="st61" points="106.6,102.4 89.6,112.2 89.6,89.6 106.6,79.7 			"/>
		</g>
		<g>
			<path class="st8" d="M98.2,79.1l-4.1,0.6c0,0.9-0.6,1.8-1.9,2.6c-0.2,0.1-0.3,0.2-0.5,0.3l2,1.9c0.4-0.2,0.8-0.4,1.2-0.6
				C97.3,82.4,98.4,80.7,98.2,79.1z"/>
			<g>
				<path class="st8" d="M84.9,82.7c-0.1-0.1-0.2-0.1-0.3-0.2c-2-1.1-1.7-3.1,0.6-4.4c2.3-1.3,5.7-1.5,7.7-0.3
					c0.6,0.4,1,0.8,1.2,1.3l4.1-0.6c-0.3-0.9-1-1.7-2.2-2.4c-3.4-2-9.5-1.7-13.4,0.6s-4.4,5.8-1,7.8c0.3,0.2,0.6,0.3,1,0.5
					L84.9,82.7z"/>
				<path class="st8" d="M90.8,82.9c-1.6,0.5-3.5,0.6-5.1,0.2l-2.4,2.1c2.8,0.9,6.4,0.7,9.5-0.4L90.8,82.9z"/>
			</g>
		</g>
	</g>
	<g>
		<g>
			<polygon class="st52" points="123.7,89.6 106.7,99.4 89.7,89.6 106.7,79.7 			"/>
			<polygon class="st53" points="106.7,122.1 89.7,112.2 89.7,89.6 106.7,99.4 			"/>
			<polygon class="st54" points="123.7,112.2 106.7,122.1 106.7,99.4 123.7,89.6 			"/>
		</g>
		<g>
			<polygon class="st37" points="108.8,95 96.8,88.1 104.9,83.5 116.8,90.4 			"/>
			<path class="st55" d="M116.3,90.5l-8-0.4c-1.6-0.1-2.8-0.8-2.9-1.7l-0.7-4.6l-0.2-0.1l-0.2,0.1l0.7,4.7c0.1,0.5,0.4,0.9,1,1.3
				c0.6,0.3,1.3,0.5,2.2,0.6l8.1,0.4l0.2-0.1L116.3,90.5z"/>
			<polygon class="st55" points="96.8,88.4 105.3,88.5 105.3,88.3 96.8,88.2 96.6,88.4 96.6,88.4 			"/>
			<polygon class="st55" points="108.7,95.1 108.5,90.2 108.2,90.2 108.4,95.1 108.5,95.2 108.5,95.2 			"/>
		</g>
	</g>
	<g>
		<g>
			<polygon class="st62" points="140.9,100.1 123.9,109.9 106.9,100.1 123.9,90.3 			"/>
			<polygon class="st63" points="123.9,132.6 106.9,122.8 106.9,100.1 123.9,109.9 			"/>
			<polygon class="st64" points="140.9,122.8 123.9,132.6 123.9,109.9 140.9,100.1 			"/>
		</g>
		<g>
			<path class="st8" d="M125.4,106.3l-0.7-0.4c-0.8-0.5-1.2-1.2-0.9-1.7l1.3-3.3l5.3,2l-3.2,3.4C126.9,106.6,126,106.6,125.4,106.3z
				"/>
			<path class="st8" d="M112.3,98.7l0.4,0.2c0.8,0.5,2,0.7,2.9,0.5l6.1-0.5l-3.5-3l-5.8,1.8C111.7,97.8,111.7,98.3,112.3,98.7z"/>
			<path class="st8" d="M132.2,99c-0.5-0.3-1-0.5-1.7-0.5l-4.7-2.7c-0.1-0.4-0.5-0.7-0.9-1c-1.5-0.9-4.2-0.8-5.9,0.2
				c-1.8,1-1.9,2.5-0.4,3.4c0.7,0.4,1.6,0.6,2.5,0.6l3.7,2.2c0,0.5,0.3,1.1,1,1.5c1.5,0.9,4.2,0.8,5.9-0.2
				C133.5,101.4,133.7,99.8,132.2,99z M122.7,97.1l-0.8-0.5l-1,0.6l-0.7-0.4l1-0.6l-0.9-0.5l0.8-0.5l0.9,0.5l0.9-0.5l0.7,0.4
				l-0.9,0.5l0.8,0.5L122.7,97.1z M127.9,100.4c-0.3-0.2-0.2-0.4,0.1-0.6c0.3-0.2,0.8-0.2,1,0c0.3,0.2,0.2,0.4-0.1,0.6
				C128.6,100.5,128.2,100.5,127.9,100.4z M127.7,101.8c-0.3-0.2-0.2-0.4,0.1-0.6c0.3-0.2,0.8-0.2,1,0c0.3,0.2,0.2,0.4-0.1,0.6
				S128,102,127.7,101.8z M130.4,100.2c-0.3-0.2-0.2-0.4,0.1-0.6c0.3-0.2,0.8-0.2,1,0c0.3,0.2,0.2,0.4-0.1,0.6
				C131.2,100.4,130.7,100.4,130.4,100.2z M130.3,101.7c-0.3-0.2-0.2-0.4,0.1-0.6c0.3-0.2,0.8-0.2,1,0c0.3,0.2,0.2,0.4-0.1,0.6
				C131,101.9,130.5,101.9,130.3,101.7z"/>
		</g>
	</g>
	<g>
		<g>
			<polygon class="st62" points="72.6,79.6 55.6,89.4 38.6,79.6 55.6,69.8 			"/>
			<polygon class="st63" points="55.6,112.1 38.6,102.3 38.6,79.6 55.6,89.4 			"/>
			<polygon class="st64" points="72.6,102.3 55.6,112.1 55.6,89.4 72.6,79.6 			"/>
		</g>
		<g>
			<path class="st8" d="M57.1,85.7l-0.7-0.4c-0.8-0.5-1.2-1.2-0.9-1.7l1.3-3.3l5.3,2l-3.2,3.4C58.6,86,57.7,86.1,57.1,85.7z"/>
			<path class="st8" d="M44,78.1l0.4,0.2c0.8,0.5,2,0.7,2.9,0.5l6.1-0.5l-3.5-3L44,77.1C43.4,77.3,43.4,77.8,44,78.1z"/>
			<path class="st8" d="M63.9,78.4c-0.5-0.3-1-0.5-1.7-0.5l-4.7-2.7c-0.1-0.4-0.5-0.7-0.9-1c-1.5-0.9-4.2-0.8-5.9,0.2
				c-1.8,1-1.9,2.5-0.4,3.4c0.7,0.4,1.6,0.6,2.5,0.6l3.7,2.2c0,0.5,0.3,1.1,1,1.5c1.5,0.9,4.2,0.8,5.9-0.2
				C65.2,80.9,65.4,79.3,63.9,78.4z M54.4,76.6l-0.8-0.5l-1,0.6l-0.7-0.4l1-0.6L52,75.2l0.8-0.5l0.9,0.5l0.9-0.5l0.7,0.4l-0.9,0.5
				l0.8,0.5L54.4,76.6z M59.6,79.8c-0.3-0.2-0.2-0.4,0.1-0.6c0.3-0.2,0.8-0.2,1,0c0.3,0.2,0.2,0.4-0.1,0.6
				C60.3,80,59.9,80,59.6,79.8z M59.4,81.3c-0.3-0.2-0.2-0.4,0.1-0.6c0.3-0.2,0.8-0.2,1,0s0.2,0.4-0.1,0.6
				C60.1,81.4,59.7,81.5,59.4,81.3z M62.1,79.7c-0.3-0.2-0.2-0.4,0.1-0.6c0.3-0.2,0.8-0.2,1,0c0.3,0.2,0.2,0.4-0.1,0.6
				C62.9,79.9,62.4,79.9,62.1,79.7z M62,81.2c-0.3-0.2-0.2-0.4,0.1-0.6c0.3-0.2,0.8-0.2,1,0c0.3,0.2,0.2,0.4-0.1,0.6
				C62.7,81.3,62.2,81.3,62,81.2z"/>
		</g>
	</g>
	<g>
		<g>
			<polygon class="st1" points="89.6,89.2 72.6,98.6 55.6,89.2 72.6,79.7 			"/>
			<polygon class="st56" points="72.6,120.4 55.6,110.9 55.6,89.2 72.6,98.6 			"/>
			<polygon class="st57" points="89.6,110.9 72.6,120.4 72.6,98.6 89.6,89.2 			"/>
		</g>
		<path class="st58" d="M80.5,85.7c-3.8-2.1-9.7-2.2-13.1-0.3c-1.9,1.1-2.7,2.5-2.4,4c0,0-1.2,0.8-4.6,0.6c0,0,1.3,1.6,5.8,1.5
			c0.5,0.4,1,0.8,1.7,1.2c3.8,2.1,9.7,2.2,13.1,0.3S84.3,87.8,80.5,85.7z"/>
	</g>
	<g>
		<g>
			<polygon class="st59" points="106.6,99.2 89.6,109 72.6,99.2 89.6,89.3 			"/>
			<polygon class="st60" points="89.6,131.7 72.6,121.8 72.6,99.2 89.6,109 			"/>
			<polygon class="st61" points="106.6,121.8 89.6,131.7 89.6,109 106.6,99.2 			"/>
		</g>
		<g>
			<path class="st8" d="M98.2,98.5l-4.1,0.6c0,0.9-0.6,1.8-1.9,2.6c-0.2,0.1-0.3,0.2-0.5,0.3l2,1.9c0.4-0.2,0.8-0.4,1.2-0.6
				C97.3,101.9,98.4,100.1,98.2,98.5z"/>
			<g>
				<path class="st8" d="M84.9,102.1c-0.1-0.1-0.2-0.1-0.3-0.2c-2-1.1-1.7-3.1,0.6-4.4s5.7-1.5,7.7-0.3c0.6,0.4,1,0.8,1.2,1.3
					l4.1-0.6c-0.3-0.9-1-1.7-2.2-2.4c-3.4-2-9.5-1.7-13.4,0.6s-4.4,5.8-1,7.8c0.3,0.2,0.6,0.3,1,0.5L84.9,102.1z"/>
				<path class="st8" d="M90.8,102.3c-1.6,0.5-3.5,0.6-5.1,0.2l-2.4,2.1c2.8,0.9,6.4,0.7,9.5-0.4L90.8,102.3z"/>
			</g>
		</g>
	</g>
	<g>
		<g>
			<polygon class="st52" points="123.7,109 106.7,118.8 89.7,109 106.7,99.2 			"/>
			<polygon class="st53" points="106.7,141.5 89.7,131.7 89.7,109 106.7,118.8 			"/>
			<polygon class="st54" points="123.7,131.7 106.7,141.5 106.7,118.8 123.7,109 			"/>
		</g>
		<g>
			<polygon class="st37" points="108.8,114.4 96.8,107.5 104.9,102.9 116.8,109.8 			"/>
			<path class="st55" d="M116.3,109.9l-8-0.4c-1.6-0.1-2.8-0.8-2.9-1.7l-0.7-4.6l-0.2-0.1l-0.2,0.1l0.7,4.7c0.1,0.5,0.4,0.9,1,1.3
				c0.6,0.3,1.3,0.5,2.2,0.6l8.1,0.4l0.2-0.1L116.3,109.9z"/>
			<polygon class="st55" points="96.8,107.6 105.3,107.8 105.3,107.7 96.8,107.4 96.6,107.4 96.6,107.4 			"/>
			<polygon class="st55" points="108.7,114.5 108.5,109.6 108.2,109.6 108.4,114.5 108.5,114.6 108.5,114.6 			"/>
		</g>
	</g>
	<polygon class="st95" points="89,218.4 1.9,168.1 1.9,51.9 89,102.2 	"/>
	<path class="st96" d="M88.5,102.4v116.1l87-50.3V52.1L88.5,102.4z M161,79.1L161,79.1c-0.5,4.5-4.1,10.1-8,12.4l-39.6,22.9
		c-4,2.3-6.8,0.5-6.4-4v0c0.5-4.5,4.1-10.1,8-12.4l39.6-22.9C158.6,72.8,161.5,74.6,161,79.1z"/>
</g>
</svg>
