<?xml version="1.0" encoding="utf-8"?>
<!-- Generator: Adobe Illustrator 20.0.0, SVG Export Plug-In . SVG Version: 6.00 Build 0)  -->
<!DOCTYPE svg PUBLIC "-//W3C//DTD SVG 1.1//EN" "http://www.w3.org/Graphics/SVG/1.1/DTD/svg11.dtd">
<svg version="1.1" id="Layer_1" xmlns="http://www.w3.org/2000/svg" xmlns:xlink="http://www.w3.org/1999/xlink" x="0px" y="0px"
	 viewBox="0 0 273.7 331" style="enable-background:new 0 0 273.7 331;" xml:space="preserve">
<style type="text/css">
	.st0{fill:#091410;}
	.st1{fill:#1BA897;}
	.st2{fill:#FBEE2D;}
	.st3{fill:#D5C529;}
	.st4{fill:#C4B22F;}
	.st5{fill:#603240;}
	.st6{fill:#F1F2F2;}
	.st7{fill:#A52E23;}
	.st8{fill:#FFFFFF;}
	.st9{fill:#FDFEFE;}
	.st10{fill:#939598;}
	.st11{fill:#808285;}
	.st12{fill:#BCBEC0;}
	.st13{fill:#E6E7E8;}
	.st14{fill:#414042;}
	.st15{fill:#D1D3D4;}
	.st16{fill:#491B0D;}
	.st17{fill:#D84426;}
	.st18{fill:#93AC4C;}
	.st19{fill:#126F63;}
	.st20{fill:#E0C93A;}
	.st21{fill:#EF4423;}
	.st22{fill:#A09F9F;}
	.st23{fill:#AD4967;}
	.st24{fill:#85C441;}
	.st25{fill:#C53227;}
	.st26{fill:#7B7B7B;}
	.st27{fill:#B0B0B0;}
	.st28{fill:#4C4C4D;}
	.st29{fill:#8E8E8E;}
	.st30{fill:#BCBCBC;}
	.st31{fill:#212121;}
	.st32{fill:#DDDDDD;}
	.st33{fill:#B7B7B7;}
	.st34{fill:#F04A4A;}
	.st35{fill:#FDB523;}
	.st36{fill:#4AB749;}
	.st37{fill:#CCCCCB;}
	.st38{fill:#DBD622;}
	.st39{fill:#58C099;}
	.st40{fill:#4062AE;}
	.st41{fill:#D9D327;}
	.st42{fill:#4DA547;}
	.st43{fill:#49BB83;}
	.st44{fill:#6B50A1;}
	.st45{fill:#CD862A;}
	.st46{fill:#483E98;}
	.st47{fill:#A65926;}
	.st48{fill:#78C143;}
	.st49{fill:#32C0D1;}
	.st50{fill:#636464;}
	.st51{fill:#643584;}
	.st52{fill:#DC8727;}
	.st53{fill:#B56C29;}
	.st54{fill:#CC7A29;}
	.st55{fill:#A3A1A1;}
	.st56{fill:#167F70;}
	.st57{fill:#1AAF9A;}
	.st58{fill:#DCDBDB;}
	.st59{fill:#6BBE45;}
	.st60{fill:#43AF49;}
	.st61{fill:#62A844;}
	.st62{fill:#CE2E27;}
	.st63{fill:#8F1D1D;}
	.st64{fill:#BA2626;}
	.st65{fill:#753C97;}
	.st66{fill:#4D2966;}
	.st67{fill:#D9E028;}
	.st68{fill:#A3A537;}
	.st69{fill:#C5C62F;}
	.st70{fill:#B69830;}
	.st71{fill:#DDA82F;}
	.st72{fill:#D29B3C;}
	.st73{fill:#CB922B;}
	.st74{fill:#963D97;}
	.st75{fill:#833677;}
	.st76{fill:#973D8F;}
	.st77{fill:#83367E;}
	.st78{fill:#14475D;}
	.st79{fill:#06ABCD;}
	.st80{fill:#D0CECF;}
	.st81{fill:#D8D8D8;}
	.st82{opacity:0.4;}
	.st83{fill:#ACA99F;}
	.st84{fill:#367D93;}
	.st85{fill:#EEEAE1;}
	.st86{fill:#45ABCC;}
	.st87{fill:url(#SVGID_1_);}
	.st88{fill:url(#SVGID_2_);}
	.st89{fill:#789DA9;}
	.st90{fill:url(#SVGID_3_);}
	.st91{fill:url(#SVGID_4_);}
	.st92{fill:#63BBCC;}
	.st93{fill:#2D7482;}
	.st94{fill:#126C5F;}
	.st95{fill:#158372;}
	.st96{fill:#1A9684;}
	.st97{fill:#39B54A;}
</style>
<g>
	<polygon class="st70" points="268.9,253.6 136.6,177.3 136.6,1 268.9,77.3 	"/>
	<polygon class="st66" points="268.9,253.6 136.6,330 4.4,253.6 136.6,177.3 	"/>
	<path class="st71" d="M4,77.3v176.3l132-76.3V1L4,77.3z M115.3,42L115.3,42c-0.7,6.9-6.2,15.3-12.2,18.8L43,95.4
		c-6,3.5-10.4,0.8-9.7-6.1v0c0.7-6.9,6.2-15.3,12.2-18.8l60.1-34.7C111.7,32.4,116,35.1,115.3,42z"/>
	<g>
		<g>
			<polygon class="st62" points="162.5,59.9 136.6,74.8 110.8,59.9 136.6,45 			"/>
			<polygon class="st63" points="136.6,109.3 110.8,94.4 110.8,59.9 136.6,74.8 			"/>
			<polygon class="st64" points="162.5,94.4 136.6,109.3 136.6,74.8 162.5,59.9 			"/>
		</g>
		<g>
			<path class="st8" d="M139,69.2l-1.1-0.6c-1.3-0.7-1.8-1.8-1.4-2.6l1.9-5l8,3.1l-4.8,5.1C141.2,69.7,139.9,69.7,139,69.2z"/>
			<path class="st8" d="M119.1,57.7l0.5,0.3c1.3,0.7,3,1.1,4.5,0.8l9.2-0.8l-5.4-4.6l-8.8,2.8C118.2,56.4,118.2,57.2,119.1,57.7z"/>
			<path class="st8" d="M149.7,57.9c-0.7-0.4-1.6-0.7-2.6-0.8L140,53c-0.2-0.6-0.7-1.1-1.4-1.5c-2.3-1.3-6.3-1.2-9,0.4
				c-2.7,1.5-3,3.9-0.6,5.2c1,0.6,2.4,0.9,3.9,0.9l5.7,3.3c0,0.8,0.5,1.6,1.6,2.2c2.3,1.3,6.3,1.2,9-0.4
				C151.7,61.6,152,59.2,149.7,57.9z M135.2,55.1l-1.2-0.7l-1.6,0.9l-1-0.6l1.6-0.9l-1.4-0.8l1.2-0.7l1.4,0.8l1.4-0.8l1,0.6
				l-1.4,0.8l1.2,0.7L135.2,55.1z M143.1,60c-0.4-0.2-0.4-0.6,0.1-0.9c0.5-0.3,1.2-0.3,1.6-0.1c0.4,0.2,0.4,0.6-0.1,0.9
				C144.3,60.2,143.5,60.3,143.1,60z M142.9,62.3c-0.4-0.2-0.4-0.6,0.1-0.9c0.5-0.3,1.2-0.3,1.6-0.1c0.4,0.2,0.4,0.6-0.1,0.9
				C144,62.5,143.3,62.5,142.9,62.3z M147,59.9c-0.4-0.2-0.4-0.6,0.1-0.9c0.5-0.3,1.2-0.3,1.6-0.1c0.4,0.2,0.4,0.6-0.1,0.9
				C148.1,60.1,147.4,60.1,147,59.9z M146.7,62.1c-0.4-0.2-0.4-0.6,0.1-0.9c0.5-0.3,1.2-0.3,1.6-0.1c0.4,0.2,0.4,0.6-0.1,0.9
				C147.8,62.3,147.1,62.3,146.7,62.1z"/>
		</g>
	</g>
	<g>
		<g>
			<polygon class="st1" points="188.8,74.7 163,89 137.2,74.7 163,60.4 			"/>
			<polygon class="st56" points="163,122.1 137.2,107.8 137.2,74.7 163,89 			"/>
			<polygon class="st57" points="188.8,107.8 163,122.1 163,89 188.8,74.7 			"/>
		</g>
		<path class="st58" d="M175.4,69.1c-5.7-3.2-14.7-3.4-19.9-0.5c-2.9,1.6-4,3.8-3.6,6c0,0-1.7,1.3-6.9,0.9c0,0,2,2.5,8.8,2.3
			c0.7,0.7,1.5,1.3,2.6,1.9c5.7,3.2,14.7,3.4,19.9,0.5S181.1,72.3,175.4,69.1z"/>
	</g>
	<g>
		<g>
			<polygon class="st59" points="214.7,89.4 188.9,104.3 163.1,89.4 188.9,74.5 			"/>
			<polygon class="st60" points="188.9,138.7 163.1,123.8 163.1,89.4 188.9,104.3 			"/>
			<polygon class="st61" points="214.7,123.8 188.9,138.7 188.9,104.3 214.7,89.4 			"/>
		</g>
		<g>
			<path class="st8" d="M202.3,88.1l-6.2,0.9c0,1.3-0.9,2.8-2.8,3.9c-0.2,0.1-0.5,0.3-0.7,0.4l3,2.9c0.6-0.3,1.2-0.6,1.8-0.9
				C200.9,93.2,202.6,90.5,202.3,88.1z"/>
			<g>
				<path class="st8" d="M182.1,93.6c-0.2-0.1-0.3-0.2-0.5-0.3c-3-1.7-2.6-4.7,0.8-6.7c3.4-2,8.7-2.2,11.6-0.5
					c0.9,0.5,1.5,1.2,1.8,1.9l6.2-0.9c-0.4-1.4-1.5-2.7-3.3-3.7c-5.2-3-14.4-2.6-20.4,0.8c-6,3.5-6.7,8.8-1.5,11.8
					c0.5,0.3,0.9,0.5,1.5,0.7L182.1,93.6z"/>
				<path class="st8" d="M191.1,93.9c-2.5,0.8-5.4,0.9-7.7,0.3l-3.7,3.2c4.2,1.3,9.7,1.1,14.4-0.5L191.1,93.9z"/>
			</g>
		</g>
	</g>
	<g>
		<g>
			<polygon class="st59" points="136.9,74.9 111.1,89.8 85.2,74.9 111.1,60 			"/>
			<polygon class="st60" points="111.1,124.2 85.2,109.3 85.2,74.9 111.1,89.8 			"/>
			<polygon class="st61" points="136.9,109.3 111.1,124.2 111.1,89.8 136.9,74.9 			"/>
		</g>
		<g>
			<path class="st8" d="M124.5,73.6l-6.2,0.9c0,1.3-0.9,2.8-2.8,3.9c-0.2,0.1-0.5,0.3-0.7,0.4l3,2.9c0.6-0.3,1.2-0.6,1.8-0.9
				C123.1,78.7,124.7,76,124.5,73.6z"/>
			<g>
				<path class="st8" d="M104.3,79.1c-0.2-0.1-0.3-0.2-0.5-0.3c-3-1.7-2.6-4.7,0.8-6.7c3.4-2,8.7-2.2,11.6-0.5
					c0.9,0.5,1.5,1.2,1.8,1.9l6.2-0.9c-0.4-1.4-1.5-2.7-3.3-3.7c-5.2-3-14.4-2.6-20.4,0.8c-6,3.5-6.7,8.8-1.5,11.8
					c0.5,0.3,0.9,0.5,1.5,0.7L104.3,79.1z"/>
				<path class="st8" d="M113.3,79.4c-2.5,0.8-5.4,0.9-7.7,0.3l-3.7,3.2c4.2,1.3,9.7,1.1,14.4-0.5L113.3,79.4z"/>
			</g>
		</g>
	</g>
	<g>
		<g>
			<polygon class="st67" points="241.4,104.7 215.6,119.6 189.8,104.7 215.6,89.8 			"/>
			<polygon class="st68" points="215.6,154 189.8,139.1 189.8,104.7 215.6,119.6 			"/>
			<polygon class="st69" points="241.4,139.1 215.6,154 215.6,119.6 241.4,104.7 			"/>
		</g>
		<g>
			<path class="st8" d="M226.2,104.4c-3.4,1.9-8.4,2.1-11.3,0.5c-2.9-1.7-2.5-4.6,0.8-6.5c3.4-1.9,8.4-2.1,11.3-0.5
				C229.9,99.6,229.5,102.5,226.2,104.4z"/>
			<path class="st8" d="M217.1,113.6c2.4-3.1,1.7-6.5-2.2-8.7c-3.9-2.2-9.7-2.7-15.1-1.3L217.1,113.6z"/>
		</g>
	</g>
	<g>
		<g>
			<polygon class="st52" points="267.2,121.7 241.3,136.6 215.5,121.7 241.3,106.8 			"/>
			<polygon class="st53" points="241.3,171 215.5,156.1 215.5,121.7 241.3,136.6 			"/>
			<polygon class="st54" points="267.2,156.1 241.3,171 241.3,136.6 267.2,121.7 			"/>
		</g>
		<g>
			<polygon class="st37" points="244.6,130 226.4,119.5 238.6,112.5 256.7,123 			"/>
			<path class="st55" d="M256.4,122.8l-12.1-0.6c-2.4-0.1-4.2-1.1-4.4-2.6l-1-7l-0.3-0.2l-0.3,0.1l1.1,7.1c0.1,0.8,0.7,1.4,1.5,1.9
				c0.9,0.5,2,0.8,3.3,0.9l12.2,0.6l0.3-0.1L256.4,122.8z"/>
			<polygon class="st55" points="226.7,119.7 239.6,119.8 239.7,119.5 226.7,119.3 226.4,119.5 226.4,119.5 			"/>
			<polygon class="st55" points="244.9,129.8 244.6,122.3 244,122.4 244.3,129.8 244.6,130 244.6,130 			"/>
		</g>
	</g>
	<g>
		<g>
			<polygon class="st52" points="163.2,90.8 137.4,105.7 111.6,90.8 137.4,75.9 			"/>
			<polygon class="st53" points="137.4,140.1 111.6,125.2 111.6,90.8 137.4,105.7 			"/>
			<polygon class="st54" points="163.2,125.2 137.4,140.1 137.4,105.7 163.2,90.8 			"/>
		</g>
		<g>
			<polygon class="st37" points="140.7,99 122.5,88.6 134.7,81.5 152.8,92 			"/>
			<path class="st55" d="M152.5,91.8l-12.1-0.6c-2.4-0.1-4.2-1.1-4.4-2.6l-1-7l-0.3-0.2l-0.3,0.1l1.1,7.1c0.1,0.8,0.7,1.4,1.5,1.9
				c0.9,0.5,2,0.8,3.3,0.9l12.2,0.6l0.3-0.1L152.5,91.8z"/>
			<polygon class="st55" points="122.8,88.7 135.7,88.9 135.8,88.6 122.8,88.4 122.5,88.6 122.5,88.6 			"/>
			<polygon class="st55" points="140.9,98.9 140.7,91.4 140.1,91.4 140.4,98.9 140.7,99 140.7,99 			"/>
		</g>
	</g>
	<g>
		<g>
			<polygon class="st62" points="188.8,104.5 163,119.4 137.2,104.5 163,89.6 			"/>
			<polygon class="st63" points="163,153.8 137.2,138.9 137.2,104.5 163,119.4 			"/>
			<polygon class="st64" points="188.8,138.9 163,153.8 163,119.4 188.8,104.5 			"/>
		</g>
		<g>
			<path class="st8" d="M165.4,113.8l-1.1-0.6c-1.3-0.7-1.8-1.8-1.4-2.6l1.9-5l8,3.1l-4.8,5.1C167.6,114.3,166.3,114.3,165.4,113.8z
				"/>
			<path class="st8" d="M145.4,102.3l0.5,0.3c1.3,0.7,3,1.1,4.5,0.8l9.2-0.8l-5.4-4.6l-8.8,2.8C144.6,101,144.6,101.8,145.4,102.3z"
				/>
			<path class="st8" d="M176.1,102.5c-0.7-0.4-1.6-0.7-2.6-0.8l-7.1-4.1c-0.2-0.6-0.7-1.1-1.4-1.5c-2.3-1.3-6.3-1.2-9,0.4
				c-2.7,1.5-3,3.9-0.6,5.2c1,0.6,2.4,0.9,3.9,0.9l5.7,3.3c0,0.8,0.5,1.6,1.6,2.2c2.3,1.3,6.3,1.2,9-0.4
				C178.1,106.1,178.4,103.8,176.1,102.5z M161.6,99.6l-1.2-0.7l-1.6,0.9l-1-0.6l1.6-0.9l-1.4-0.8l1.2-0.7l1.4,0.8l1.4-0.8l1,0.6
				l-1.4,0.8l1.2,0.7L161.6,99.6z M169.5,104.6c-0.4-0.2-0.4-0.6,0.1-0.9s1.2-0.3,1.6-0.1c0.4,0.2,0.4,0.6-0.1,0.9
				C170.6,104.8,169.9,104.8,169.5,104.6z M169.2,106.8c-0.4-0.2-0.4-0.6,0.1-0.9c0.5-0.3,1.2-0.3,1.6-0.1c0.4,0.2,0.4,0.6-0.1,0.9
				C170.4,107,169.6,107,169.2,106.8z M173.4,104.4c-0.4-0.2-0.4-0.6,0.1-0.9c0.5-0.3,1.2-0.3,1.6-0.1s0.4,0.6-0.1,0.9
				C174.5,104.6,173.8,104.6,173.4,104.4z M173.1,106.6c-0.4-0.2-0.4-0.6,0.1-0.9c0.5-0.3,1.2-0.3,1.6-0.1s0.4,0.6-0.1,0.9
				C174.2,106.8,173.5,106.9,173.1,106.6z"/>
		</g>
	</g>
	<g>
		<g>
			<polygon class="st1" points="213.5,120.1 187.7,134.4 161.9,120.1 187.7,105.8 			"/>
			<polygon class="st56" points="187.7,167.5 161.9,153.2 161.9,120.1 187.7,134.4 			"/>
			<polygon class="st57" points="213.5,153.2 187.7,167.5 187.7,134.4 213.5,120.1 			"/>
		</g>
		<path class="st58" d="M200,114.5c-5.7-3.2-14.7-3.4-19.9-0.5c-2.9,1.6-4,3.8-3.6,6c0,0-1.7,1.3-6.9,0.9c0,0,2,2.5,8.8,2.3
			c0.7,0.7,1.5,1.3,2.6,1.9c5.7,3.2,14.7,3.4,19.9,0.5C206.2,122.7,205.8,117.7,200,114.5z"/>
	</g>
	<g>
		<g>
			<polygon class="st1" points="111,89.2 85.2,103.5 59.4,89.2 85.2,74.9 			"/>
			<polygon class="st56" points="85.2,136.6 59.4,122.2 59.4,89.2 85.2,103.5 			"/>
			<polygon class="st57" points="111,122.3 85.2,136.6 85.2,103.5 111,89.2 			"/>
		</g>
		<path class="st58" d="M97.6,83.6c-5.7-3.2-14.7-3.4-19.9-0.5c-2.9,1.6-4,3.8-3.6,6c0,0-1.7,1.3-6.9,0.9c0,0,2,2.5,8.8,2.3
			c0.7,0.7,1.5,1.3,2.6,1.9c5.7,3.2,14.7,3.4,19.9,0.5C103.7,91.7,103.3,86.8,97.6,83.6z"/>
	</g>
	<g>
		<g>
			<polygon class="st67" points="238.5,132.7 212.7,147.6 186.9,132.7 212.7,117.8 			"/>
			<polygon class="st68" points="212.7,182 186.9,167.1 186.9,132.7 212.7,147.6 			"/>
			<polygon class="st69" points="238.5,167.1 212.7,182 212.7,147.6 238.5,132.7 			"/>
		</g>
		<g>
			<path class="st8" d="M223.3,132.5c-3.4,1.9-8.4,2.1-11.3,0.5c-2.9-1.7-2.5-4.6,0.8-6.5c3.4-1.9,8.4-2.1,11.3-0.5
				C227,127.6,226.6,130.5,223.3,132.5z"/>
			<path class="st8" d="M214.2,141.6c2.4-3.1,1.7-6.5-2.2-8.7s-9.7-2.7-15.1-1.3L214.2,141.6z"/>
		</g>
	</g>
	<g>
		<g>
			<polygon class="st67" points="137,104.2 111.2,119.1 85.4,104.2 111.2,89.3 			"/>
			<polygon class="st68" points="111.2,153.5 85.4,138.6 85.4,104.2 111.2,119.1 			"/>
			<polygon class="st69" points="137,138.6 111.2,153.5 111.2,119.1 137,104.2 			"/>
		</g>
		<g>
			<path class="st8" d="M121.8,103.9c-3.4,1.9-8.4,2.1-11.3,0.5c-2.9-1.7-2.5-4.6,0.8-6.5s8.4-2.1,11.3-0.5
				C125.5,99.1,125.1,102,121.8,103.9z"/>
			<path class="st8" d="M112.7,113.1c2.4-3.1,1.7-6.5-2.2-8.7s-9.7-2.7-15.1-1.3L112.7,113.1z"/>
		</g>
	</g>
	<g>
		<g>
			<polygon class="st67" points="85.3,104.2 59.5,119.1 33.7,104.2 59.5,89.3 			"/>
			<polygon class="st68" points="59.5,153.5 33.7,138.6 33.7,104.2 59.5,119.1 			"/>
			<polygon class="st69" points="85.3,138.6 59.5,153.5 59.5,119.1 85.3,104.2 			"/>
		</g>
		<g>
			<path class="st8" d="M70.1,103.9c-3.4,1.9-8.4,2.1-11.3,0.5c-2.9-1.7-2.5-4.6,0.8-6.5s8.4-2.1,11.3-0.5
				C73.8,99.1,73.4,102,70.1,103.9z"/>
			<path class="st8" d="M61,113.1c2.4-3.1,1.7-6.5-2.2-8.7s-9.7-2.7-15.1-1.3L61,113.1z"/>
		</g>
	</g>
	<g>
		<g>
			<polygon class="st59" points="163.5,119.3 137.6,134.3 111.8,119.3 137.6,104.4 			"/>
			<polygon class="st60" points="137.6,168.7 111.8,153.8 111.8,119.3 137.6,134.3 			"/>
			<polygon class="st61" points="163.5,153.8 137.6,168.7 137.6,134.3 163.5,119.3 			"/>
		</g>
		<g>
			<path class="st8" d="M151.1,118l-6.2,0.9c0,1.3-0.9,2.8-2.8,3.9c-0.2,0.1-0.5,0.3-0.7,0.4l3,2.9c0.6-0.3,1.2-0.6,1.8-0.9
				C149.6,123.2,151.3,120.5,151.1,118z"/>
			<g>
				<path class="st8" d="M130.9,123.6c-0.2-0.1-0.3-0.2-0.5-0.3c-3-1.7-2.6-4.7,0.8-6.7c3.4-2,8.7-2.2,11.6-0.5
					c0.9,0.5,1.5,1.2,1.8,1.9l6.2-0.9c-0.4-1.4-1.5-2.7-3.3-3.7c-5.2-3-14.4-2.6-20.4,0.8c-6,3.5-6.7,8.8-1.5,11.8
					c0.5,0.3,0.9,0.5,1.5,0.7L130.9,123.6z"/>
				<path class="st8" d="M139.9,123.8c-2.5,0.8-5.4,0.9-7.7,0.3l-3.7,3.2c4.2,1.3,9.7,1.1,14.4-0.5L139.9,123.8z"/>
			</g>
		</g>
	</g>
	<g>
		<g>
			<polygon class="st52" points="189.3,134.3 163.5,149.2 137.7,134.3 163.5,119.4 			"/>
			<polygon class="st53" points="163.5,183.6 137.7,168.7 137.7,134.3 163.5,149.2 			"/>
			<polygon class="st54" points="189.3,168.7 163.5,183.6 163.5,149.2 189.3,134.3 			"/>
		</g>
		<g>
			<polygon class="st37" points="166.8,142.5 148.6,132.1 160.8,125 178.9,135.5 			"/>
			<path class="st55" d="M178.6,135.3l-12.1-0.6c-2.4-0.1-4.2-1.1-4.4-2.6l-1-7l-0.3-0.2l-0.3,0.1l1.1,7.1c0.1,0.8,0.7,1.4,1.5,1.9
				c0.9,0.5,2,0.8,3.3,0.9l12.2,0.6l0.3-0.1L178.6,135.3z"/>
			<polygon class="st55" points="148.9,132.2 161.8,132.4 161.9,132.1 148.9,131.9 148.6,132.1 148.6,132.1 			"/>
			<polygon class="st55" points="167,142.4 166.8,134.9 166.2,134.9 166.5,142.4 166.8,142.5 166.8,142.5 			"/>
		</g>
	</g>
	<g>
		<g>
			<polygon class="st62" points="215.5,150.3 189.7,165.2 163.8,150.3 189.7,135.4 			"/>
			<polygon class="st63" points="189.7,199.6 163.8,184.7 163.8,150.3 189.7,165.2 			"/>
			<polygon class="st64" points="215.5,184.7 189.7,199.6 189.7,165.2 215.5,150.3 			"/>
		</g>
		<g>
			<path class="st8" d="M192,159.6L191,159c-1.3-0.7-1.8-1.8-1.4-2.6l1.9-5l8,3.1l-4.8,5.1C194.2,160.1,192.9,160.1,192,159.6z"/>
			<path class="st8" d="M172.1,148.1l0.5,0.3c1.3,0.7,3,1.1,4.5,0.8l9.2-0.8l-5.4-4.6l-8.8,2.8C171.2,146.8,171.2,147.6,172.1,148.1
				z"/>
			<path class="st8" d="M202.7,148.3c-0.7-0.4-1.6-0.7-2.6-0.8l-7.1-4.1c-0.2-0.6-0.7-1.1-1.4-1.5c-2.3-1.3-6.3-1.2-9,0.4
				c-2.7,1.5-3,3.9-0.6,5.2c1,0.6,2.4,0.9,3.9,0.9l5.7,3.3c0,0.8,0.5,1.6,1.6,2.2c2.3,1.3,6.3,1.2,9-0.4
				C204.7,151.9,205,149.6,202.7,148.3z M188.3,145.4l-1.2-0.7l-1.6,0.9l-1-0.6l1.6-0.9l-1.4-0.8l1.2-0.7l1.4,0.8l1.4-0.8l1,0.6
				l-1.4,0.8l1.2,0.7L188.3,145.4z M196.1,150.4c-0.4-0.2-0.4-0.6,0.1-0.9c0.5-0.3,1.2-0.3,1.6-0.1c0.4,0.2,0.4,0.6-0.1,0.9
				C197.3,150.6,196.6,150.6,196.1,150.4z M195.9,152.6c-0.4-0.2-0.4-0.6,0.1-0.9c0.5-0.3,1.2-0.3,1.6-0.1s0.4,0.6-0.1,0.9
				C197,152.8,196.3,152.8,195.9,152.6z M200,150.2c-0.4-0.2-0.4-0.6,0.1-0.9c0.5-0.3,1.2-0.3,1.6-0.1s0.4,0.6-0.1,0.9
				C201.1,150.4,200.4,150.4,200,150.2z M199.7,152.4c-0.4-0.2-0.4-0.6,0.1-0.9c0.5-0.3,1.2-0.3,1.6-0.1c0.4,0.2,0.4,0.6-0.1,0.9
				C200.9,152.6,200.1,152.7,199.7,152.4z"/>
		</g>
	</g>
	<g>
		<g>
			<polygon class="st62" points="111.8,119.1 86,134 60.2,119.1 86,104.2 			"/>
			<polygon class="st63" points="86,168.4 60.2,153.5 60.2,119.1 86,134 			"/>
			<polygon class="st64" points="111.8,153.5 86,168.4 86,134 111.8,119.1 			"/>
		</g>
		<g>
			<path class="st8" d="M88.3,128.4l-1.1-0.6c-1.3-0.7-1.8-1.8-1.4-2.6l1.9-5l8,3.1l-4.8,5.1C90.5,128.9,89.2,128.9,88.3,128.4z"/>
			<path class="st8" d="M68.4,116.9l0.5,0.3c1.3,0.7,3,1.1,4.5,0.8l9.2-0.8l-5.4-4.6l-8.8,2.8C67.5,115.6,67.5,116.4,68.4,116.9z"/>
			<path class="st8" d="M99,117.1c-0.7-0.4-1.6-0.7-2.6-0.8l-7.1-4.1c-0.2-0.6-0.7-1.1-1.4-1.5c-2.3-1.3-6.3-1.2-9,0.4
				c-2.7,1.5-3,3.9-0.6,5.2c1,0.6,2.4,0.9,3.9,0.9l5.7,3.3c0,0.8,0.5,1.6,1.6,2.2c2.3,1.3,6.3,1.2,9-0.4
				C101,120.8,101.3,118.4,99,117.1z M84.6,114.2l-1.2-0.7l-1.6,0.9l-1-0.6l1.6-0.9l-1.4-0.8l1.2-0.7l1.4,0.8l1.4-0.8l1,0.6
				l-1.4,0.8l1.2,0.7L84.6,114.2z M92.5,119.2c-0.4-0.2-0.4-0.6,0.1-0.9c0.5-0.3,1.2-0.3,1.6-0.1c0.4,0.2,0.4,0.6-0.1,0.9
				C93.6,119.4,92.9,119.4,92.5,119.2z M92.2,121.4c-0.4-0.2-0.4-0.6,0.1-0.9c0.5-0.3,1.2-0.3,1.6-0.1s0.4,0.6-0.1,0.9
				C93.3,121.6,92.6,121.7,92.2,121.4z M96.3,119c-0.4-0.2-0.4-0.6,0.1-0.9c0.5-0.3,1.2-0.3,1.6-0.1c0.4,0.2,0.4,0.6-0.1,0.9
				C97.5,119.2,96.7,119.3,96.3,119z M96.1,121.3c-0.4-0.2-0.4-0.6,0.1-0.9c0.5-0.3,1.2-0.3,1.6-0.1c0.4,0.2,0.4,0.6-0.1,0.9
				C97.2,121.5,96.5,121.5,96.1,121.3z"/>
		</g>
	</g>
	<g>
		<g>
			<polygon class="st1" points="137.6,133.7 111.8,148 86,133.7 111.8,119.3 			"/>
			<polygon class="st56" points="111.8,181 86,166.7 86,133.7 111.8,148 			"/>
			<polygon class="st57" points="137.6,166.7 111.8,181 111.8,148 137.6,133.7 			"/>
		</g>
		<path class="st58" d="M124.2,128.1c-5.7-3.2-14.7-3.4-19.9-0.5c-2.9,1.6-4,3.8-3.6,6c0,0-1.7,1.3-6.9,0.9c0,0,2,2.5,8.8,2.3
			c0.7,0.7,1.5,1.3,2.6,1.9c5.7,3.2,14.7,3.4,19.9,0.5C130.3,136.2,129.9,131.2,124.2,128.1z"/>
	</g>
	<g>
		<g>
			<polygon class="st59" points="163.5,148.8 137.6,163.7 111.8,148.8 137.6,133.9 			"/>
			<polygon class="st60" points="137.6,198.2 111.8,183.3 111.8,148.8 137.6,163.7 			"/>
			<polygon class="st61" points="163.5,183.3 137.6,198.2 137.6,163.7 163.5,148.8 			"/>
		</g>
		<g>
			<path class="st8" d="M151.1,147.5l-6.2,0.9c0,1.3-0.9,2.8-2.8,3.9c-0.2,0.1-0.5,0.3-0.7,0.4l3,2.9c0.6-0.3,1.2-0.6,1.8-0.9
				C149.6,152.6,151.3,150,151.1,147.5z"/>
			<g>
				<path class="st8" d="M130.9,153.1c-0.2-0.1-0.3-0.2-0.5-0.3c-3-1.7-2.6-4.7,0.8-6.7c3.4-2,8.7-2.2,11.6-0.5
					c0.9,0.5,1.5,1.2,1.8,1.9l6.2-0.9c-0.4-1.4-1.5-2.7-3.3-3.7c-5.2-3-14.4-2.6-20.4,0.8c-6,3.5-6.7,8.8-1.5,11.8
					c0.5,0.3,0.9,0.5,1.5,0.7L130.9,153.1z"/>
				<path class="st8" d="M139.9,153.3c-2.5,0.8-5.4,0.9-7.7,0.3l-3.7,3.2c4.2,1.3,9.7,1.1,14.4-0.5L139.9,153.3z"/>
			</g>
		</g>
	</g>
	<g>
		<g>
			<polygon class="st52" points="189.3,163.7 163.5,178.7 137.7,163.7 163.5,148.8 			"/>
			<polygon class="st53" points="163.5,213.1 137.7,198.2 137.7,163.7 163.5,178.7 			"/>
			<polygon class="st54" points="189.3,198.2 163.5,213.1 163.5,178.7 189.3,163.7 			"/>
		</g>
		<g>
			<polygon class="st37" points="166.8,172 148.6,161.5 160.8,154.5 178.9,165 			"/>
			<path class="st55" d="M178.6,164.8l-12.1-0.6c-2.4-0.1-4.2-1.1-4.4-2.6l-1-7l-0.3-0.2l-0.3,0.1l1.1,7.1c0.1,0.8,0.7,1.4,1.5,1.9
				c0.9,0.5,2,0.8,3.3,0.9l12.2,0.6l0.3-0.1L178.6,164.8z"/>
			<polygon class="st55" points="148.9,161.7 161.8,161.9 161.9,161.6 148.9,161.4 148.6,161.5 148.6,161.5 			"/>
			<polygon class="st55" points="167,171.9 166.8,164.4 166.2,164.4 166.5,171.9 166.8,172 166.8,172 			"/>
		</g>
	</g>
	<polygon class="st72" points="136.7,329.8 4.4,253.4 4.4,77.1 136.7,153.5 	"/>
	<path class="st73" d="M136,153.5v176.3l133-76.3V77.1L136,153.5z M247.5,118.1L247.5,118.1c-0.7,6.9-6.2,15.3-12.2,18.8l-60.1,34.7
		c-6,3.5-10.4,0.8-9.7-6.1v0c0.7-6.9,6.2-15.3,12.2-18.8l60.1-34.7C243.9,108.5,248.2,111.3,247.5,118.1z"/>
</g>
</svg>
