<?xml version="1.0" encoding="utf-8"?>
<!-- Generator: Adobe Illustrator 20.0.0, SVG Export Plug-In . SVG Version: 6.00 Build 0)  -->
<!DOCTYPE svg PUBLIC "-//W3C//DTD SVG 1.1//EN" "http://www.w3.org/Graphics/SVG/1.1/DTD/svg11.dtd">
<svg version="1.1" id="Layer_1" xmlns="http://www.w3.org/2000/svg" xmlns:xlink="http://www.w3.org/1999/xlink" x="0px" y="0px"
	 viewBox="0 0 983.4 879.3" style="enable-background:new 0 0 983.4 879.3;" xml:space="preserve">
<style type="text/css">
	.st0{fill:#091410;}
	.st1{fill:#1BA897;}
	.st2{fill:#FBEE2D;}
	.st3{fill:#D5C529;}
	.st4{fill:#C4B22F;}
	.st5{fill:#603240;}
	.st6{fill:#F1F2F2;}
	.st7{fill:#A52E23;}
	.st8{fill:#FFFFFF;}
	.st9{fill:#FDFEFE;}
	.st10{fill:#939598;}
	.st11{fill:#808285;}
	.st12{fill:#BCBEC0;}
	.st13{fill:#E6E7E8;}
	.st14{fill:#414042;}
	.st15{fill:#D1D3D4;}
	.st16{fill:#491B0D;}
	.st17{fill:#D84426;}
	.st18{fill:#93AC4C;}
	.st19{fill:#126F63;}
	.st20{fill:#E0C93A;}
	.st21{fill:#EF4423;}
	.st22{fill:#A09F9F;}
	.st23{fill:#AD4967;}
	.st24{fill:#85C441;}
	.st25{fill:#C53227;}
	.st26{fill:#7B7B7B;}
	.st27{fill:#B0B0B0;}
	.st28{fill:#4C4C4D;}
	.st29{fill:#8E8E8E;}
	.st30{fill:#BCBCBC;}
	.st31{fill:#212121;}
	.st32{fill:#DDDDDD;}
	.st33{fill:#B7B7B7;}
	.st34{fill:#F04A4A;}
	.st35{fill:#FDB523;}
	.st36{fill:#4AB749;}
	.st37{fill:#CCCCCB;}
	.st38{fill:#DBD622;}
	.st39{fill:#58C099;}
	.st40{fill:#4062AE;}
	.st41{fill:#D9D327;}
	.st42{fill:#4DA547;}
	.st43{fill:#49BB83;}
	.st44{fill:#6B50A1;}
	.st45{fill:#CD862A;}
	.st46{fill:#483E98;}
	.st47{fill:#A65926;}
	.st48{fill:#78C143;}
	.st49{fill:#32C0D1;}
	.st50{fill:#636464;}
	.st51{fill:#643584;}
	.st52{fill:#DC8727;}
	.st53{fill:#B56C29;}
	.st54{fill:#CC7A29;}
	.st55{fill:#A3A1A1;}
	.st56{fill:#167F70;}
	.st57{fill:#1AAF9A;}
	.st58{fill:#DCDBDB;}
	.st59{fill:#6BBE45;}
	.st60{fill:#43AF49;}
	.st61{fill:#62A844;}
	.st62{fill:#CE2E27;}
	.st63{fill:#8F1D1D;}
	.st64{fill:#BA2626;}
	.st65{fill:#753C97;}
	.st66{fill:#4D2966;}
	.st67{fill:#D9E028;}
	.st68{fill:#A3A537;}
	.st69{fill:#C5C62F;}
	.st70{fill:#B69830;}
	.st71{fill:#DDA82F;}
	.st72{fill:#D29B3C;}
	.st73{fill:#CB922B;}
	.st74{fill:#963D97;}
	.st75{fill:#833677;}
	.st76{fill:#973D8F;}
	.st77{fill:#83367E;}
	.st78{fill:#14475D;}
	.st79{fill:#06ABCD;}
	.st80{fill:#D0CECF;}
	.st81{fill:#D8D8D8;}
	.st82{opacity:0.4;}
	.st83{fill:#ACA99F;}
	.st84{fill:#367D93;}
	.st85{fill:#EEEAE1;}
	.st86{fill:#45ABCC;}
	.st87{fill:url(#SVGID_1_);}
	.st88{fill:url(#SVGID_2_);}
	.st89{fill:#789DA9;}
	.st90{fill:url(#SVGID_3_);}
	.st91{fill:url(#SVGID_4_);}
	.st92{fill:#63BBCC;}
	.st93{fill:#2D7482;}
	.st94{fill:url(#SVGID_5_);}
	.st95{fill:url(#SVGID_6_);}
	.st96{fill:url(#SVGID_7_);}
	.st97{fill:url(#SVGID_8_);}
	.st98{fill:#126C5F;}
	.st99{fill:#158372;}
	.st100{fill:#1A9684;}
	.st101{fill:#39B54A;}
</style>
<g>
	<g>
		<polygon class="st83" points="186.1,861.1 9,758.8 9,337.8 186.1,440.1 		"/>
		<polygon class="st84" points="167.3,488.9 27.8,408.4 27.8,377.4 167.3,457.9 		"/>
		<polygon class="st84" points="167.3,552.8 27.8,472.3 27.8,441.3 167.3,521.8 		"/>
		<polygon class="st84" points="167.3,616.7 27.8,536.1 27.8,505.2 167.3,585.7 		"/>
		<polygon class="st84" points="167.3,680.5 27.8,600 27.8,569 167.3,649.6 		"/>
		<polygon class="st84" points="167.3,744.4 27.8,663.9 27.8,632.9 167.3,713.4 		"/>
		<polygon class="st84" points="167.3,808.3 27.8,727.8 27.8,696.8 167.3,777.3 		"/>
	</g>
	<g>
		<polygon class="st85" points="769.8,870.1 769.8,449.1 974.5,330.9 974.5,751.9 		"/>
		<polygon class="st86" points="956,401.2 788.2,498.2 788.2,467.2 956,370.3 		"/>
		<polygon class="st86" points="956,465.1 788.2,562.1 788.2,531.1 956,434.1 		"/>
		<polygon class="st86" points="956,529 788.2,626 788.2,595 956,498 		"/>
		<polygon class="st86" points="956,592.9 788.2,689.8 788.2,658.8 956,561.9 		"/>
		<polygon class="st86" points="956,656.8 788.2,753.7 788.2,722.7 956,625.8 		"/>
		<polygon class="st86" points="956,720.7 788.2,817.6 788.2,786.6 956,689.7 		"/>
	</g>
	<g>
		<linearGradient id="SVGID_1_" gradientUnits="userSpaceOnUse" x1="235.7793" y1="624.7937" x2="750.0263" y2="624.7937">
			<stop  offset="0" style="stop-color:#3B97AD"/>
			<stop  offset="1" style="stop-color:#3B97AD"/>
		</linearGradient>
		<path class="st87" d="M687.3,512.6c-93-53.7-255.3-46.9-362.7,15c-107.3,62-119,155.7-26,209.4c93,53.7,255.3,46.9,362.7-15
			S780.2,566.2,687.3,512.6z M375.8,692.4c-56-32.3-49-88.8,15.7-126.1c64.7-37.3,162.4-41.4,218.4-9.1c56,32.3,49,88.8-15.7,126.1
			C529.6,720.7,431.8,724.7,375.8,692.4z"/>
	</g>
	<linearGradient id="SVGID_2_" gradientUnits="userSpaceOnUse" x1="235.4424" y1="432.3716" x2="750.4424" y2="432.3716">
		<stop  offset="0" style="stop-color:#3B97AD"/>
		<stop  offset="1" style="stop-color:#3B97AD"/>
	</linearGradient>
	<polygon class="st88" points="750.4,136.1 750.4,607.7 584.3,725.7 417.6,728.6 283.8,680.5 235.4,648 235.4,180.2 412,262.6 
		538.4,257.4 682.6,185.3 	"/>
	<path class="st89" d="M974.5,330.9L747.6,200c8.1-40.2-11.8-79.8-61-108.2c-49.2-28.4-117.7-39.9-187.4-35.2l0,0l-0.3,0
		c-61.9,4.2-124.6,21.1-175.1,50.3c-49.5,28.6-78.6,63.9-86.6,98.9l-1.6,0.9L9,337.6l177.2,102.3l172-99.3
		c65,17.3,144.9,15.6,216.6-4.2L769.9,449L974.5,330.9z"/>
	<g>
		<linearGradient id="SVGID_3_" gradientUnits="userSpaceOnUse" x1="234.8376" y1="204.7102" x2="749.0846" y2="204.7102">
			<stop  offset="0" style="stop-color:#3B97AD"/>
			<stop  offset="1" style="stop-color:#3B97AD"/>
		</linearGradient>
		<path class="st90" d="M686.3,92.5c-93-53.7-255.3-46.9-362.7,15c-52.7,30.4-82.4,68.5-87.9,105.8c0,0.3-0.1,0.5-0.1,0.8
			c-5.3,38.3,15,75.7,61.9,102.8c93,53.7,255.3,46.9,362.7-15C767.6,239.9,779.3,146.2,686.3,92.5z M374.9,272.3
			c-56-32.3-49-88.8,15.7-126.1c64.7-37.3,162.4-41.4,218.4-9.1s49,88.8-15.7,126.1C528.7,300.6,430.9,304.6,374.9,272.3z"/>
	</g>
	<g>
		<polygon class="st83" points="769.8,870.1 575,757.6 575,336.6 769.8,449.1 		"/>
		<polygon class="st84" points="752.1,498.6 592.7,406.6 592.7,375.6 752.1,467.6 		"/>
		<polygon class="st84" points="752.1,562.5 592.7,470.4 592.7,439.5 752.1,531.5 		"/>
		<polygon class="st84" points="752.1,626.4 592.7,534.3 592.7,503.3 752.1,595.4 		"/>
		<polygon class="st84" points="752.1,690.3 592.7,598.2 592.7,567.2 752.1,659.3 		"/>
		<polygon class="st84" points="752.1,754.1 592.7,662.1 592.7,631.1 752.1,723.2 		"/>
		<polygon class="st84" points="752.1,818 592.7,726 592.7,695 752.1,787 		"/>
	</g>
	<g>
		<polygon class="st85" points="186.1,861.1 186.1,440.1 358.2,340.6 358.2,761.6 		"/>
		<polygon class="st86" points="341.1,410.2 203.2,489.9 203.2,458.9 341.1,379.2 		"/>
		<polygon class="st86" points="341.1,474 203.2,553.8 203.2,522.8 341.1,443 		"/>
		<polygon class="st86" points="341.1,537.9 203.2,617.7 203.2,586.7 341.1,506.9 		"/>
		<polygon class="st86" points="341.1,601.8 203.2,681.6 203.2,650.6 341.1,570.8 		"/>
		<polygon class="st86" points="341.1,665.7 203.2,745.5 203.2,714.5 341.1,634.7 		"/>
		<polygon class="st86" points="341.1,729.6 203.2,809.3 203.2,778.3 341.1,698.6 		"/>
	</g>
	<linearGradient id="SVGID_4_" gradientUnits="userSpaceOnUse" x1="234.9552" y1="205.2839" x2="255.9091" y2="205.2839">
		<stop  offset="0" style="stop-color:#3B97AD"/>
		<stop  offset="1" style="stop-color:#3B97AD"/>
	</linearGradient>
	<polygon class="st91" points="235.7,180.2 235,230.4 255.9,227.5 	"/>
	<g>
		<path class="st92" d="M687.3,45.4c-93-53.7-255.3-46.9-362.7,15c-107.3,62-119,155.7-26,209.4s255.3,46.9,362.7-15
			C768.6,192.8,780.2,99.1,687.3,45.4z M375.8,225.2c-56-32.3-49-88.8,15.7-126.1C456.2,61.8,554,57.7,610,90
			c56,32.3,49,88.8-15.7,126.1C529.6,253.5,431.8,257.5,375.8,225.2z"/>
		<g>
			<polygon class="st8" points="629.1,104.2 626.2,101.5 715.2,65.4 718.1,68.1 			"/>
		</g>
		<g>
			<polygon class="st8" points="562.4,72.8 610,17.2 615.2,18.3 567.6,73.9 			"/>
		</g>
		<g>
			<polygon class="st8" points="616.6,200.7 620.1,197.7 702.8,225.2 699.4,228.2 			"/>
		</g>
		<g>
			<polygon class="st8" points="647.4,151.5 647.7,148.1 749.8,143 749.5,146.4 			"/>
		</g>
		<g>
			<polygon class="st8" points="439.3,305.8 459.4,246.8 465.2,247 445.1,305.9 			"/>
		</g>
		<g>
			<polygon class="st8" points="583.7,287.6 546.5,236.3 552,234.6 589.2,285.9 			"/>
		</g>
		<g>
			<polygon class="st8" points="243.2,213.3 241.9,210.1 341.4,188.6 342.8,191.8 			"/>
		</g>
		<g>
			<polygon class="st8" points="311.8,276.9 382.6,229.3 386.8,231.3 316.1,278.9 			"/>
		</g>
		<g>
			<polygon class="st8" points="395.7,96.6 333.3,55.6 338,53.1 400.4,94.1 			"/>
		</g>
		<g>
			<polygon class="st8" points="250,129.5 252,126.1 348.2,138 346.2,141.3 			"/>
		</g>
		<g>
			<polygon class="st8" points="476.5,71 467.6,13.5 473.5,12.7 482.4,70.2 			"/>
		</g>
	</g>
	<g>
		<path class="st93" d="M648.4,132.8c0-20.6-12.7-40.2-38.1-54.9c-56-32.3-153.8-28.3-218.4,9.1c-35.4,20.4-53.5,46.6-53.5,71.5
			c0,0.1,0,0.2,0,0.2c0,0.1,0,0.2,0,0.2c0,0.1,0,0.2,0,0.2c0,0.1,0,0.2,0,0.2s0,0.2,0,0.2c0,0.1,0,0.2,0,0.2s0,0.2,0,0.2
			c0,0.1,0,0.2,0,0.2c0,0.1,0,0.2,0,0.2c0,0.1,0,0.2,0,0.2c0,0.1,0,0.2,0,0.2s0,0.2,0,0.2c0,0.1,0,0.2,0,0.2s0,0.2,0,0.2
			c0,0.1,0,0.2,0,0.2c0,0.1,0,0.2,0,0.2c0,0.1,0,0.2,0,0.2c0,0.1,0,0.2,0,0.2s0,0.2,0,0.2c0,0.1,0,0.2,0,0.2s0,0.2,0,0.2
			c0,0.1,0,0.2,0,0.2s0,0.2,0,0.2c0,0.1,0,0.2,0,0.2c0,0.1,0,0.2,0,0.2s0,0.2,0,0.2c0,0.1,0,0.2,0,0.2s0,0.2,0,0.2
			c0,0.1,0,0.2,0,0.2s0,0.2,0,0.2c0,0.1,0,0.2,0,0.2c0,0.1,0,0.2,0,0.2s0,0.2,0,0.2c0,0.1,0,0.2,0,0.2s0,0.2,0,0.2
			c0,0.1,0,0.2,0,0.2s0,0.2,0,0.2c0,0.1,0,0.2,0,0.2c0,0.1,0,0.2,0,0.2c0,0.1,0,0.2,0,0.2c0,0.1,0,0.2,0,0.2s0,0.2,0,0.2
			c0,0.1,0,0.2,0,0.2s0,0.2,0,0.2c0,20.6,12.2,40.2,37.6,54.9c56,32.3,154,28.3,218.7-9.1c35.4-20.4,53.7-46.6,53.7-71.5
			c0-0.1,0-0.2,0-0.2c0-0.1,0-0.2,0-0.2s0-0.2,0-0.2c0-0.1,0-0.2,0-0.2s0-0.2,0-0.2c0-0.1,0-0.2,0-0.2c0-0.1,0-0.2,0-0.2
			c0-0.1,0-0.2,0-0.2c0-0.1,0-0.2,0-0.2s0-0.2,0-0.2c0-0.1,0-0.2,0-0.2s0-0.2,0-0.2c0-0.1,0-0.2,0-0.2s0-0.2,0-0.2
			c0-0.1,0-0.2,0-0.2c0-0.1,0-0.2,0-0.2s0-0.2,0-0.2c0-0.1,0-0.2,0-0.2s0-0.2,0-0.2c0-0.1,0-0.2,0-0.2s0-0.2,0-0.2
			c0-0.1,0-0.2,0-0.2c0-0.1,0-0.2,0-0.2s0-0.2,0-0.2c0-0.1,0-0.2,0-0.2s0-0.2,0-0.2c0-0.1,0-0.2,0-0.2s0-0.2,0-0.2
			c0-0.1,0-0.2,0-0.2c0-0.1,0-0.2,0-0.2s0-0.2,0-0.2c0-0.1,0-0.2,0-0.2s0-0.2,0-0.2c0-0.1,0-0.2,0-0.2s0-0.2,0-0.2
			c0-0.1,0-0.2,0-0.2c0-0.1,0-0.2,0-0.2c0-0.1,0-0.2,0-0.2c0-0.1,0-0.2,0-0.2s0-0.2,0-0.2c0-0.1,0-0.2,0-0.2s0-0.2,0-0.2
			c0-0.1,0-0.2,0-0.2C648.4,133,648.4,132.9,648.4,132.8z"/>
		<path class="st92" d="M594.4,204.1C659,166.7,666,110.3,610,77.9C554,45.6,456.2,49.7,391.6,87s-71.7,93.8-15.7,126.1
			S529.7,241.4,594.4,204.1z"/>
	</g>
	<g>
		<polygon class="st6" points="444.7,773.3 439.1,773.3 439.3,305.8 445.1,306.1 		"/>
	</g>
	<g>
		<polygon class="st6" points="588.9,332.8 582.9,334.7 583.7,287.6 589.2,285.9 		"/>
	</g>
	<g>
		<polygon class="st6" points="703.6,270.7 699,274.8 699.4,228.2 702.9,225.2 		"/>
	</g>
	<g>
		<rect x="311.4" y="278.3" class="st6" width="4" height="47"/>
	</g>
	<g>
		<polygon class="st6" points="243.3,263 241.8,259.4 241.9,210.1 243.2,213.3 		"/>
	</g>
</g>
</svg>
