<?xml version="1.0" encoding="utf-8"?>
<!-- Generator: Adobe Illustrator 20.0.0, SVG Export Plug-In . SVG Version: 6.00 Build 0)  -->
<!DOCTYPE svg PUBLIC "-//W3C//DTD SVG 1.1//EN" "http://www.w3.org/Graphics/SVG/1.1/DTD/svg11.dtd">
<svg version="1.1" id="Layer_1" xmlns="http://www.w3.org/2000/svg" xmlns:xlink="http://www.w3.org/1999/xlink" x="0px" y="0px"
	 viewBox="0 0 442 1183.8" style="enable-background:new 0 0 442 1183.8;" xml:space="preserve">
<style type="text/css">
	.st0{fill:#091410;}
	.st1{fill:#1BA897;}
	.st2{fill:#FBEE2D;}
	.st3{fill:#D5C529;}
	.st4{fill:#C4B22F;}
	.st5{fill:#603240;}
	.st6{fill:#F1F2F2;}
	.st7{fill:#A52E23;}
	.st8{fill:#FFFFFF;}
	.st9{fill:#FDFEFE;}
	.st10{fill:#939598;}
	.st11{fill:#808285;}
	.st12{fill:#BCBEC0;}
	.st13{fill:#E6E7E8;}
	.st14{fill:#414042;}
	.st15{fill:#D1D3D4;}
	.st16{fill:#491B0D;}
	.st17{fill:#D84426;}
	.st18{fill:#93AC4C;}
	.st19{fill:#126F63;}
	.st20{fill:#E0C93A;}
	.st21{fill:#EF4423;}
	.st22{fill:#A09F9F;}
	.st23{fill:#AD4967;}
	.st24{fill:#85C441;}
	.st25{fill:#C53227;}
	.st26{fill:#7B7B7B;}
	.st27{fill:#B0B0B0;}
	.st28{fill:#4C4C4D;}
	.st29{fill:#8E8E8E;}
	.st30{fill:#BCBCBC;}
	.st31{fill:#212121;}
	.st32{fill:#DDDDDD;}
	.st33{fill:#B7B7B7;}
	.st34{fill:#F04A4A;}
	.st35{fill:#FDB523;}
	.st36{fill:#4AB749;}
	.st37{fill:#CCCCCB;}
	.st38{fill:#DBD622;}
	.st39{fill:#58C099;}
	.st40{fill:#4062AE;}
	.st41{fill:#D9D327;}
	.st42{fill:#4DA547;}
	.st43{fill:#49BB83;}
	.st44{fill:#6B50A1;}
	.st45{fill:#CD862A;}
	.st46{fill:#483E98;}
	.st47{fill:#A65926;}
	.st48{fill:#78C143;}
	.st49{fill:#32C0D1;}
	.st50{fill:#636464;}
	.st51{fill:#643584;}
	.st52{fill:#DC8727;}
	.st53{fill:#B56C29;}
	.st54{fill:#CC7A29;}
	.st55{fill:#A3A1A1;}
	.st56{fill:#167F70;}
	.st57{fill:#1AAF9A;}
	.st58{fill:#DCDBDB;}
	.st59{fill:#6BBE45;}
	.st60{fill:#43AF49;}
	.st61{fill:#62A844;}
	.st62{fill:#CE2E27;}
	.st63{fill:#8F1D1D;}
	.st64{fill:#BA2626;}
	.st65{fill:#753C97;}
	.st66{fill:#4D2966;}
	.st67{fill:#D9E028;}
	.st68{fill:#A3A537;}
	.st69{fill:#C5C62F;}
	.st70{fill:#B69830;}
	.st71{fill:#DDA82F;}
	.st72{fill:#D29B3C;}
	.st73{fill:#CB922B;}
	.st74{fill:#963D97;}
	.st75{fill:#833677;}
	.st76{fill:#973D8F;}
	.st77{fill:#83367E;}
	.st78{fill:#14475D;}
	.st79{fill:#06ABCD;}
	.st80{fill:#D0CECF;}
	.st81{fill:#D8D8D8;}
	.st82{opacity:0.4;}
	.st83{fill:#ACA99F;}
	.st84{fill:#367D93;}
	.st85{fill:#EEEAE1;}
	.st86{fill:#45ABCC;}
	.st87{fill:url(#SVGID_1_);}
	.st88{fill:url(#SVGID_2_);}
	.st89{fill:#789DA9;}
	.st90{fill:url(#SVGID_3_);}
	.st91{fill:url(#SVGID_4_);}
	.st92{fill:#63BBCC;}
	.st93{fill:#2D7482;}
	.st94{fill:url(#SVGID_5_);}
	.st95{fill:url(#SVGID_6_);}
	.st96{fill:url(#SVGID_7_);}
	.st97{fill:url(#SVGID_8_);}
	.st98{fill:#126C5F;}
	.st99{fill:#158372;}
	.st100{fill:#1A9684;}
	.st101{fill:#39B54A;}
</style>
<g>
	<g>
		<g>
			<polygon class="st78" points="221,358.6 16.1,240.3 16.1,136.5 221,254.8 			"/>
			<polygon class="st79" points="79.3,276.8 24.4,245.1 24.4,141.2 79.3,173 			"/>
			<polygon class="st79" points="146.4,315.6 91.5,283.9 91.5,180 146.4,211.7 			"/>
			<polygon class="st79" points="213.5,354.3 158.6,322.6 158.6,218.7 213.5,250.4 			"/>
			<polygon class="st80" points="221,424.8 16.1,306.5 16.1,240.3 221,358.6 			"/>
		</g>
		<g>
			<polygon class="st78" points="221,529 16.1,410.7 16.1,306.8 221,425.1 			"/>
			<polygon class="st79" points="79.3,447.2 24.4,415.5 24.4,311.6 79.3,343.3 			"/>
			<polygon class="st79" points="146.4,485.9 91.5,454.2 91.5,350.3 146.4,382 			"/>
			<polygon class="st79" points="213.5,524.7 158.6,493 158.6,389.1 213.5,420.8 			"/>
			<polygon class="st80" points="221,595.2 16.1,476.9 16.1,410.7 221,529 			"/>
		</g>
		<g>
			<polygon class="st78" points="221,699.3 16.1,581 16.1,477.1 221,595.4 			"/>
			<polygon class="st79" points="79.3,617.5 24.4,585.8 24.4,481.9 79.3,513.6 			"/>
			<polygon class="st79" points="146.4,656.3 91.5,624.5 91.5,520.7 146.4,552.4 			"/>
			<polygon class="st79" points="213.5,695 158.6,663.3 158.6,559.4 213.5,591.1 			"/>
			<polygon class="st80" points="221,765.5 16.1,647.2 16.1,581 221,699.3 			"/>
		</g>
		<g>
			<polygon class="st78" points="221,869.6 16.1,751.3 16.1,647.5 221,765.8 			"/>
			<polygon class="st79" points="79.3,787.8 24.4,756.1 24.4,652.3 79.3,684 			"/>
			<polygon class="st79" points="146.4,826.6 91.5,794.9 91.5,691 146.4,722.7 			"/>
			<polygon class="st79" points="213.5,865.3 158.6,833.6 158.6,729.7 213.5,761.4 			"/>
			<polygon class="st80" points="221,935.8 16.1,817.6 16.1,751.3 221,869.6 			"/>
		</g>
		<polygon class="st78" points="221,1040 16.1,921.7 16.1,817.8 221,936.1 		"/>
		<polygon class="st79" points="79.3,958.2 24.4,926.5 24.4,822.6 79.3,854.3 		"/>
		<polygon class="st79" points="146.4,996.9 91.5,965.2 91.5,861.3 146.4,893 		"/>
		<polygon class="st79" points="213.5,1035.7 158.6,1004 158.6,900.1 213.5,931.8 		"/>
		<polygon class="st80" points="221,1165.6 16.1,1047.3 16.1,921.7 221,1040 		"/>
		<polygon class="st79" points="177.2,1055.4 59.9,987.8 59.9,1072.7 177.2,1140.3 		"/>
	</g>
	<g>
		<g>
			<polygon class="st78" points="425.9,240.3 221,358.6 221,254.8 425.9,136.5 			"/>
			<polygon class="st79" points="284.2,322.1 229.3,353.9 229.3,250 284.2,218.3 			"/>
			<polygon class="st79" points="351.3,283.4 296.4,315.1 296.4,211.2 351.3,179.5 			"/>
			<polygon class="st79" points="418.4,244.7 363.5,276.4 363.5,172.5 418.4,140.8 			"/>
			<polygon class="st80" points="425.9,306.5 221,424.8 221,358.6 425.9,240.3 			"/>
		</g>
		<g>
			<polygon class="st78" points="425.9,410.7 221,529 221,425.1 425.9,306.8 			"/>
			<polygon class="st79" points="284.2,492.5 229.3,524.2 229.3,420.3 284.2,388.6 			"/>
			<polygon class="st79" points="351.3,453.7 296.4,485.4 296.4,381.6 351.3,349.9 			"/>
			<polygon class="st79" points="418.4,415 363.5,446.7 363.5,342.8 418.4,311.1 			"/>
			<polygon class="st80" points="425.9,476.9 221,595.2 221,529 425.9,410.7 			"/>
		</g>
		<g>
			<polygon class="st78" points="425.9,581 221,699.3 221,595.4 425.9,477.1 			"/>
			<polygon class="st79" points="284.2,662.8 229.3,694.5 229.3,590.6 284.2,558.9 			"/>
			<polygon class="st79" points="351.3,624.1 296.4,655.8 296.4,551.9 351.3,520.2 			"/>
			<polygon class="st79" points="418.4,585.3 363.5,617 363.5,513.1 418.4,481.4 			"/>
			<polygon class="st80" points="425.9,647.2 221,765.5 221,699.3 425.9,581 			"/>
		</g>
		<g>
			<polygon class="st78" points="425.9,751.3 221,869.6 221,765.8 425.9,647.5 			"/>
			<polygon class="st79" points="284.2,833.2 229.3,864.9 229.3,761 284.2,729.3 			"/>
			<polygon class="st79" points="351.3,794.4 296.4,826.1 296.4,722.2 351.3,690.5 			"/>
			<polygon class="st79" points="418.4,755.7 363.5,787.4 363.5,683.5 418.4,651.8 			"/>
			<polygon class="st80" points="425.9,817.6 221,935.8 221,869.6 425.9,751.3 			"/>
		</g>
		<polygon class="st78" points="425.9,921.7 221,1040 221,936.1 425.9,817.8 		"/>
		<polygon class="st79" points="284.2,1003.5 229.3,1035.2 229.3,931.3 284.2,899.6 		"/>
		<polygon class="st79" points="351.3,964.7 296.4,996.4 296.4,892.6 351.3,860.9 		"/>
		<polygon class="st79" points="418.4,926 363.5,957.7 363.5,853.8 418.4,822.1 		"/>
		<polygon class="st80" points="425.9,1047.3 221,1165.6 221,1040 425.9,921.7 		"/>
		<g>
			<polygon class="st81" points="382.1,987.8 264.8,1055.4 264.8,1140.3 382.1,1072.7 			"/>
			<polygon class="st78" points="376.9,996.1 269.9,1057.9 269.9,1137.4 376.9,1075.6 			"/>
			<g>
				<polygon class="st79" points="292,1070.2 275,1080 275,1059.5 292,1049.7 				"/>
				<polygon class="st79" points="318.6,1054.8 301.6,1064.6 301.6,1044.1 318.6,1034.3 				"/>
				<polygon class="st79" points="345.3,1039.4 328.3,1049.2 328.3,1028.8 345.3,1018.9 				"/>
				<polygon class="st79" points="371.9,1024 354.9,1033.8 354.9,1013.4 371.9,1003.6 				"/>
			</g>
			<g>
				<polygon class="st79" points="292,1124.7 275,1134.5 275,1084.5 292,1074.7 				"/>
				<polygon class="st79" points="318.6,1109.3 301.6,1119.1 301.6,1069.1 318.6,1059.3 				"/>
				<polygon class="st79" points="345.3,1093.9 328.3,1103.7 328.3,1053.7 345.3,1043.9 				"/>
				<polygon class="st79" points="371.9,1078.5 354.9,1088.3 354.9,1038.4 371.9,1028.5 				"/>
			</g>
		</g>
		<polygon class="st79" points="229.3,1160.9 256.7,1145 256.7,1060.1 229.3,1076 		"/>
		<polygon class="st79" points="391,1067.5 418.4,1051.7 418.4,966.8 391,982.6 		"/>
	</g>
	<polygon class="st82" points="221,1165.6 16.1,1047.3 16.1,136.5 221,254.8 	"/>
	<polygon class="st58" points="425.9,136.5 221,18.2 16.1,136.2 221,254.5 	"/>
</g>
</svg>
