<?xml version="1.0" encoding="utf-8"?>
<!-- Generator: Adobe Illustrator 20.0.0, SVG Export Plug-In . SVG Version: 6.00 Build 0)  -->
<!DOCTYPE svg PUBLIC "-//W3C//DTD SVG 1.1//EN" "http://www.w3.org/Graphics/SVG/1.1/DTD/svg11.dtd">
<svg version="1.1" id="Layer_1" xmlns="http://www.w3.org/2000/svg" xmlns:xlink="http://www.w3.org/1999/xlink" x="0px" y="0px"
	 viewBox="0 0 1280 3200" style="enable-background:new 0 0 1280 3200;" xml:space="preserve">
<style type="text/css">
	.st0{fill:#091410;}
	.st1{fill:#1BA897;}
	.st2{fill:#FBEE2D;}
	.st3{fill:#D5C529;}
	.st4{fill:#C4B22F;}
	.st5{font-family:'RussoOne-Regular';}
	.st6{font-size:110px;}
	.st7{fill:#603240;}
	.st8{fill:#F1F2F2;}
	.st9{fill:#A52E23;}
	.st10{fill:#FFFFFF;}
	.st11{font-family:'Oxygen-Regular';}
	.st12{font-size:28px;}
	.st13{font-size:44.025px;}
	.st14{fill:none;}
	.st15{fill:#FDFEFE;}
	.st16{font-size:14.675px;}
	.st17{fill:#939598;}
	.st18{fill:#808285;}
	.st19{font-size:42.1478px;}
	.st20{font-size:14.0493px;}
	.st21{fill:#BCBEC0;}
	.st22{fill:#E6E7E8;}
	.st23{font-size:47.1259px;}
	.st24{fill:#414042;}
	.st25{fill:#D1D3D4;}
	.st26{font-size:15.7086px;}
	.st27{fill:#491B0D;}
	.st28{fill:#D84426;}
	.st29{fill:#93AC4C;}
	.st30{fill:#126F63;}
	.st31{fill:#E0C93A;}
	.st32{fill:#EF4423;}
	.st33{fill:#A09F9F;}
	.st34{fill:#AD4967;}
	.st35{fill:#85C441;}
	.st36{fill:#C53227;}
	.st37{fill:#7B7B7B;}
	.st38{fill:#B0B0B0;}
	.st39{fill:#4C4C4D;}
	.st40{fill:#8E8E8E;}
	.st41{fill:#BCBCBC;}
	.st42{fill:#212121;}
	.st43{fill:#DDDDDD;}
	.st44{fill:#B7B7B7;}
	.st45{fill:#F04A4A;}
	.st46{fill:#FDB523;}
	.st47{fill:#4AB749;}
	.st48{fill:#CCCCCB;}
	.st49{fill:#DBD622;}
	.st50{fill:#58C099;}
	.st51{fill:#4062AE;}
	.st52{fill:#D9D327;}
	.st53{fill:#4DA547;}
	.st54{fill:#49BB83;}
	.st55{fill:#6B50A1;}
	.st56{fill:#CD862A;}
	.st57{fill:#483E98;}
	.st58{fill:#A65926;}
	.st59{fill:#78C143;}
	.st60{fill:#32C0D1;}
	.st61{fill:#636464;}
	.st62{fill:#643584;}
	.st63{fill:#DC8727;}
	.st64{fill:#B56C29;}
	.st65{fill:#CC7A29;}
	.st66{fill:#A3A1A1;}
	.st67{fill:#167F70;}
	.st68{fill:#1AAF9A;}
	.st69{fill:#DCDBDB;}
	.st70{fill:#6BBE45;}
	.st71{fill:#43AF49;}
	.st72{fill:#62A844;}
	.st73{fill:#CE2E27;}
	.st74{fill:#8F1D1D;}
	.st75{fill:#BA2626;}
	.st76{fill:#753C97;}
	.st77{fill:#4D2966;}
	.st78{fill:#D9E028;}
	.st79{fill:#A3A537;}
	.st80{fill:#C5C62F;}
	.st81{fill:#B69830;}
	.st82{fill:#DDA82F;}
	.st83{fill:#D29B3C;}
	.st84{fill:#CB922B;}
	.st85{fill:#963D97;}
	.st86{fill:#833677;}
	.st87{fill:#973D8F;}
	.st88{fill:#83367E;}
	.st89{fill:#14475D;}
	.st90{fill:#06ABCD;}
	.st91{fill:#D0CECF;}
	.st92{fill:#D8D8D8;}
	.st93{opacity:0.4;}
	.st94{fill:#ACA99F;}
	.st95{fill:#367D93;}
	.st96{fill:#EEEAE1;}
	.st97{fill:#45ABCC;}
	.st98{fill:url(#SVGID_1_);}
	.st99{fill:url(#SVGID_2_);}
	.st100{fill:#789DA9;}
	.st101{fill:url(#SVGID_3_);}
	.st102{fill:url(#SVGID_4_);}
	.st103{fill:#63BBCC;}
	.st104{fill:#2D7482;}
	.st105{fill:#126C5F;}
	.st106{fill:#158372;}
	.st107{fill:#1A9684;}
	.st108{fill:#39B54A;}
</style>
<rect class="st0" width="1280" height="800"/>
<text transform="matrix(1 0 0 1 348.73 437.1143)" class="st1 st5 st6">frugality</text>
<g>
	<g>
		<path class="st2" d="M334.4,427l0-13.5l-17.2,1.3c-4-0.3-8.1,0-12.2,1l-17.3,1.4l0,10.9c-0.2,1.8,1.2,7.5,5.8,10.1
			c8.4,4.9,23.1,4.6,32.8-1C331.6,434.1,334.2,430,334.4,427L334.4,427z"/>
		<path class="st3" d="M326.3,424.3c-9.7,5.6-24.4,6.2-32.9,1.4c-8.4-4.9-7.4-13.4,2.4-19c9.7-5.6,24.4-6.2,32.9-1.4
			C337.1,410.1,336.1,418.6,326.3,424.3z"/>
	</g>
	<g>
		<path class="st2" d="M334.4,411l0-13.7l-17.2,1.2c-4-0.3-8.1-0.1-12.2,0.9l-17.3,1.4l0,10.9c-0.2,1.8,1.2,7.5,5.8,10.1
			c8.4,4.9,23.1,4.8,32.8-0.9C331.6,418,334.2,413,334.4,411L334.4,411z"/>
		<path class="st3" d="M326.3,407.9c-9.7,5.6-24.4,6.2-32.9,1.4c-8.4-4.9-7.4-13.4,2.4-19c9.7-5.6,24.4-6.2,32.9-1.4
			C337.1,393.8,336.1,402.3,326.3,407.9z"/>
	</g>
	<g>
		<path class="st2" d="M334.4,395l0-13.4l-17.2,1.4c-4-0.3-8.1,0-12.2,1l-17.3,1.4l0,10.9c-0.2,1.8,1.2,7.5,5.8,10.1
			c8.4,4.9,23.1,4.4,32.8-1.2C331.6,402.3,334.2,398,334.4,395L334.4,395z"/>
		<path class="st3" d="M326.3,392.6c-9.7,5.6-24.4,6.2-32.9,1.4c-8.4-4.9-7.4-13.4,2.4-19c9.7-5.6,24.4-6.2,32.9-1.4
			C337.1,378.5,336.1,387,326.3,392.6z"/>
	</g>
	<g>
		<path class="st4" d="M317.4,364.9c1.7,4.9,0.7,11.5-2.2,14.9c-2.9,3.4-6.6,2.2-8.3-2.7c-1.7-4.9-0.7-11.5,2.2-14.9
			C312,358.9,315.7,360.1,317.4,364.9z"/>
		<path class="st2" d="M316,364.9c1.7,4.9,0.7,11.5-2.2,14.9c-2.9,3.4-6.6,2.2-8.3-2.7c-1.7-4.9-0.7-11.5,2.2-14.9
			C310.6,358.9,314.3,360.1,316,364.9z"/>
	</g>
	<g>
		<path class="st4" d="M307,341.7c1.7,4.9,0.7,11.5-2.2,14.9c-2.9,3.4-6.6,2.2-8.3-2.7c-1.7-4.9-0.7-11.5,2.2-14.9
			C301.6,335.6,305.3,336.8,307,341.7z"/>
		<path class="st2" d="M305.5,341.7c1.7,4.9,0.7,11.5-2.2,14.9c-2.9,3.4-6.6,2.2-8.3-2.7c-1.7-4.9-0.7-11.5,2.2-14.9
			C300.1,335.6,303.9,336.8,305.5,341.7z"/>
	</g>
	<g>
		<path class="st4" d="M326.2,325.7c1.7,4.9,0.7,11.5-2.2,14.9c-2.9,3.4-6.6,2.2-8.3-2.7c-1.7-4.9-0.7-11.5,2.2-14.9
			C320.8,319.6,324.6,320.8,326.2,325.7z"/>
		<path class="st2" d="M324.8,325.7c1.7,4.9,0.7,11.5-2.2,14.9c-2.9,3.4-6.6,2.2-8.3-2.7c-1.7-4.9-0.7-11.5,2.2-14.9
			C319.4,319.6,323.1,320.8,324.8,325.7z"/>
	</g>
</g>
<text transform="matrix(1 0 0 1 883.5942 487.5927)" class="st10 st11 st12">by GUN</text>
<rect y="800" class="st7" width="1280" height="800"/>
<rect y="1600" class="st1" width="1280" height="800"/>
<rect y="2400" class="st9" width="1280" height="800"/>
<g>
	<text transform="matrix(1 0 0 1 84.1592 1041.0684)" class="st10 st5 st13">why did we make it?</text>
</g>
<rect x="75" y="1062.2" class="st14" width="531.7" height="151.6"/>
<text transform="matrix(1 0 0 1 75 1073.1982)"><tspan x="0" y="0" class="st15 st11 st16">Lorem ipsum dolor sit amet, consectetur adipiscing elit. Quisque sed odio nulla. </tspan><tspan x="0" y="21.3" class="st15 st11 st16">Curabitur nisl magna, feugiat lobortis bibendum at, finibus vel nisl. Aenean quis </tspan><tspan x="0" y="42.6" class="st15 st11 st16">interdum urna. Duis bibendum a nulla eu pulvinar. Suspendisse potenti. Donec et </tspan><tspan x="0" y="63.8" class="st15 st11 st16">pretium nisl. Cras sollicitudin, sem a ultricies malesuada, leo odio faucibus justo, </tspan><tspan x="0" y="85.1" class="st15 st11 st16">vitae blandit ligula ex congue tortor. Pellentesque erat arcu, luctus sit amet est </tspan><tspan x="0" y="106.4" class="st15 st11 st16">ut, luctus posuere lorem. Quisque tempus pretium urna, vel cursus lacus sagittis </tspan><tspan x="0" y="127.7" class="st15 st11 st16">in. Nullam eu lectus lacinia, euismod leo quis, commodo ipsum. </tspan></text>
<rect x="769.4" y="1062.2" class="st17" width="325.7" height="325.7"/>
<rect x="883.8" y="899.4" class="st18" width="325.7" height="325.7"/>
<g>
	<text transform="matrix(1 0 0 1 720.2783 1870.0137)" class="st8 st5 st19">how does it work?</text>
</g>
<rect x="711.5" y="1890.3" class="st14" width="509" height="145.2"/>
<text transform="matrix(1 0 0 1 711.5098 1900.7744)"><tspan x="0" y="0" class="st8 st11 st20">Lorem ipsum dolor sit amet, consectetur adipiscing elit. Quisque sed odio nulla. </tspan><tspan x="0" y="20.4" class="st8 st11 st20">Curabitur nisl magna, feugiat lobortis bibendum at, finibus vel nisl. Aenean quis </tspan><tspan x="0" y="40.7" class="st8 st11 st20">interdum urna. Duis bibendum a nulla eu pulvinar. Suspendisse potenti. Donec et </tspan><tspan x="0" y="61.1" class="st8 st11 st20">pretium nisl. Cras sollicitudin, sem a ultricies malesuada, leo odio faucibus justo, </tspan><tspan x="0" y="81.5" class="st8 st11 st20">vitae blandit ligula ex congue tortor. Pellentesque erat arcu, luctus sit amet est </tspan><tspan x="0" y="101.9" class="st8 st11 st20">ut, luctus posuere lorem. Quisque tempus pretium urna, vel cursus lacus sagittis </tspan><tspan x="0" y="122.2" class="st8 st11 st20">in. Nullam eu lectus lacinia, euismod leo quis, commodo ipsum. </tspan></text>
<circle class="st21" cx="317.9" cy="2043.3" r="215"/>
<circle class="st22" cx="582.4" cy="2124.5" r="173.9"/>
<g>
	<text transform="matrix(1 0 0 1 84.8047 2650.5879)" class="st8 st5 st23">what does it do?</text>
</g>
<polygon class="st24" points="1067.4,2530.6 1149.7,2673.2 1067.4,2815.9 902.7,2815.9 820.3,2673.2 902.7,2530.6 "/>
<polygon class="st21" points="763.1,2783.1 845.5,2925.7 763.1,3068.4 598.4,3068.4 516.1,2925.7 598.4,2783.1 "/>
<polygon class="st25" points="1166.1,2815.9 1248.5,2958.5 1166.1,3101.1 1001.4,3101.1 919.1,2958.5 1001.4,2815.9 "/>
<rect x="75" y="2673.2" class="st14" width="569.1" height="162.3"/>
<text transform="matrix(1 0 0 1 75 2684.9805)"><tspan x="0" y="0" class="st8 st11 st26">Lorem ipsum dolor sit amet, consectetur adipiscing elit. Quisque sed odio nulla. </tspan><tspan x="0" y="22.8" class="st8 st11 st26">Curabitur nisl magna, feugiat lobortis bibendum at, finibus vel nisl. Aenean quis </tspan><tspan x="0" y="45.6" class="st8 st11 st26">interdum urna. Duis bibendum a nulla eu pulvinar. Suspendisse potenti. Donec et </tspan><tspan x="0" y="68.3" class="st8 st11 st26">pretium nisl. Cras sollicitudin, sem a ultricies malesuada, leo odio faucibus justo, </tspan><tspan x="0" y="91.1" class="st8 st11 st26">vitae blandit ligula ex congue tortor. Pellentesque erat arcu, luctus sit amet est </tspan><tspan x="0" y="113.9" class="st8 st11 st26">ut, luctus posuere lorem. Quisque tempus pretium urna, vel cursus lacus sagittis </tspan><tspan x="0" y="136.7" class="st8 st11 st26">in. Nullam eu lectus lacinia, euismod leo quis, commodo ipsum. </tspan></text>
</svg>
