<?xml version="1.0" encoding="utf-8"?>
<!-- Generator: Adobe Illustrator 20.0.0, SVG Export Plug-In . SVG Version: 6.00 Build 0)  -->
<!DOCTYPE svg PUBLIC "-//W3C//DTD SVG 1.1//EN" "http://www.w3.org/Graphics/SVG/1.1/DTD/svg11.dtd">
<svg version="1.1" id="Layer_1" xmlns="http://www.w3.org/2000/svg" xmlns:xlink="http://www.w3.org/1999/xlink" x="0px" y="0px"
	 viewBox="0 0 768 4096" style="enable-background:new 0 0 768 4096;" xml:space="preserve">
<style type="text/css">
	.st0{fill:#091410;}
	.st1{fill:#1BA897;}
	.st2{fill:#FBEE2D;}
	.st3{fill:#D5C529;}
	.st4{fill:#C4B22F;}
	.st5{font-family:'RussoOne-Regular';}
	.st6{font-size:87.5054px;}
	.st7{fill:#603240;}
	.st8{fill:#F1F2F2;}
	.st9{fill:#A52E23;}
	.st10{fill:#FFFFFF;}
	.st11{font-family:'Oxygen-Regular';}
	.st12{font-size:30px;}
	.st13{fill:#FDFEFE;}
	.st14{fill:#939598;}
	.st15{fill:#808285;}
	.st16{fill:#BCBEC0;}
	.st17{fill:#E6E7E8;}
	.st18{fill:#414042;}
	.st19{fill:#D1D3D4;}
	.st20{font-size:44.025px;}
	.st21{fill:none;}
	.st22{font-size:14.675px;}
	.st23{font-size:42.1478px;}
	.st24{font-size:14.0493px;}
	.st25{font-size:47.1259px;}
	.st26{font-size:15.7086px;}
	.st27{fill:#491B0D;}
	.st28{fill:#D84426;}
	.st29{fill:#93AC4C;}
	.st30{fill:#126F63;}
	.st31{fill:#E0C93A;}
	.st32{fill:#EF4423;}
	.st33{fill:#A09F9F;}
	.st34{fill:#AD4967;}
	.st35{fill:#85C441;}
	.st36{fill:#C53227;}
	.st37{fill:#7B7B7B;}
	.st38{fill:#B0B0B0;}
	.st39{fill:#4C4C4D;}
	.st40{fill:#8E8E8E;}
	.st41{fill:#BCBCBC;}
	.st42{fill:#212121;}
	.st43{fill:#DDDDDD;}
	.st44{fill:#B7B7B7;}
	.st45{fill:#F04A4A;}
	.st46{fill:#FDB523;}
	.st47{fill:#4AB749;}
	.st48{fill:#CCCCCB;}
	.st49{fill:#DBD622;}
	.st50{fill:#58C099;}
	.st51{fill:#4062AE;}
	.st52{fill:#D9D327;}
	.st53{fill:#4DA547;}
	.st54{fill:#49BB83;}
	.st55{fill:#6B50A1;}
	.st56{fill:#CD862A;}
	.st57{fill:#483E98;}
	.st58{fill:#A65926;}
	.st59{fill:#78C143;}
	.st60{fill:#32C0D1;}
	.st61{fill:#636464;}
	.st62{fill:#643584;}
	.st63{fill:#DC8727;}
	.st64{fill:#B56C29;}
	.st65{fill:#CC7A29;}
	.st66{fill:#A3A1A1;}
	.st67{fill:#167F70;}
	.st68{fill:#1AAF9A;}
	.st69{fill:#DCDBDB;}
	.st70{fill:#6BBE45;}
	.st71{fill:#43AF49;}
	.st72{fill:#62A844;}
	.st73{fill:#CE2E27;}
	.st74{fill:#8F1D1D;}
	.st75{fill:#BA2626;}
	.st76{fill:#753C97;}
	.st77{fill:#4D2966;}
	.st78{fill:#D9E028;}
	.st79{fill:#A3A537;}
	.st80{fill:#C5C62F;}
	.st81{fill:#B69830;}
	.st82{fill:#DDA82F;}
	.st83{fill:#D29B3C;}
	.st84{fill:#CB922B;}
	.st85{fill:#963D97;}
	.st86{fill:#833677;}
	.st87{fill:#973D8F;}
	.st88{fill:#83367E;}
	.st89{fill:#14475D;}
	.st90{fill:#06ABCD;}
	.st91{fill:#D0CECF;}
	.st92{fill:#D8D8D8;}
	.st93{opacity:0.4;}
	.st94{fill:#ACA99F;}
	.st95{fill:#367D93;}
	.st96{fill:#EEEAE1;}
	.st97{fill:#45ABCC;}
	.st98{fill:url(#SVGID_1_);}
	.st99{fill:url(#SVGID_2_);}
	.st100{fill:#789DA9;}
	.st101{fill:url(#SVGID_3_);}
	.st102{fill:url(#SVGID_4_);}
	.st103{fill:#63BBCC;}
	.st104{fill:#2D7482;}
	.st105{fill:#126C5F;}
	.st106{fill:#158372;}
	.st107{fill:#1A9684;}
	.st108{fill:#39B54A;}
</style>
<rect class="st0" width="768" height="1024"/>
<text transform="matrix(1 0 0 1 151.7487 520.3086)" class="st1 st5 st6">frugality</text>
<g>
	<g>
		<path class="st2" d="M144.7,510l0-11.7l-14.9,1.1c-3.5-0.3-7,0-10.5,0.8l-14.9,1.2l0,9.4c-0.2,1.6,1,6.5,5,8.8
			c7.3,4.2,20,4,28.4-0.8C142.3,516.1,144.6,512,144.7,510L144.7,510z"/>
		<path class="st3" d="M137.7,507.6c-8.4,4.9-21.2,5.4-28.5,1.2c-7.3-4.2-6.4-11.6,2-16.4c8.4-4.9,21.2-5.4,28.5-1.2
			C147.1,495.3,146.2,502.7,137.7,507.6z"/>
	</g>
	<g>
		<path class="st2" d="M144.7,496l0-11.8l-14.9,1.1c-3.5-0.3-7,0-10.5,0.8l-14.9,1.2l0,9.4c-0.2,1.6,1,6.5,5,8.8
			c7.3,4.2,20,4.1,28.4-0.8C142.3,502.1,144.6,498,144.7,496L144.7,496z"/>
		<path class="st3" d="M137.7,493.4c-8.4,4.9-21.2,5.4-28.5,1.2c-7.3-4.2-6.4-11.6,2-16.4s21.2-5.4,28.5-1.2
			C147.1,481.2,146.2,488.6,137.7,493.4z"/>
	</g>
	<g>
		<path class="st2" d="M144.7,482l0-11.5l-14.9,1.2c-3.5-0.3-7,0-10.5,0.9l-14.9,1.2l0,9.4c-0.2,1.6,1,6.5,5,8.8
			c7.3,4.2,20,3.7,28.4-1.1C142.3,488.4,144.6,485,144.7,482L144.7,482z"/>
		<path class="st3" d="M137.7,480.1c-8.4,4.9-21.2,5.4-28.5,1.2c-7.3-4.2-6.4-11.6,2-16.4c8.4-4.9,21.2-5.4,28.5-1.2
			C147.1,467.9,146.2,475.3,137.7,480.1z"/>
	</g>
	<g>
		<path class="st4" d="M130,456.2c1.5,4.2,0.6,10-1.9,12.9c-2.5,2.9-5.7,1.9-7.2-2.3c-1.5-4.2-0.6-10,1.9-12.9
			C125.3,450.9,128.6,452,130,456.2z"/>
		<path class="st2" d="M128.8,456.2c1.5,4.2,0.6,10-1.9,12.9s-5.7,1.9-7.2-2.3c-1.5-4.2-0.6-10,1.9-12.9
			C124.1,450.9,127.3,452,128.8,456.2z"/>
	</g>
	<g>
		<path class="st4" d="M121,436.1c1.5,4.2,0.6,10-1.9,12.9c-2.5,2.9-5.7,1.9-7.2-2.3c-1.5-4.2-0.6-10,1.9-12.9
			C116.3,430.8,119.6,431.9,121,436.1z"/>
		<path class="st2" d="M119.7,436.1c1.5,4.2,0.6,10-1.9,12.9c-2.5,2.9-5.7,1.9-7.2-2.3c-1.5-4.2-0.6-10,1.9-12.9
			C115.1,430.8,118.3,431.9,119.7,436.1z"/>
	</g>
	<g>
		<path class="st4" d="M137.7,422.2c1.5,4.2,0.6,10-1.9,12.9s-5.7,1.9-7.2-2.3c-1.5-4.2-0.6-10,1.9-12.9
			C133,416.9,136.2,418,137.7,422.2z"/>
		<path class="st2" d="M136.4,422.2c1.5,4.2,0.6,10-1.9,12.9c-2.5,2.9-5.7,1.9-7.2-2.3c-1.5-4.2-0.6-10,1.9-12.9
			C131.7,416.9,134.9,418,136.4,422.2z"/>
	</g>
</g>
<text transform="matrix(1 0 0 1 555.0681 566.0911)" class="st10 st11 st12">by GUN</text>
<rect y="1024" class="st7" width="768" height="1024"/>
<rect y="2048" class="st1" width="768" height="1024"/>
<rect y="3072" class="st9" width="768" height="1024"/>
<g>
	<text transform="matrix(1 0 0 1 127.3126 1741.9779)" class="st10 st5 st20">why did we make it?</text>
</g>
<rect x="118.2" y="1763.1" class="st21" width="531.7" height="151.6"/>
<text transform="matrix(1 0 0 1 118.1534 1774.1078)"><tspan x="0" y="0" class="st13 st11 st22">Lorem ipsum dolor sit amet, consectetur adipiscing elit. Quisque sed odio nulla. </tspan><tspan x="0" y="21.3" class="st13 st11 st22">Curabitur nisl magna, feugiat lobortis bibendum at, finibus vel nisl. Aenean quis </tspan><tspan x="0" y="42.6" class="st13 st11 st22">interdum urna. Duis bibendum a nulla eu pulvinar. Suspendisse potenti. Donec et </tspan><tspan x="0" y="63.8" class="st13 st11 st22">pretium nisl. Cras sollicitudin, sem a ultricies malesuada, leo odio faucibus justo, </tspan><tspan x="0" y="85.1" class="st13 st11 st22">vitae blandit ligula ex congue tortor. Pellentesque erat arcu, luctus sit amet est </tspan><tspan x="0" y="106.4" class="st13 st11 st22">ut, luctus posuere lorem. Quisque tempus pretium urna, vel cursus lacus sagittis </tspan><tspan x="0" y="127.7" class="st13 st11 st22">in. Nullam eu lectus lacinia, euismod leo quis, commodo ipsum. </tspan></text>
<rect x="163.9" y="1277.9" class="st14" width="325.7" height="325.7"/>
<rect x="278.4" y="1115" class="st15" width="325.7" height="325.7"/>
<circle class="st16" cx="272.3" cy="2703.1" r="215"/>
<circle class="st17" cx="536.8" cy="2784.2" r="173.9"/>
<g>
	<text transform="matrix(1 0 0 1 138.2581 2198.323)" class="st8 st5 st23">how does it work?</text>
</g>
<rect x="129.5" y="2218.6" class="st21" width="509" height="145.2"/>
<text transform="matrix(1 0 0 1 129.4895 2229.0837)"><tspan x="0" y="0" class="st8 st11 st24">Lorem ipsum dolor sit amet, consectetur adipiscing elit. Quisque sed odio nulla. </tspan><tspan x="0" y="20.4" class="st8 st11 st24">Curabitur nisl magna, feugiat lobortis bibendum at, finibus vel nisl. Aenean quis </tspan><tspan x="0" y="40.7" class="st8 st11 st24">interdum urna. Duis bibendum a nulla eu pulvinar. Suspendisse potenti. Donec et </tspan><tspan x="0" y="61.1" class="st8 st11 st24">pretium nisl. Cras sollicitudin, sem a ultricies malesuada, leo odio faucibus justo, </tspan><tspan x="0" y="81.5" class="st8 st11 st24">vitae blandit ligula ex congue tortor. Pellentesque erat arcu, luctus sit amet est </tspan><tspan x="0" y="101.9" class="st8 st11 st24">ut, luctus posuere lorem. Quisque tempus pretium urna, vel cursus lacus sagittis </tspan><tspan x="0" y="122.2" class="st8 st11 st24">in. Nullam eu lectus lacinia, euismod leo quis, commodo ipsum. </tspan></text>
<g>
	<text transform="matrix(1 0 0 1 148.0627 3286.5879)" class="st8 st5 st25">what does it do?</text>
</g>
<polygon class="st18" points="540.8,3521.4 613.1,3646.6 540.8,3771.9 396.1,3771.9 323.8,3646.6 396.1,3521.4 "/>
<polygon class="st16" points="273.6,3743.1 345.9,3868.4 273.6,3993.6 129,3993.6 56.6,3868.4 129,3743.1 "/>
<polygon class="st19" points="627.5,3771.9 699.8,3897.2 627.5,4022.4 482.8,4022.4 410.5,3897.2 482.8,3771.9 "/>
<rect x="138.3" y="3309.2" class="st21" width="569.1" height="162.3"/>
<text transform="matrix(1 0 0 1 138.2581 3320.9805)"><tspan x="0" y="0" class="st8 st11 st26">Lorem ipsum dolor sit amet, consectetur adipiscing elit. Quisque sed odio nulla. </tspan><tspan x="0" y="22.8" class="st8 st11 st26">Curabitur nisl magna, feugiat lobortis bibendum at, finibus vel nisl. Aenean quis </tspan><tspan x="0" y="45.6" class="st8 st11 st26">interdum urna. Duis bibendum a nulla eu pulvinar. Suspendisse potenti. Donec et </tspan><tspan x="0" y="68.3" class="st8 st11 st26">pretium nisl. Cras sollicitudin, sem a ultricies malesuada, leo odio faucibus justo, </tspan><tspan x="0" y="91.1" class="st8 st11 st26">vitae blandit ligula ex congue tortor. Pellentesque erat arcu, luctus sit amet est </tspan><tspan x="0" y="113.9" class="st8 st11 st26">ut, luctus posuere lorem. Quisque tempus pretium urna, vel cursus lacus sagittis </tspan><tspan x="0" y="136.7" class="st8 st11 st26">in. Nullam eu lectus lacinia, euismod leo quis, commodo ipsum. </tspan></text>
</svg>
