<?xml version="1.0" encoding="utf-8"?>
<!-- Generator: Adobe Illustrator 20.0.0, SVG Export Plug-In . SVG Version: 6.00 Build 0)  -->
<!DOCTYPE svg PUBLIC "-//W3C//DTD SVG 1.1//EN" "http://www.w3.org/Graphics/SVG/1.1/DTD/svg11.dtd">
<svg version="1.1" id="Layer_1" xmlns="http://www.w3.org/2000/svg" xmlns:xlink="http://www.w3.org/1999/xlink" x="0px" y="0px"
	 viewBox="0 0 158.4 198.6" style="enable-background:new 0 0 158.4 198.6;" xml:space="preserve">
<style type="text/css">
	.st0{fill:#091410;}
	.st1{fill:#1BA897;}
	.st2{fill:#FBEE2D;}
	.st3{fill:#D5C529;}
	.st4{fill:#C4B22F;}
	.st5{fill:#603240;}
	.st6{fill:#F1F2F2;}
	.st7{fill:#A52E23;}
	.st8{fill:#FFFFFF;}
	.st9{fill:#FDFEFE;}
	.st10{fill:#939598;}
	.st11{fill:#808285;}
	.st12{fill:#BCBEC0;}
	.st13{fill:#E6E7E8;}
	.st14{fill:#414042;}
	.st15{fill:#D1D3D4;}
	.st16{fill:#491B0D;}
	.st17{fill:#D84426;}
	.st18{fill:#93AC4C;}
	.st19{fill:#126F63;}
	.st20{fill:#E0C93A;}
	.st21{fill:#EF4423;}
	.st22{fill:#A09F9F;}
	.st23{fill:#AD4967;}
	.st24{fill:#85C441;}
	.st25{fill:#C53227;}
	.st26{fill:#7B7B7B;}
	.st27{fill:#B0B0B0;}
	.st28{fill:#4C4C4D;}
	.st29{fill:#8E8E8E;}
	.st30{fill:#BCBCBC;}
	.st31{fill:#212121;}
	.st32{fill:#DDDDDD;}
	.st33{fill:#B7B7B7;}
	.st34{fill:#F04A4A;}
	.st35{fill:#FDB523;}
	.st36{fill:#4AB749;}
	.st37{fill:#CCCCCB;}
	.st38{fill:#DBD622;}
	.st39{fill:#58C099;}
	.st40{fill:#4062AE;}
	.st41{fill:#D9D327;}
	.st42{fill:#4DA547;}
	.st43{fill:#49BB83;}
	.st44{fill:#6B50A1;}
	.st45{fill:#CD862A;}
	.st46{fill:#483E98;}
	.st47{fill:#A65926;}
	.st48{fill:#78C143;}
	.st49{fill:#32C0D1;}
	.st50{fill:#636464;}
	.st51{fill:#643584;}
	.st52{fill:#DC8727;}
	.st53{fill:#B56C29;}
	.st54{fill:#CC7A29;}
	.st55{fill:#A3A1A1;}
	.st56{fill:#167F70;}
	.st57{fill:#1AAF9A;}
	.st58{fill:#DCDBDB;}
	.st59{fill:#6BBE45;}
	.st60{fill:#43AF49;}
	.st61{fill:#62A844;}
	.st62{fill:#CE2E27;}
	.st63{fill:#8F1D1D;}
	.st64{fill:#BA2626;}
	.st65{fill:#753C97;}
	.st66{fill:#4D2966;}
	.st67{fill:#D9E028;}
	.st68{fill:#A3A537;}
	.st69{fill:#C5C62F;}
	.st70{fill:#B69830;}
	.st71{fill:#DDA82F;}
	.st72{fill:#D29B3C;}
	.st73{fill:#CB922B;}
	.st74{fill:#963D97;}
	.st75{fill:#833677;}
	.st76{fill:#973D8F;}
	.st77{fill:#83367E;}
	.st78{fill:#14475D;}
	.st79{fill:#06ABCD;}
	.st80{fill:#D0CECF;}
	.st81{fill:#D8D8D8;}
	.st82{opacity:0.4;}
	.st83{fill:#ACA99F;}
	.st84{fill:#367D93;}
	.st85{fill:#EEEAE1;}
	.st86{fill:#45ABCC;}
	.st87{fill:url(#SVGID_1_);}
	.st88{fill:url(#SVGID_2_);}
	.st89{fill:#789DA9;}
	.st90{fill:url(#SVGID_3_);}
	.st91{fill:url(#SVGID_4_);}
	.st92{fill:#63BBCC;}
	.st93{fill:#2D7482;}
	.st94{fill:#126C5F;}
	.st95{fill:#158372;}
	.st96{fill:#1A9684;}
	.st97{fill:#39B54A;}
</style>
<g>
	<polygon class="st65" points="156.7,151 79.1,106.2 79.1,2.8 156.7,47.6 	"/>
	<polygon class="st66" points="156.7,151 79.1,195.8 1.5,151 79.1,106.2 	"/>
	<path class="st51" d="M1.4,47.9v103.4l78-44.8V3.1L1.4,47.9z M66.6,27.1L66.6,27.1c-0.4,4-3.6,9-7.2,11L24.1,58.5
		c-3.5,2-6.1,0.4-5.7-3.6v0c0.4-4,3.6-9,7.2-11l35.3-20.4C64.4,21.5,67,23.1,66.6,27.1z"/>
	<g>
		<g>
			<polygon class="st62" points="94.2,37.4 79.1,46.1 63.9,37.4 79.1,28.6 			"/>
			<polygon class="st63" points="79.1,66.3 63.9,57.5 63.9,37.4 79.1,46.1 			"/>
			<polygon class="st64" points="94.2,57.5 79.1,66.3 79.1,46.1 94.2,37.4 			"/>
		</g>
		<g>
			<path class="st8" d="M80.5,42.8l-0.6-0.4c-0.7-0.4-1.1-1-0.8-1.5l1.1-3l4.7,1.8l-2.8,3C81.8,43.1,81,43.1,80.5,42.8z"/>
			<path class="st8" d="M68.8,36l0.3,0.2c0.7,0.4,1.8,0.6,2.6,0.5l5.4-0.5L74,33.5l-5.2,1.6C68.3,35.3,68.2,35.8,68.8,36z"/>
			<path class="st8" d="M86.7,36.5c-0.4-0.2-0.9-0.4-1.5-0.5l-4.2-2.4c-0.1-0.3-0.4-0.6-0.8-0.9c-1.4-0.8-3.7-0.7-5.3,0.2
				c-1.6,0.9-1.7,2.3-0.4,3.1c0.6,0.3,1.4,0.5,2.3,0.5l3.3,1.9c0,0.5,0.3,1,0.9,1.3c1.4,0.8,3.7,0.7,5.3-0.2
				C87.9,38.6,88.1,37.3,86.7,36.5z M78.3,34.8l-0.7-0.4l-0.9,0.5L76,34.6L77,34l-0.8-0.5l0.7-0.4l0.8,0.5l0.8-0.5l0.6,0.3L78.3,34
				l0.7,0.4L78.3,34.8z M82.9,37.7c-0.2-0.1-0.2-0.4,0.1-0.5c0.3-0.2,0.7-0.2,0.9,0c0.2,0.1,0.2,0.4-0.1,0.5
				C83.6,37.8,83.1,37.8,82.9,37.7z M82.7,39c-0.2-0.1-0.2-0.4,0.1-0.5s0.7-0.2,0.9,0c0.2,0.1,0.2,0.4-0.1,0.5
				C83.4,39.1,83,39.2,82.7,39z M85.2,37.6c-0.2-0.1-0.2-0.4,0.1-0.5c0.3-0.2,0.7-0.2,0.9,0c0.2,0.1,0.2,0.4-0.1,0.5
				C85.8,37.7,85.4,37.7,85.2,37.6z M85,38.9c-0.2-0.1-0.2-0.4,0.1-0.5c0.3-0.2,0.7-0.2,0.9,0c0.2,0.1,0.2,0.4-0.1,0.5
				C85.7,39,85.2,39.1,85,38.9z"/>
		</g>
	</g>
	<g>
		<g>
			<polygon class="st1" points="109.7,46 94.6,54.4 79.4,46 94.6,37.6 			"/>
			<polygon class="st56" points="94.6,73.8 79.4,65.4 79.4,46 94.6,54.4 			"/>
			<polygon class="st57" points="109.7,65.4 94.6,73.8 94.6,54.4 109.7,46 			"/>
		</g>
		<path class="st58" d="M101.8,43c-3.4-1.9-8.6-2-11.7-0.3c-1.7,0.9-2.4,2.2-2.1,3.5c0,0-1,0.7-4.1,0.5c0,0,1.2,1.5,5.2,1.3
			c0.4,0.4,0.9,0.8,1.5,1.1c3.4,1.9,8.6,2,11.7,0.3C105.4,47.8,105.2,44.9,101.8,43z"/>
	</g>
	<g>
		<g>
			<polygon class="st59" points="124.9,54.6 109.7,63.4 94.6,54.6 109.7,45.9 			"/>
			<polygon class="st60" points="109.7,83.6 94.6,74.8 94.6,54.6 109.7,63.4 			"/>
			<polygon class="st61" points="124.9,74.8 109.7,83.6 109.7,63.4 124.9,54.6 			"/>
		</g>
		<g>
			<path class="st8" d="M117.6,54.2l-3.6,0.5c0,0.8-0.5,1.6-1.7,2.3c-0.1,0.1-0.3,0.2-0.4,0.2l1.8,1.7c0.4-0.2,0.7-0.3,1.1-0.5
				C116.8,57.2,117.8,55.6,117.6,54.2z"/>
			<g>
				<path class="st8" d="M105.8,57.4c-0.1,0-0.2-0.1-0.3-0.2c-1.7-1-1.5-2.8,0.5-3.9c2-1.2,5.1-1.3,6.8-0.3c0.5,0.3,0.9,0.7,1.1,1.1
					l3.6-0.5c-0.3-0.8-0.9-1.6-1.9-2.2c-3.1-1.8-8.4-1.5-12,0.5c-3.5,2-3.9,5.1-0.9,6.9c0.3,0.2,0.6,0.3,0.9,0.4L105.8,57.4z"/>
				<path class="st8" d="M111,57.6c-1.5,0.5-3.2,0.5-4.5,0.2l-2.2,1.8c2.5,0.8,5.7,0.6,8.4-0.3L111,57.6z"/>
			</g>
		</g>
	</g>
	<g>
		<g>
			<polygon class="st59" points="79.2,46.1 64.1,54.9 48.9,46.1 64.1,37.4 			"/>
			<polygon class="st60" points="64.1,75.1 48.9,66.3 48.9,46.1 64.1,54.9 			"/>
			<polygon class="st61" points="79.2,66.3 64.1,75.1 64.1,54.9 79.2,46.1 			"/>
		</g>
		<g>
			<path class="st8" d="M71.9,45.7l-3.6,0.5c0,0.8-0.5,1.6-1.7,2.3c-0.1,0.1-0.3,0.2-0.4,0.2l1.8,1.7c0.4-0.2,0.7-0.3,1.1-0.5
				C71.1,48.7,72.1,47.1,71.9,45.7z"/>
			<g>
				<path class="st8" d="M60.1,48.9c-0.1,0-0.2-0.1-0.3-0.2c-1.7-1-1.5-2.8,0.5-3.9s5.1-1.3,6.8-0.3c0.5,0.3,0.9,0.7,1.1,1.1
					l3.6-0.5c-0.3-0.8-0.9-1.6-1.9-2.2c-3.1-1.8-8.4-1.5-12,0.5c-3.5,2-3.9,5.1-0.9,6.9c0.3,0.2,0.6,0.3,0.9,0.4L60.1,48.9z"/>
				<path class="st8" d="M65.4,49.1c-1.5,0.5-3.2,0.5-4.5,0.2l-2.2,1.8c2.5,0.8,5.7,0.6,8.4-0.3L65.4,49.1z"/>
			</g>
		</g>
	</g>
	<g>
		<g>
			<polygon class="st67" points="140.6,63.6 125.4,72.3 110.3,63.6 125.4,54.9 			"/>
			<polygon class="st68" points="125.4,92.5 110.3,83.8 110.3,63.6 125.4,72.3 			"/>
			<polygon class="st69" points="140.6,83.8 125.4,92.5 125.4,72.3 140.6,63.6 			"/>
		</g>
		<g>
			<path class="st8" d="M131.6,63.5c-2,1.1-4.9,1.3-6.6,0.3c-1.7-1-1.5-2.7,0.5-3.8c2-1.1,4.9-1.3,6.6-0.3
				C133.8,60.6,133.6,62.3,131.6,63.5z"/>
			<path class="st8" d="M126.3,69.2c1.4-1.8,1-3.8-1.3-5.1s-5.7-1.6-8.9-0.7L126.3,69.2z"/>
		</g>
	</g>
	<g>
		<g>
			<polygon class="st52" points="155.7,73.6 140.5,82.3 125.4,73.6 140.5,64.8 			"/>
			<polygon class="st53" points="140.5,102.5 125.4,93.8 125.4,73.6 140.5,82.3 			"/>
			<polygon class="st54" points="155.7,93.8 140.5,102.5 140.5,82.3 155.7,73.6 			"/>
		</g>
		<g>
			<polygon class="st37" points="142.4,78.5 131.8,72.3 138.9,68.2 149.6,74.3 			"/>
			<path class="st55" d="M149.4,74.5l-7.1-0.4c-1.4-0.1-2.5-0.7-2.6-1.5l-0.6-4.1l-0.2-0.1l-0.2,0.1l0.6,4.1
				c0.1,0.5,0.4,0.8,0.9,1.1c0.5,0.3,1.2,0.5,2,0.5l7.2,0.4l0.2-0.1L149.4,74.5z"/>
			<polygon class="st55" points="131.9,72.6 139.5,72.7 139.6,72.6 131.9,72.4 131.8,72.3 131.8,72.3 			"/>
			<polygon class="st55" points="142.6,78.7 142.4,74.3 142.1,74.3 142.3,78.7 142.4,78.8 142.4,78.8 			"/>
		</g>
	</g>
	<g>
		<g>
			<polygon class="st52" points="94.7,55.4 79.5,64.2 64.4,55.4 79.5,46.7 			"/>
			<polygon class="st53" points="79.5,84.4 64.4,75.6 64.4,55.4 79.5,64.2 			"/>
			<polygon class="st54" points="94.7,75.6 79.5,84.4 79.5,64.2 94.7,55.4 			"/>
		</g>
		<g>
			<polygon class="st37" points="81.4,60.3 70.8,54.2 77.9,50 88.6,56.2 			"/>
			<path class="st55" d="M88.4,56.4L81.3,56c-1.4-0.1-2.5-0.7-2.6-1.5l-0.6-4.1l-0.2-0.1l-0.2,0.1l0.6,4.1c0.1,0.5,0.4,0.8,0.9,1.1
				c0.5,0.3,1.2,0.5,2,0.5l7.2,0.4l0.2-0.1L88.4,56.4z"/>
			<polygon class="st55" points="71,54.5 78.5,54.6 78.6,54.4 71,54.3 70.8,54.3 70.8,54.3 			"/>
			<polygon class="st55" points="81.6,60.5 81.4,56.1 81.1,56.1 81.3,60.5 81.5,60.6 81.5,60.6 			"/>
		</g>
	</g>
	<g>
		<g>
			<polygon class="st62" points="109.7,63.5 94.6,72.2 79.4,63.5 94.6,54.7 			"/>
			<polygon class="st63" points="94.6,92.4 79.4,83.7 79.4,63.5 94.6,72.2 			"/>
			<polygon class="st64" points="109.7,83.7 94.6,92.4 94.6,72.2 109.7,63.5 			"/>
		</g>
		<g>
			<path class="st8" d="M96,69l-0.6-0.4c-0.7-0.4-1.1-1-0.8-1.5l1.1-3l4.7,1.8l-2.8,3C97.2,69.2,96.5,69.2,96,69z"/>
			<path class="st8" d="M84.2,62.2l0.3,0.2c0.7,0.4,1.8,0.6,2.6,0.5l5.4-0.5l-3.1-2.7l-5.2,1.6C83.8,61.4,83.7,61.9,84.2,62.2z"/>
			<path class="st8" d="M102.2,62.6c-0.4-0.2-0.9-0.4-1.5-0.5l-4.2-2.4c-0.1-0.3-0.4-0.6-0.8-0.9c-1.4-0.8-3.7-0.7-5.3,0.2
				c-1.6,0.9-1.7,2.3-0.4,3.1c0.6,0.3,1.4,0.5,2.3,0.5l3.3,1.9c0,0.5,0.3,1,0.9,1.3c1.4,0.8,3.7,0.7,5.3-0.2
				C103.4,64.8,103.6,63.4,102.2,62.6z M93.7,60.9L93,60.5l-0.9,0.5l-0.6-0.3l0.9-0.5l-0.8-0.5l0.7-0.4l0.8,0.5l0.8-0.5l0.6,0.3
				l-0.8,0.5l0.7,0.4L93.7,60.9z M98.4,63.8c-0.2-0.1-0.2-0.4,0.1-0.5c0.3-0.2,0.7-0.2,0.9,0c0.2,0.1,0.2,0.4-0.1,0.5
				C99,64,98.6,64,98.4,63.8z M98.2,65.2C98,65,98,64.8,98.3,64.6c0.3-0.2,0.7-0.2,0.9,0s0.2,0.4-0.1,0.5S98.5,65.3,98.2,65.2z
				 M100.6,63.8c-0.2-0.1-0.2-0.4,0.1-0.5c0.3-0.2,0.7-0.2,0.9,0c0.2,0.1,0.2,0.4-0.1,0.5C101.3,63.9,100.9,63.9,100.6,63.8z
				 M100.5,65.1c-0.2-0.1-0.2-0.4,0.1-0.5c0.3-0.2,0.7-0.2,0.9,0c0.2,0.1,0.2,0.4-0.1,0.5C101.1,65.2,100.7,65.2,100.5,65.1z"/>
		</g>
	</g>
	<g>
		<g>
			<polygon class="st1" points="124.2,72.7 109,81.1 93.9,72.7 109,64.3 			"/>
			<polygon class="st56" points="109,100.5 93.9,92.1 93.9,72.7 109,81.1 			"/>
			<polygon class="st57" points="124.2,92.1 109,100.5 109,81.1 124.2,72.7 			"/>
		</g>
		<path class="st58" d="M116.3,69.7c-3.4-1.9-8.6-2-11.7-0.3c-1.7,0.9-2.4,2.2-2.1,3.5c0,0-1,0.7-4.1,0.5c0,0,1.2,1.5,5.2,1.3
			c0.4,0.4,0.9,0.8,1.5,1.1c3.4,1.9,8.6,2,11.7,0.3S119.7,71.6,116.3,69.7z"/>
	</g>
	<g>
		<g>
			<polygon class="st1" points="64.1,54.5 48.9,62.9 33.8,54.5 48.9,46.1 			"/>
			<polygon class="st56" points="48.9,82.3 33.8,73.9 33.8,54.5 48.9,62.9 			"/>
			<polygon class="st57" points="64.1,73.9 48.9,82.3 48.9,62.9 64.1,54.5 			"/>
		</g>
		<path class="st58" d="M56.2,51.5c-3.4-1.9-8.6-2-11.7-0.3c-1.7,0.9-2.4,2.2-2.1,3.5c0,0-1,0.7-4.1,0.5c0,0,1.2,1.5,5.2,1.3
			c0.4,0.4,0.9,0.8,1.5,1.1c3.4,1.9,8.6,2,11.7,0.3S59.5,53.4,56.2,51.5z"/>
	</g>
	<g>
		<g>
			<polygon class="st67" points="138.9,80 123.7,88.8 108.6,80 123.7,71.3 			"/>
			<polygon class="st68" points="123.7,109 108.6,100.2 108.6,80 123.7,88.8 			"/>
			<polygon class="st69" points="138.9,100.2 123.7,109 123.7,88.8 138.9,80 			"/>
		</g>
		<g>
			<path class="st8" d="M129.9,79.9c-2,1.1-4.9,1.3-6.6,0.3c-1.7-1-1.5-2.7,0.5-3.8c2-1.1,4.9-1.3,6.6-0.3
				C132.1,77.1,131.9,78.8,129.9,79.9z"/>
			<path class="st8" d="M124.6,85.6c1.4-1.8,1-3.8-1.3-5.1c-2.3-1.3-5.7-1.6-8.9-0.7L124.6,85.6z"/>
		</g>
	</g>
	<g>
		<g>
			<polygon class="st67" points="79.3,63.3 64.2,72.1 49,63.3 64.2,54.6 			"/>
			<polygon class="st68" points="64.2,92.3 49,83.5 49,63.3 64.2,72.1 			"/>
			<polygon class="st69" points="79.3,83.5 64.2,92.3 64.2,72.1 79.3,63.3 			"/>
		</g>
		<g>
			<path class="st8" d="M70.4,63.2c-2,1.1-4.9,1.3-6.6,0.3c-1.7-1-1.5-2.7,0.5-3.8c2-1.1,4.9-1.3,6.6-0.3
				C72.6,60.3,72.3,62,70.4,63.2z"/>
			<path class="st8" d="M65,68.9c1.4-1.8,1-3.8-1.3-5.1c-2.3-1.3-5.7-1.6-8.9-0.7L65,68.9z"/>
		</g>
	</g>
	<g>
		<g>
			<polygon class="st67" points="49,63.3 33.8,72.1 18.7,63.3 33.8,54.6 			"/>
			<polygon class="st68" points="33.8,92.3 18.7,83.5 18.7,63.3 33.8,72.1 			"/>
			<polygon class="st69" points="49,83.5 33.8,92.3 33.8,72.1 49,63.3 			"/>
		</g>
		<g>
			<path class="st8" d="M40,63.2c-2,1.1-4.9,1.3-6.6,0.3c-1.7-1-1.5-2.7,0.5-3.8s4.9-1.3,6.6-0.3C42.2,60.3,42,62,40,63.2z"/>
			<path class="st8" d="M34.7,68.9c1.4-1.8,1-3.8-1.3-5.1c-2.3-1.3-5.7-1.6-8.9-0.7L34.7,68.9z"/>
		</g>
	</g>
	<g>
		<g>
			<polygon class="st59" points="94.8,72.2 79.7,81 64.5,72.2 79.7,63.5 			"/>
			<polygon class="st60" points="79.7,101.2 64.5,92.4 64.5,72.2 79.7,81 			"/>
			<polygon class="st61" points="94.8,92.4 79.7,101.2 79.7,81 94.8,72.2 			"/>
		</g>
		<g>
			<path class="st8" d="M87.5,71.7l-3.6,0.5c0,0.8-0.5,1.6-1.7,2.3c-0.1,0.1-0.3,0.2-0.4,0.2l1.8,1.7c0.4-0.2,0.7-0.3,1.1-0.5
				C86.7,74.8,87.7,73.2,87.5,71.7z"/>
			<g>
				<path class="st8" d="M75.7,75c-0.1,0-0.2-0.1-0.3-0.2c-1.7-1-1.5-2.8,0.5-3.9s5.1-1.3,6.8-0.3c0.5,0.3,0.9,0.7,1.1,1.1l3.6-0.5
					c-0.3-0.8-0.9-1.6-1.9-2.2c-3.1-1.8-8.4-1.5-12,0.5s-3.9,5.1-0.9,6.9c0.3,0.2,0.6,0.3,0.9,0.4L75.7,75z"/>
				<path class="st8" d="M81,75.1c-1.5,0.5-3.2,0.5-4.5,0.2l-2.2,1.8c2.5,0.8,5.7,0.6,8.4-0.3L81,75.1z"/>
			</g>
		</g>
	</g>
	<g>
		<g>
			<polygon class="st52" points="110,81 94.9,89.7 79.7,81 94.9,72.2 			"/>
			<polygon class="st53" points="94.9,109.9 79.7,101.2 79.7,81 94.9,89.7 			"/>
			<polygon class="st54" points="110,101.2 94.9,109.9 94.9,89.7 110,81 			"/>
		</g>
		<g>
			<polygon class="st37" points="96.8,85.8 86.1,79.7 93.2,75.6 103.9,81.7 			"/>
			<path class="st55" d="M103.7,81.9l-7.1-0.4c-1.4-0.1-2.5-0.7-2.6-1.5L93.4,76l-0.2-0.1l-0.2,0.1l0.6,4.1c0.1,0.5,0.4,0.8,0.9,1.1
				c0.5,0.3,1.2,0.5,2,0.5l7.2,0.4l0.2-0.1L103.7,81.9z"/>
			<polygon class="st55" points="86.3,79.8 93.8,80 93.9,79.9 86.3,79.5 86.1,79.3 86.1,79.3 			"/>
			<polygon class="st55" points="96.9,86 96.8,81.6 96.4,81.7 96.6,86 96.8,86.1 96.8,86.1 			"/>
		</g>
	</g>
	<g>
		<g>
			<polygon class="st62" points="125.3,90.4 110.2,99.1 95,90.4 110.2,81.6 			"/>
			<polygon class="st63" points="110.2,119.3 95,110.6 95,90.4 110.2,99.1 			"/>
			<polygon class="st64" points="125.3,110.6 110.2,119.3 110.2,99.1 125.3,90.4 			"/>
		</g>
		<g>
			<path class="st8" d="M111.6,95.8l-0.6-0.4c-0.7-0.4-1.1-1-0.8-1.5l1.1-3l4.7,1.8l-2.8,3C112.9,96.1,112.1,96.1,111.6,95.8z"/>
			<path class="st8" d="M99.9,89.1l0.3,0.2c0.7,0.4,1.8,0.6,2.6,0.5l5.4-0.5l-3.1-2.7l-5.2,1.6C99.4,88.3,99.4,88.8,99.9,89.1z"/>
			<path class="st8" d="M117.8,89.5c-0.4-0.2-0.9-0.4-1.5-0.5l-4.2-2.4c-0.1-0.3-0.4-0.6-0.8-0.9c-1.4-0.8-3.7-0.7-5.3,0.2
				c-1.6,0.9-1.7,2.3-0.4,3.1c0.6,0.3,1.4,0.5,2.3,0.5l3.3,1.9c0,0.5,0.3,1,0.9,1.3c1.4,0.8,3.7,0.7,5.3-0.2
				C119,91.6,119.2,90.3,117.8,89.5z M109.4,87.8l-0.7-0.4l-0.9,0.5l-0.6-0.3l0.9-0.5l-0.8-0.5l0.7-0.4l0.8,0.5l0.8-0.5l0.6,0.3
				l-0.8,0.5l0.7,0.4L109.4,87.8z M114,90.7c-0.2-0.1-0.2-0.4,0.1-0.5s0.7-0.2,0.9,0c0.2,0.1,0.2,0.4-0.1,0.5
				C114.7,90.8,114.2,90.9,114,90.7z M113.8,92c-0.2-0.1-0.2-0.4,0.1-0.5c0.3-0.2,0.7-0.2,0.9,0s0.2,0.4-0.1,0.5
				S114.1,92.2,113.8,92z M116.3,90.6c-0.2-0.1-0.2-0.4,0.1-0.5c0.3-0.2,0.7-0.2,0.9,0s0.2,0.4-0.1,0.5
				C116.9,90.7,116.5,90.8,116.3,90.6z M116.1,91.9c-0.2-0.1-0.2-0.4,0.1-0.5c0.3-0.2,0.7-0.2,0.9,0c0.2,0.1,0.2,0.4-0.1,0.5
				C116.8,92.1,116.3,92.1,116.1,91.9z"/>
		</g>
	</g>
	<g>
		<g>
			<polygon class="st62" points="64.5,72.1 49.4,80.8 34.2,72.1 49.4,63.3 			"/>
			<polygon class="st63" points="49.4,101 34.2,92.3 34.2,72.1 49.4,80.8 			"/>
			<polygon class="st64" points="64.5,92.3 49.4,101 49.4,80.8 64.5,72.1 			"/>
		</g>
		<g>
			<path class="st8" d="M50.7,77.5l-0.6-0.4c-0.7-0.4-1.1-1-0.8-1.5l1.1-3l4.7,1.8l-2.8,3C52,77.8,51.3,77.8,50.7,77.5z"/>
			<path class="st8" d="M39,70.8l0.3,0.2c0.7,0.4,1.8,0.6,2.6,0.5l5.4-0.5l-3.1-2.7l-5.2,1.6C38.5,70,38.5,70.5,39,70.8z"/>
			<path class="st8" d="M57,71.2c-0.4-0.2-0.9-0.4-1.5-0.5l-4.2-2.4c-0.1-0.3-0.4-0.6-0.8-0.9c-1.4-0.8-3.7-0.7-5.3,0.2
				c-1.6,0.9-1.7,2.3-0.4,3.1c0.6,0.3,1.4,0.5,2.3,0.5l3.3,1.9c0,0.5,0.3,1,0.9,1.3c1.4,0.8,3.7,0.7,5.3-0.2
				C58.2,73.3,58.4,72,57,71.2z M48.5,69.5l-0.7-0.4l-0.9,0.5l-0.6-0.3l0.9-0.5l-0.8-0.5l0.7-0.4l0.8,0.5l0.8-0.5l0.6,0.3l-0.8,0.5
				l0.7,0.4L48.5,69.5z M53.2,72.4c-0.2-0.1-0.2-0.4,0.1-0.5c0.3-0.2,0.7-0.2,0.9,0c0.2,0.1,0.2,0.4-0.1,0.5
				C53.8,72.6,53.4,72.6,53.2,72.4z M53,73.7c-0.2-0.1-0.2-0.4,0.1-0.5c0.3-0.2,0.7-0.2,0.9,0c0.2,0.1,0.2,0.4-0.1,0.5
				C53.7,73.9,53.2,73.9,53,73.7z M55.4,72.3c-0.2-0.1-0.2-0.4,0.1-0.5c0.3-0.2,0.7-0.2,0.9,0c0.2,0.1,0.2,0.4-0.1,0.5
				C56.1,72.5,55.7,72.5,55.4,72.3z M55.3,73.7c-0.2-0.1-0.2-0.4,0.1-0.5c0.3-0.2,0.7-0.2,0.9,0c0.2,0.1,0.2,0.4-0.1,0.5
				C55.9,73.8,55.5,73.8,55.3,73.7z"/>
		</g>
	</g>
	<g>
		<g>
			<polygon class="st1" points="79.7,80.6 64.5,89 49.4,80.6 64.5,72.2 			"/>
			<polygon class="st56" points="64.5,108.4 49.4,100 49.4,80.6 64.5,89 			"/>
			<polygon class="st57" points="79.7,100 64.5,108.4 64.5,89 79.7,80.6 			"/>
		</g>
		<path class="st58" d="M71.8,77.6c-3.4-1.9-8.6-2-11.7-0.3c-1.7,0.9-2.4,2.2-2.1,3.5c0,0-1,0.7-4.1,0.5c0,0,1.2,1.5,5.2,1.3
			c0.4,0.4,0.9,0.8,1.5,1.1c3.4,1.9,8.6,2,11.7,0.3C75.4,82.4,75.1,79.5,71.8,77.6z"/>
	</g>
	<g>
		<g>
			<polygon class="st59" points="94.8,89.5 79.7,98.3 64.5,89.5 79.7,80.8 			"/>
			<polygon class="st60" points="79.7,118.5 64.5,109.7 64.5,89.5 79.7,98.3 			"/>
			<polygon class="st61" points="94.8,109.7 79.7,118.5 79.7,98.3 94.8,89.5 			"/>
		</g>
		<g>
			<path class="st8" d="M87.5,89l-3.6,0.5c0,0.8-0.5,1.6-1.7,2.3C82.1,92,82,92,81.8,92.1l1.8,1.7c0.4-0.2,0.7-0.3,1.1-0.5
				C86.7,92.1,87.7,90.5,87.5,89z"/>
			<g>
				<path class="st8" d="M75.7,92.3c-0.1,0-0.2-0.1-0.3-0.2c-1.7-1-1.5-2.8,0.5-3.9s5.1-1.3,6.8-0.3c0.5,0.3,0.9,0.7,1.1,1.1
					l3.6-0.5c-0.3-0.8-0.9-1.6-1.9-2.2c-3.1-1.8-8.4-1.5-12,0.5c-3.5,2-3.9,5.1-0.9,6.9c0.3,0.2,0.6,0.3,0.9,0.4L75.7,92.3z"/>
				<path class="st8" d="M81,92.4c-1.5,0.5-3.2,0.5-4.5,0.2l-2.2,1.8c2.5,0.8,5.7,0.6,8.4-0.3L81,92.4z"/>
			</g>
		</g>
	</g>
	<g>
		<g>
			<polygon class="st52" points="110,98.3 94.9,107 79.7,98.3 94.9,89.5 			"/>
			<polygon class="st53" points="94.9,127.2 79.7,118.5 79.7,98.3 94.9,107 			"/>
			<polygon class="st54" points="110,118.5 94.9,127.2 94.9,107 110,98.3 			"/>
		</g>
		<g>
			<polygon class="st37" points="96.8,103.1 86.1,97 93.2,92.9 103.9,99 			"/>
			<path class="st55" d="M103.7,99.2l-7.1-0.4c-1.4-0.1-2.5-0.7-2.6-1.5l-0.6-4.1l-0.2-0.1l-0.2,0.1l0.6,4.1
				c0.1,0.5,0.4,0.8,0.9,1.1c0.5,0.3,1.2,0.5,2,0.5l7.2,0.4l0.2-0.1L103.7,99.2z"/>
			<polygon class="st55" points="86.3,96.9 93.8,97.2 93.9,97.2 86.3,96.7 86.1,96.3 86.1,96.3 			"/>
			<polygon class="st55" points="96.9,103.3 96.8,98.9 96.4,99 96.6,103.3 96.8,103.4 96.8,103.4 			"/>
		</g>
	</g>
	<polygon class="st65" points="79.1,195.7 1.5,150.9 1.5,47.5 79.1,92.2 	"/>
	<path class="st51" d="M79.4,92.5V196l78-44.8V47.8L79.4,92.5z M144.2,71.8L144.2,71.8c-0.4,4-3.6,9-7.2,11l-35.3,20.4
		c-3.5,2-6.1,0.4-5.7-3.6v0c0.4-4,3.6-9,7.2-11l35.3-20.4C142,66.2,144.6,67.8,144.2,71.8z"/>
</g>
</svg>
