<?xml version="1.0" encoding="utf-8"?>
<!-- Generator: Adobe Illustrator 20.0.0, SVG Export Plug-In . SVG Version: 6.00 Build 0)  -->
<!DOCTYPE svg PUBLIC "-//W3C//DTD SVG 1.1//EN" "http://www.w3.org/Graphics/SVG/1.1/DTD/svg11.dtd">
<svg version="1.1" id="Layer_1" xmlns="http://www.w3.org/2000/svg" xmlns:xlink="http://www.w3.org/1999/xlink" x="0px" y="0px"
	 viewBox="0 0 375 2673.2" style="enable-background:new 0 0 375 2673.2;" xml:space="preserve">
<style type="text/css">
	.st0{fill:#091410;}
	.st1{fill:#1BA897;}
	.st2{fill:#FBEE2D;}
	.st3{fill:#D5C529;}
	.st4{fill:#C4B22F;}
	.st5{font-family:'RussoOne-Regular';}
	.st6{font-size:43.2045px;}
	.st7{fill:#603240;}
	.st8{fill:#F1F2F2;}
	.st9{fill:#A52E23;}
	.st10{fill:#FFFFFF;}
	.st11{font-family:'Oxygen-Regular';}
	.st12{font-size:18px;}
	.st13{fill:#FDFEFE;}
	.st14{fill:#939598;}
	.st15{fill:#808285;}
	.st16{fill:#BCBEC0;}
	.st17{fill:#E6E7E8;}
	.st18{fill:#414042;}
	.st19{fill:#D1D3D4;}
	.st20{font-size:27.6598px;}
	.st21{fill:none;}
	.st22{font-size:9.2199px;}
	.st23{font-size:26.7075px;}
	.st24{font-size:8.9025px;}
	.st25{font-size:8.0476px;}
	.st26{fill:#491B0D;}
	.st27{fill:#D84426;}
	.st28{fill:#93AC4C;}
	.st29{fill:#126F63;}
	.st30{fill:#E0C93A;}
	.st31{fill:#EF4423;}
	.st32{fill:#A09F9F;}
	.st33{fill:#AD4967;}
	.st34{fill:#85C441;}
	.st35{fill:#C53227;}
	.st36{fill:#7B7B7B;}
	.st37{fill:#B0B0B0;}
	.st38{fill:#4C4C4D;}
	.st39{fill:#8E8E8E;}
	.st40{fill:#BCBCBC;}
	.st41{fill:#212121;}
	.st42{fill:#DDDDDD;}
	.st43{fill:#B7B7B7;}
	.st44{fill:#F04A4A;}
	.st45{fill:#FDB523;}
	.st46{fill:#4AB749;}
	.st47{fill:#CCCCCB;}
	.st48{fill:#DBD622;}
	.st49{fill:#58C099;}
	.st50{fill:#4062AE;}
	.st51{fill:#D9D327;}
	.st52{fill:#4DA547;}
	.st53{fill:#49BB83;}
	.st54{fill:#6B50A1;}
	.st55{fill:#CD862A;}
	.st56{fill:#483E98;}
	.st57{fill:#A65926;}
	.st58{fill:#78C143;}
	.st59{fill:#32C0D1;}
	.st60{fill:#636464;}
	.st61{fill:#643584;}
	.st62{fill:#DC8727;}
	.st63{fill:#B56C29;}
	.st64{fill:#CC7A29;}
	.st65{fill:#A3A1A1;}
	.st66{fill:#167F70;}
	.st67{fill:#1AAF9A;}
	.st68{fill:#DCDBDB;}
	.st69{fill:#6BBE45;}
	.st70{fill:#43AF49;}
	.st71{fill:#62A844;}
	.st72{fill:#CE2E27;}
	.st73{fill:#8F1D1D;}
	.st74{fill:#BA2626;}
	.st75{fill:#753C97;}
	.st76{fill:#4D2966;}
	.st77{fill:#D9E028;}
	.st78{fill:#A3A537;}
	.st79{fill:#C5C62F;}
	.st80{fill:#B69830;}
	.st81{fill:#DDA82F;}
	.st82{fill:#D29B3C;}
	.st83{fill:#CB922B;}
	.st84{fill:#963D97;}
	.st85{fill:#833677;}
	.st86{fill:#973D8F;}
	.st87{fill:#83367E;}
	.st88{fill:#14475D;}
	.st89{fill:#06ABCD;}
	.st90{fill:#D0CECF;}
	.st91{fill:#D8D8D8;}
	.st92{opacity:0.4;}
	.st93{fill:#ACA99F;}
	.st94{fill:#367D93;}
	.st95{fill:#EEEAE1;}
	.st96{fill:#45ABCC;}
	.st97{fill:url(#SVGID_1_);}
	.st98{fill:url(#SVGID_2_);}
	.st99{fill:#789DA9;}
	.st100{fill:url(#SVGID_3_);}
	.st101{fill:url(#SVGID_4_);}
	.st102{fill:#63BBCC;}
	.st103{fill:#2D7482;}
	.st104{fill:#126C5F;}
	.st105{fill:#158372;}
	.st106{fill:#1A9684;}
	.st107{fill:#39B54A;}
</style>
<rect class="st0" width="375" height="667"/>
<text transform="matrix(1 0 0 1 73.1518 356.1465)" class="st1 st5 st6">frugality</text>
<g>
	<g>
		<path class="st2" d="M68.1,350.4l0-5.5l-7,0.6c-1.6-0.1-3.3,0-5,0.4l-7,0.6l0,4.4c-0.1,0.7,0.5,3.1,2.4,4.1
			c3.4,2,9.4,1.8,13.4-0.5C67,353.4,68.1,351.7,68.1,350.4L68.1,350.4z"/>
		<path class="st3" d="M64.9,349.4c-4,2.3-10,2.5-13.4,0.6c-3.4-2-3-5.5,1-7.8c4-2.3,10-2.5,13.4-0.6
			C69.3,343.7,68.8,347.2,64.9,349.4z"/>
	</g>
	<g>
		<path class="st2" d="M68.1,343.9l0-5.5l-7,0.5c-1.6-0.1-3.3,0-5,0.4l-7,0.6l0,4.4c-0.1,0.7,0.5,3.1,2.4,4.1
			c3.4,2,9.4,1.9,13.4-0.4C67,346.8,68.1,344.9,68.1,343.9L68.1,343.9z"/>
		<path class="st3" d="M64.9,342.8c-4,2.3-10,2.5-13.4,0.6c-3.4-2-3-5.5,1-7.8c4-2.3,10-2.5,13.4-0.6
			C69.3,337,68.8,340.5,64.9,342.8z"/>
	</g>
	<g>
		<path class="st2" d="M68.1,337.3l0-5.4l-7,0.6c-1.6-0.1-3.3,0-5,0.4l-7,0.6l0,4.5c-0.1,0.7,0.5,3.1,2.4,4.1
			c3.4,2,9.4,1.7,13.4-0.6C67,340.4,68.1,338.6,68.1,337.3L68.1,337.3z"/>
		<path class="st3" d="M64.9,336.5c-4,2.3-10,2.5-13.4,0.6c-3.4-2-3-5.5,1-7.8c4-2.3,10-2.5,13.4-0.6
			C69.3,330.7,68.8,334.2,64.9,336.5z"/>
	</g>
	<g>
		<path class="st4" d="M61.2,325.2c0.7,2,0.3,4.7-0.9,6.1c-1.2,1.4-2.7,0.9-3.4-1.1c-0.7-2-0.3-4.7,0.9-6.1
			C59,322.7,60.5,323.2,61.2,325.2z"/>
		<path class="st2" d="M60.6,325.2c0.7,2,0.3,4.7-0.9,6.1c-1.2,1.4-2.7,0.9-3.4-1.1c-0.7-2-0.3-4.7,0.9-6.1
			C58.4,322.7,59.9,323.2,60.6,325.2z"/>
	</g>
	<g>
		<path class="st4" d="M57,315.7c0.7,2,0.3,4.7-0.9,6.1c-1.2,1.4-2.7,0.9-3.4-1.1c-0.7-2-0.3-4.7,0.9-6.1
			C54.8,313.2,56.3,313.7,57,315.7z"/>
		<path class="st2" d="M56.4,315.7c0.7,2,0.3,4.7-0.9,6.1c-1.2,1.4-2.7,0.9-3.4-1.1c-0.7-2-0.3-4.7,0.9-6.1
			C54.2,313.2,55.7,313.7,56.4,315.7z"/>
	</g>
	<g>
		<path class="st4" d="M64.8,309.2c0.7,2,0.3,4.7-0.9,6.1c-1.2,1.4-2.7,0.9-3.4-1.1c-0.7-2-0.3-4.7,0.9-6.1
			C62.6,306.7,64.1,307.2,64.8,309.2z"/>
		<path class="st2" d="M64.2,309.2c0.7,2,0.3,4.7-0.9,6.1c-1.2,1.4-2.7,0.9-3.4-1.1c-0.7-2-0.3-4.7,0.9-6.1
			C62,306.7,63.5,307.2,64.2,309.2z"/>
	</g>
</g>
<text transform="matrix(1 0 0 1 260.5723 385.0947)" class="st10 st11 st12">by GUN</text>
<rect y="667" class="st7" width="375" height="667"/>
<rect y="1334" class="st1" width="375" height="667"/>
<rect y="2001" class="st9" width="375" height="667"/>
<g>
	<text transform="matrix(1 0 0 1 19.8047 1147.6777)" class="st10 st5 st20">why did we make it?</text>
</g>
<rect x="14.1" y="1161" class="st21" width="334" height="95.3"/>
<text transform="matrix(1 0 0 1 14.0508 1167.8643)"><tspan x="0" y="0" class="st13 st11 st22">Lorem ipsum dolor sit amet, consectetur adipiscing elit. Quisque sed odio nulla. </tspan><tspan x="0" y="13.4" class="st13 st11 st22">Curabitur nisl magna, feugiat lobortis bibendum at, finibus vel nisl. Aenean quis </tspan><tspan x="0" y="26.7" class="st13 st11 st22">interdum urna. Duis bibendum a nulla eu pulvinar. Suspendisse potenti. Donec et </tspan><tspan x="0" y="40.1" class="st13 st11 st22">pretium nisl. Cras sollicitudin, sem a ultricies malesuada, leo odio faucibus justo, </tspan><tspan x="0" y="53.5" class="st13 st11 st22">vitae blandit ligula ex congue tortor. Pellentesque erat arcu, luctus sit amet est </tspan><tspan x="0" y="66.8" class="st13 st11 st22">ut, luctus posuere lorem. Quisque tempus pretium urna, vel cursus lacus sagittis </tspan><tspan x="0" y="80.2" class="st13 st11 st22">in. Nullam eu lectus lacinia, euismod leo quis, commodo ipsum. </tspan></text>
<rect x="42.8" y="856.1" class="st14" width="204.6" height="204.6"/>
<rect x="114.7" y="753.8" class="st15" width="204.6" height="204.6"/>
<circle class="st16" cx="136.1" cy="1742.5" r="107.8"/>
<circle class="st17" cx="268.7" cy="1783.2" r="87.2"/>
<g>
	<text transform="matrix(1 0 0 1 43.0273 1425.4258)" class="st8 st5 st23">how does it work?</text>
</g>
<rect x="26.2" y="1438.3" class="st21" width="322.5" height="92"/>
<text transform="matrix(1 0 0 1 26.2255 1444.9189)"><tspan x="0" y="0" class="st8 st11 st24">Lorem ipsum dolor sit amet, consectetur adipiscing elit. Quisque sed odio nulla. </tspan><tspan x="0" y="12.9" class="st8 st11 st24">Curabitur nisl magna, feugiat lobortis bibendum at, finibus vel nisl. Aenean quis </tspan><tspan x="0" y="25.8" class="st8 st11 st24">interdum urna. Duis bibendum a nulla eu pulvinar. Suspendisse potenti. Donec et </tspan><tspan x="0" y="38.7" class="st8 st11 st24">pretium nisl. Cras sollicitudin, sem a ultricies malesuada, leo odio faucibus justo, </tspan><tspan x="0" y="51.6" class="st8 st11 st24">vitae blandit ligula ex congue tortor. Pellentesque erat arcu, luctus sit amet est </tspan><tspan x="0" y="64.5" class="st8 st11 st24">ut, luctus posuere lorem. Quisque tempus pretium urna, vel cursus lacus sagittis </tspan><tspan x="0" y="77.5" class="st8 st11 st24">in. Nullam eu lectus lacinia, euismod leo quis, commodo ipsum. </tspan></text>
<g>
	<text transform="matrix(1 0 0 1 52.832 2105.843)" class="st8 st5 st23">what does it do?</text>
</g>
<rect x="43" y="2128.5" class="st21" width="291.6" height="83.2"/>
<text transform="matrix(1 0 0 1 43.0273 2134.502)"><tspan x="0" y="0" class="st8 st11 st25">Lorem ipsum dolor sit amet, consectetur adipiscing elit. Quisque sed odio nulla. </tspan><tspan x="0" y="11.7" class="st8 st11 st25">Curabitur nisl magna, feugiat lobortis bibendum at, finibus vel nisl. Aenean quis </tspan><tspan x="0" y="23.3" class="st8 st11 st25">interdum urna. Duis bibendum a nulla eu pulvinar. Suspendisse potenti. Donec et </tspan><tspan x="0" y="35" class="st8 st11 st25">pretium nisl. Cras sollicitudin, sem a ultricies malesuada, leo odio faucibus justo, </tspan><tspan x="0" y="46.7" class="st8 st11 st25">vitae blandit ligula ex congue tortor. Pellentesque erat arcu, luctus sit amet est </tspan><tspan x="0" y="58.3" class="st8 st11 st25">ut, luctus posuere lorem. Quisque tempus pretium urna, vel cursus lacus sagittis </tspan><tspan x="0" y="70" class="st8 st11 st25">in. Nullam eu lectus lacinia, euismod leo quis, commodo ipsum. </tspan></text>
<polygon class="st18" points="274.4,2330.6 311,2394.1 274.4,2457.6 201,2457.6 164.4,2394.1 201,2330.6 "/>
<polygon class="st16" points="138.9,2443 175.6,2506.5 138.9,2570 65.6,2570 28.9,2506.5 65.6,2443 "/>
<polygon class="st19" points="318.3,2457.6 355,2521.1 318.3,2584.6 245,2584.6 208.3,2521.1 245,2457.6 "/>
</svg>
