<?xml version="1.0" encoding="utf-8"?>
<!-- Generator: Adobe Illustrator 20.0.0, SVG Export Plug-In . SVG Version: 6.00 Build 0)  -->
<!DOCTYPE svg PUBLIC "-//W3C//DTD SVG 1.1//EN" "http://www.w3.org/Graphics/SVG/1.1/DTD/svg11.dtd">
<svg version="1.1" id="Layer_1" xmlns="http://www.w3.org/2000/svg" xmlns:xlink="http://www.w3.org/1999/xlink" x="0px" y="0px"
	 viewBox="0 0 170.4 208.4" style="enable-background:new 0 0 170.4 208.4;" xml:space="preserve">
<style type="text/css">
	.st0{fill:#091410;}
	.st1{fill:#1BA897;}
	.st2{fill:#FBEE2D;}
	.st3{fill:#D5C529;}
	.st4{fill:#C4B22F;}
	.st5{fill:#603240;}
	.st6{fill:#F1F2F2;}
	.st7{fill:#A52E23;}
	.st8{fill:#FFFFFF;}
	.st9{fill:#FDFEFE;}
	.st10{fill:#939598;}
	.st11{fill:#808285;}
	.st12{fill:#BCBEC0;}
	.st13{fill:#E6E7E8;}
	.st14{fill:#414042;}
	.st15{fill:#D1D3D4;}
	.st16{fill:#491B0D;}
	.st17{fill:#D84426;}
	.st18{fill:#93AC4C;}
	.st19{fill:#126F63;}
	.st20{fill:#E0C93A;}
	.st21{fill:#EF4423;}
	.st22{fill:#A09F9F;}
	.st23{fill:#AD4967;}
	.st24{fill:#85C441;}
	.st25{fill:#C53227;}
	.st26{fill:#7B7B7B;}
	.st27{fill:#B0B0B0;}
	.st28{fill:#4C4C4D;}
	.st29{fill:#8E8E8E;}
	.st30{fill:#BCBCBC;}
	.st31{fill:#212121;}
	.st32{fill:#DDDDDD;}
	.st33{fill:#B7B7B7;}
	.st34{fill:#F04A4A;}
	.st35{fill:#FDB523;}
	.st36{fill:#4AB749;}
	.st37{fill:#CCCCCB;}
	.st38{fill:#DBD622;}
	.st39{fill:#58C099;}
	.st40{fill:#4062AE;}
	.st41{fill:#D9D327;}
	.st42{fill:#4DA547;}
	.st43{fill:#49BB83;}
	.st44{fill:#6B50A1;}
	.st45{fill:#CD862A;}
	.st46{fill:#483E98;}
	.st47{fill:#A65926;}
	.st48{fill:#78C143;}
	.st49{fill:#32C0D1;}
	.st50{fill:#636464;}
	.st51{fill:#643584;}
	.st52{fill:#DC8727;}
	.st53{fill:#B56C29;}
	.st54{fill:#CC7A29;}
	.st55{fill:#A3A1A1;}
	.st56{fill:#167F70;}
	.st57{fill:#1AAF9A;}
	.st58{fill:#DCDBDB;}
	.st59{fill:#6BBE45;}
	.st60{fill:#43AF49;}
	.st61{fill:#62A844;}
	.st62{fill:#CE2E27;}
	.st63{fill:#8F1D1D;}
	.st64{fill:#BA2626;}
	.st65{fill:#753C97;}
	.st66{fill:#4D2966;}
	.st67{fill:#D9E028;}
	.st68{fill:#A3A537;}
	.st69{fill:#C5C62F;}
	.st70{fill:#B69830;}
	.st71{fill:#DDA82F;}
	.st72{fill:#D29B3C;}
	.st73{fill:#CB922B;}
	.st74{fill:#963D97;}
	.st75{fill:#833677;}
	.st76{fill:#973D8F;}
	.st77{fill:#83367E;}
	.st78{fill:#14475D;}
	.st79{fill:#06ABCD;}
	.st80{fill:#D0CECF;}
	.st81{fill:#D8D8D8;}
	.st82{opacity:0.4;}
	.st83{fill:#ACA99F;}
	.st84{fill:#367D93;}
	.st85{fill:#EEEAE1;}
	.st86{fill:#45ABCC;}
	.st87{fill:url(#SVGID_1_);}
	.st88{fill:url(#SVGID_2_);}
	.st89{fill:#789DA9;}
	.st90{fill:url(#SVGID_3_);}
	.st91{fill:url(#SVGID_4_);}
	.st92{fill:#63BBCC;}
	.st93{fill:#2D7482;}
	.st94{fill:#126C5F;}
	.st95{fill:#158372;}
	.st96{fill:#1A9684;}
	.st97{fill:#39B54A;}
</style>
<g>
	<g>
		<polygon class="st62" points="168,49 85.2,96.8 2.4,49 85.2,1.2 		"/>
		<polygon class="st63" points="85.2,207.2 2.4,159.4 2.4,49 85.2,96.8 		"/>
		<polygon class="st64" points="168,159.4 85.2,207.2 85.2,96.8 168,49 		"/>
	</g>
	<g>
		<path class="st8" d="M92.8,78.8l-3.4-2c-4.1-2.4-5.8-5.6-4.5-8.3l6.2-16.2l25.6,9.9l-15.6,16.3C99.8,80.4,95.6,80.4,92.8,78.8z"/>
		<path class="st8" d="M28.8,41.8l1.8,1c4.1,2.4,9.7,3.4,14.4,2.6l29.6-2.6L57.3,28L29,37C26.1,37.8,25.9,40.2,28.8,41.8z"/>
		<path class="st8" d="M127,42.5c-2.3-1.3-5.1-2.2-8.2-2.6L96,26.7c-0.6-1.8-2.2-3.4-4.5-4.7c-7.4-4.3-20.3-3.7-28.9,1.2
			c-8.6,4.9-9.5,12.4-2.1,16.7c3.3,1.9,7.7,2.9,12.4,2.9l18.1,10.5c0,2.7,1.7,5.2,5,7.1c7.4,4.3,20.3,3.7,28.9-1.2
			C133.5,54.2,134.5,46.8,127,42.5z M80.7,33.3l-3.9-2.2L71.8,34l-3.3-1.9l5.1-2.9l-4.4-2.5l3.8-2.2l4.4,2.5l4.4-2.6l3.3,1.9
			l-4.4,2.6l3.9,2.2L80.7,33.3z M106,49.2c-1.3-0.8-1.1-2.1,0.4-2.9s3.8-1,5.1-0.2c1.3,0.8,1.1,2.1-0.4,2.9
			C109.6,49.9,107.3,50,106,49.2z M105.1,56.4c-1.3-0.8-1.1-2.1,0.4-2.9c1.5-0.9,3.8-1,5.1-0.2c1.3,0.8,1.1,2.1-0.4,2.9
			C108.7,57.1,106.4,57.2,105.1,56.4z M118.5,48.7c-1.3-0.8-1.1-2.1,0.4-2.9c1.5-0.9,3.8-1,5.1-0.2c1.3,0.8,1.1,2.1-0.4,2.9
			C122,49.4,119.8,49.5,118.5,48.7z M117.6,55.9c-1.3-0.8-1.1-2.1,0.4-2.9c1.5-0.9,3.8-1,5.1-0.2c1.3,0.8,1.1,2.1-0.4,2.9
			C121.1,56.5,118.9,56.6,117.6,55.9z"/>
	</g>
</g>
</svg>
